<svg width="1440" height="2712" viewBox="0 0 1440 2712" fill="none" xmlns="http://www.w3.org/2000/svg">
<path d="M-552.789 904.136C-526.975 896.236 -468.5 1019.64 -442.672 1011.74C-416.845 1003.84 -475.334 880.433 -449.507 872.53C-423.68 864.626 -365.218 988.037 -339.391 980.133C-313.563 972.229 -372.053 848.827 -346.226 840.923C-320.398 833.02 -261.936 956.43 -236.109 948.527C-210.282 940.623 -268.771 817.221 -242.944 809.317C-217.117 801.414 -158.655 924.824 -132.828 916.921C-107 909.017 -165.49 785.615 -139.676 777.715C-113.863 769.816 -55.3735 893.218 -29.5047 885.302C-3.63586 877.385 -62.1668 753.996 -36.3533 746.096C-10.5398 738.197 47.9634 861.595 73.7215 853.712C99.4797 845.83 41.0594 722.407 66.9559 714.482C92.8523 706.557 151.245 829.989 177.058 822.089C202.872 814.19 144.41 690.779 170.224 682.88C196.037 674.98 254.513 798.387 280.34 790.483C306.167 782.579 247.678 659.177 273.491 651.278C299.305 643.378 357.794 766.781 383.621 758.877C409.449 750.973 350.959 627.571 376.787 619.667C402.614 611.764 461.076 735.174 486.903 727.271C512.73 719.367 454.241 595.965 480.068 588.061C505.895 580.158 564.357 703.568 590.184 695.665C616.012 687.761 557.522 564.359 583.35 556.455C609.177 548.551 667.639 671.962 693.466 664.058C719.293 656.155 660.818 532.748 686.631 524.849C712.445 516.949 770.934 640.352 796.748 632.452C822.561 624.553 764.099 501.142 789.913 493.243C815.726 485.343 874.216 608.745 900.043 600.842C925.87 592.938 867.381 469.536 893.208 461.632C919.035 453.729 977.511 577.135 1003.32 569.236C1029.14 561.336 970.676 437.926 996.503 430.022C1022.33 422.118 1080.81 545.525 1106.63 537.621C1132.46 529.717 1073.99 406.311 1099.8 398.411" stroke="#AF6900" stroke-opacity="0.1" stroke-width="0.862798" stroke-miterlimit="10"/>
<path d="M-341.948 1349.09C-316.134 1341.19 -257.659 1464.6 -231.831 1456.69C-206.004 1448.79 -264.494 1325.39 -238.666 1317.49C-212.839 1309.58 -154.377 1432.99 -128.55 1425.09C-102.723 1417.19 -161.212 1293.78 -135.385 1285.88C-109.557 1277.98 -51.0957 1401.39 -25.2684 1393.48C0.55892 1385.58 -57.9305 1262.18 -32.1032 1254.27C-6.27591 1246.37 52.1858 1369.78 78.0131 1361.88C103.84 1353.97 45.351 1230.57 71.1645 1222.67C96.9779 1214.77 155.467 1338.17 181.336 1330.26C207.205 1322.34 148.674 1198.95 174.488 1191.05C200.301 1183.15 258.804 1306.55 284.562 1298.67C310.32 1290.79 251.9 1167.36 277.797 1159.44C303.693 1151.51 362.086 1274.94 387.899 1267.05C413.713 1259.15 355.251 1135.74 381.064 1127.84C406.878 1119.94 465.353 1243.34 491.181 1235.44C517.008 1227.54 458.519 1104.13 484.332 1096.23C510.145 1088.33 568.635 1211.74 594.462 1203.83C620.29 1195.93 561.8 1072.53 587.627 1064.62C613.455 1056.72 671.916 1180.13 697.744 1172.23C723.571 1164.32 665.082 1040.92 690.909 1033.02C716.736 1025.11 775.198 1148.52 801.025 1140.62C826.853 1132.72 768.363 1009.31 794.19 1001.41C820.018 993.507 878.479 1116.92 904.307 1109.01C930.134 1101.11 871.659 977.704 897.472 969.805C923.285 961.905 981.775 1085.31 1007.59 1077.41C1033.4 1069.51 974.94 946.098 1000.75 938.199C1026.57 930.299 1085.06 1053.7 1110.88 1045.8C1136.71 1037.89 1078.22 914.492 1104.05 906.588C1129.88 898.684 1188.35 1022.09 1214.17 1014.19C1239.98 1006.29 1181.52 882.881 1207.34 874.978C1233.17 867.074 1291.65 990.48 1317.47 982.577C1343.3 974.673 1284.83 851.267 1310.64 843.367" stroke="#AF6900" stroke-opacity="0.1" stroke-width="0.862798" stroke-miterlimit="10"/>
<path d="M-40.2876 1985.71C-14.4741 1977.81 44.0014 2101.22 69.8287 2093.31C95.656 2085.41 37.1666 1962.01 62.9939 1954.11C88.8212 1946.2 147.283 2069.61 173.11 2061.71C198.938 2053.81 140.448 1930.4 166.275 1922.5C192.103 1914.6 250.564 2038.01 276.392 2030.1C302.219 2022.2 243.73 1898.8 269.557 1890.89C295.384 1882.99 353.846 2006.4 379.673 1998.5C405.501 1990.59 347.011 1867.19 372.825 1859.29C398.638 1851.39 457.128 1974.79 482.996 1966.88C508.865 1958.96 450.334 1835.57 476.148 1827.67C501.961 1819.77 560.464 1943.17 586.222 1935.29C611.981 1927.41 553.56 1803.98 579.457 1796.06C605.353 1788.13 663.746 1911.56 689.559 1903.67C715.373 1895.77 656.911 1772.36 682.725 1764.46C708.538 1756.56 767.014 1879.96 792.841 1872.06C818.668 1864.16 760.179 1740.75 785.992 1732.85C811.806 1724.95 870.295 1848.36 896.122 1840.45C921.95 1832.55 863.46 1709.15 889.288 1701.24C915.115 1693.34 973.577 1816.75 999.404 1808.85C1025.23 1800.94 966.742 1677.54 992.569 1669.64C1018.4 1661.73 1076.86 1785.14 1102.69 1777.24C1128.51 1769.34 1070.02 1645.93 1095.85 1638.03C1121.68 1630.13 1180.14 1753.54 1205.97 1745.63C1231.79 1737.73 1173.32 1614.32 1199.13 1606.42C1224.95 1598.53 1283.44 1721.93 1309.25 1714.03C1335.06 1706.13 1276.6 1582.72 1302.41 1574.82C1328.23 1566.92 1386.72 1690.32 1412.54 1682.42C1438.37 1674.51 1379.88 1551.11 1405.71 1543.21C1431.54 1535.3 1490.01 1658.71 1515.83 1650.81C1541.64 1642.91 1483.18 1519.5 1509 1511.6C1534.83 1503.69 1593.31 1627.1 1619.13 1619.2C1644.96 1611.29 1586.49 1487.89 1612.3 1479.99" stroke="#AF6900" stroke-opacity="0.1" stroke-width="0.862798" stroke-miterlimit="10"/>
<path d="M-403.494 1219.21C-377.68 1211.31 -319.205 1334.71 -293.377 1326.81C-267.55 1318.91 -326.039 1195.5 -300.212 1187.6C-274.385 1179.7 -215.923 1303.11 -190.096 1295.2C-164.269 1287.3 -222.758 1163.9 -196.931 1155.99C-171.103 1148.09 -112.642 1271.5 -86.8143 1263.6C-60.987 1255.69 -119.476 1132.29 -93.6491 1124.39C-67.8218 1116.48 -9.36005 1239.89 16.4672 1231.99C42.2945 1224.09 -16.1949 1100.68 9.61859 1092.79C35.4321 1084.89 93.9215 1208.29 119.79 1200.37C145.659 1192.46 87.1281 1069.07 112.942 1061.17C138.755 1053.27 197.258 1176.66 223.016 1168.78C248.775 1160.9 190.354 1037.48 216.251 1029.55C242.147 1021.63 300.54 1145.06 326.353 1137.16C352.167 1129.26 293.705 1005.85 319.519 997.95C345.332 990.05 403.807 1113.46 429.635 1105.55C455.462 1097.65 396.973 974.247 422.786 966.348C448.6 958.448 507.089 1081.85 532.916 1073.95C558.744 1066.04 500.254 942.641 526.081 934.737C551.909 926.834 610.371 1050.24 636.198 1042.34C662.025 1034.44 603.536 911.035 629.363 903.131C655.19 895.228 713.652 1018.64 739.479 1010.73C765.307 1002.83 706.817 879.429 732.645 871.525C758.472 863.621 816.934 987.032 842.761 979.128C868.588 971.225 810.113 847.818 835.926 839.919C861.74 832.019 920.229 955.422 946.042 947.522C971.856 939.623 913.394 816.212 939.208 808.313C965.021 800.413 1023.51 923.815 1049.34 915.912C1075.17 908.008 1016.68 784.606 1042.5 776.702C1068.33 768.799 1126.81 892.205 1152.62 884.306C1178.43 876.406 1119.97 752.995 1145.8 745.092C1171.63 737.188 1230.1 860.595 1255.93 852.691C1281.76 844.787 1223.28 721.381 1249.09 713.481" stroke="#AF6900" stroke-opacity="0.1" stroke-width="0.862798" stroke-miterlimit="10"/>
<path d="M-101.834 1855.83C-76.0205 1847.93 -17.5449 1971.33 8.28235 1963.43C34.1096 1955.53 -24.3798 1832.12 1.44754 1824.22C27.2748 1816.32 85.7366 1939.73 111.564 1931.82C137.391 1923.92 78.9018 1800.52 104.729 1792.61C130.556 1784.71 189.018 1908.12 214.845 1900.22C240.673 1892.31 182.183 1768.91 208.011 1761.01C233.838 1753.1 292.3 1876.52 318.127 1868.61C343.954 1860.71 285.465 1737.31 311.278 1729.41C337.092 1721.51 395.581 1844.91 421.45 1836.99C447.319 1829.08 388.788 1705.69 414.601 1697.79C440.415 1689.89 498.918 1813.29 524.676 1805.4C550.434 1797.52 492.014 1674.1 517.91 1666.17C543.807 1658.25 602.2 1781.68 628.013 1773.78C653.826 1765.88 595.365 1642.47 621.178 1634.57C646.992 1626.67 705.467 1750.08 731.294 1742.17C757.122 1734.27 698.632 1610.87 724.446 1602.97C750.259 1595.07 808.749 1718.47 834.576 1710.57C860.403 1702.66 801.914 1579.26 827.741 1571.36C853.568 1563.46 912.03 1686.87 937.858 1678.96C963.685 1671.06 905.195 1547.66 931.023 1539.75C956.85 1531.85 1015.31 1655.26 1041.14 1647.36C1066.97 1639.45 1008.48 1516.05 1034.3 1508.15C1060.13 1500.24 1118.59 1623.65 1144.42 1615.75C1170.25 1607.85 1111.77 1484.44 1137.59 1476.54C1163.4 1468.64 1221.89 1592.04 1247.7 1584.14C1273.52 1576.24 1215.05 1452.83 1240.87 1444.93C1266.68 1437.03 1325.17 1560.44 1351 1552.53C1376.82 1544.63 1318.34 1421.23 1344.16 1413.32C1369.99 1405.42 1428.47 1528.83 1454.28 1520.93C1480.09 1513.03 1421.63 1389.62 1447.46 1381.71C1473.29 1373.81 1531.76 1497.22 1557.59 1489.31C1583.42 1481.41 1524.94 1358 1550.75 1350.1" stroke="#AF6900" stroke-opacity="0.1" stroke-width="0.862798" stroke-miterlimit="10"/>
<path d="M-494.313 1027.54C-468.499 1019.64 -410.024 1143.05 -384.196 1135.15C-358.369 1127.24 -416.859 1003.84 -391.031 995.936C-365.204 988.033 -306.742 1111.44 -280.915 1103.54C-255.088 1095.64 -313.577 972.234 -287.75 964.33C-261.922 956.426 -203.461 1079.84 -177.633 1071.93C-151.806 1064.03 -210.295 940.627 -184.468 932.724C-158.641 924.82 -100.179 1048.23 -74.3518 1040.33C-48.5245 1032.42 -107.014 909.021 -81.2005 901.122C-55.387 893.222 3.10238 1016.62 28.9712 1008.71C54.84 1000.79 -3.69094 877.402 22.1225 869.503C47.936 861.604 106.439 985.001 132.197 977.119C157.955 969.236 99.5352 845.813 125.432 837.888C151.328 829.963 209.721 953.395 235.534 945.496C261.348 937.596 202.886 814.186 228.699 806.286C254.513 798.387 312.988 921.793 338.816 913.89C364.643 905.986 306.154 782.584 331.967 774.684C357.781 766.785 416.27 890.187 442.097 882.283C467.925 874.38 409.435 750.978 435.262 743.074C461.09 735.17 519.551 858.581 545.379 850.677C571.206 842.774 512.717 719.371 538.544 711.468C564.371 703.564 622.833 826.975 648.66 819.071C674.488 811.167 615.998 687.765 641.825 679.862C667.653 671.958 726.114 795.369 751.942 787.465C777.769 779.561 719.294 656.155 745.107 648.255C770.92 640.356 829.41 763.758 855.223 755.859C881.037 747.959 822.575 624.549 848.388 616.649C874.202 608.75 932.691 732.152 958.519 724.248C984.346 716.345 925.857 592.942 951.684 585.039C977.511 577.135 1035.99 700.542 1061.8 692.642C1087.61 684.743 1029.15 561.332 1054.98 553.428C1080.81 545.525 1139.28 668.931 1165.11 661.027C1190.94 653.124 1132.46 529.717 1158.27 521.818" stroke="#AF6900" stroke-opacity="0.1" stroke-width="0.862798" stroke-miterlimit="10"/>
<path d="M-192.652 1664.16C-166.839 1656.26 -108.363 1779.67 -82.536 1771.77C-56.7087 1763.86 -115.198 1640.46 -89.3708 1632.56C-63.5435 1624.65 -5.08178 1748.06 20.7455 1740.16C46.5728 1732.26 -11.9166 1608.85 13.9107 1600.95C39.738 1593.05 98.1997 1716.46 124.027 1708.55C149.854 1700.65 91.3649 1577.25 117.192 1569.34C143.019 1561.44 201.481 1684.85 227.309 1676.95C253.136 1669.04 194.646 1545.64 220.46 1537.74C246.273 1529.84 304.763 1653.24 330.632 1645.33C356.5 1637.41 297.969 1514.02 323.783 1506.12C349.596 1498.22 408.1 1621.62 433.858 1613.74C459.616 1605.86 401.196 1482.43 427.092 1474.51C452.989 1466.58 511.381 1590.02 537.195 1582.12C563.008 1574.22 504.546 1450.81 530.36 1442.91C556.173 1435.01 614.649 1558.41 640.476 1550.51C666.303 1542.61 607.814 1419.2 633.627 1411.3C659.441 1403.4 717.93 1526.81 743.758 1518.9C769.585 1511 711.095 1387.6 736.923 1379.69C762.75 1371.79 821.212 1495.2 847.039 1487.3C872.866 1479.39 814.377 1355.99 840.204 1348.09C866.032 1340.18 924.493 1463.59 950.321 1455.69C976.148 1447.79 917.659 1324.38 943.486 1316.48C969.313 1308.58 1027.77 1431.99 1053.6 1424.08C1079.43 1416.18 1020.95 1292.77 1046.77 1284.88C1072.58 1276.98 1131.07 1400.38 1156.88 1392.48C1182.7 1384.58 1124.24 1261.17 1150.05 1253.27C1175.86 1245.37 1234.35 1368.77 1260.18 1360.87C1286.01 1352.96 1227.52 1229.56 1253.34 1221.66C1279.17 1213.75 1337.65 1337.16 1363.46 1329.26C1389.27 1321.36 1330.81 1197.95 1356.64 1190.05C1382.47 1182.14 1440.94 1305.55 1466.77 1297.65C1492.6 1289.74 1434.12 1166.34 1459.93 1158.44" stroke="#AF6900" stroke-opacity="0.1" stroke-width="0.862798" stroke-miterlimit="10"/>
<path d="M-283.472 1472.5C-257.658 1464.6 -199.183 1588.01 -173.356 1580.1C-147.528 1572.2 -206.018 1448.8 -180.19 1440.89C-154.363 1432.99 -95.9014 1556.4 -70.0741 1548.5C-44.2468 1540.59 -102.736 1417.19 -76.9089 1409.29C-51.0816 1401.38 7.38016 1524.79 33.2075 1516.89C59.0347 1508.99 0.545325 1385.58 26.3726 1377.68C52.1999 1369.78 110.662 1493.19 136.489 1485.28C162.316 1477.38 103.827 1353.98 129.64 1346.08C155.454 1338.18 213.943 1461.58 239.812 1453.66C265.681 1445.75 207.15 1322.36 232.963 1314.46C258.777 1306.56 317.28 1429.96 343.038 1422.07C368.796 1414.19 310.376 1290.77 336.273 1282.84C362.169 1274.92 420.562 1398.35 446.375 1390.45C472.189 1382.55 413.727 1259.14 439.54 1251.24C465.354 1243.34 523.829 1366.75 549.657 1358.85C575.484 1350.94 516.994 1227.54 542.808 1219.64C568.621 1211.74 627.111 1335.14 652.938 1327.24C678.765 1319.34 620.276 1195.93 646.103 1188.03C671.93 1180.13 730.392 1303.54 756.22 1295.63C782.047 1287.73 723.557 1164.33 749.385 1156.42C775.212 1148.52 833.674 1271.93 859.501 1264.03C885.328 1256.12 826.839 1132.72 852.666 1124.82C878.494 1116.91 936.955 1240.32 962.783 1232.42C988.61 1224.52 930.134 1101.11 955.948 1093.21C981.761 1085.31 1040.25 1208.71 1066.06 1200.81C1091.88 1192.92 1033.42 1069.5 1059.23 1061.61C1085.04 1053.71 1143.53 1177.11 1169.36 1169.2C1195.19 1161.3 1136.7 1037.9 1162.52 1029.99C1188.35 1022.09 1246.83 1145.5 1272.64 1137.6C1298.45 1129.7 1239.99 1006.29 1265.82 998.384C1291.65 990.481 1350.12 1113.89 1375.95 1105.98C1401.78 1098.08 1343.3 974.673 1369.12 966.774" stroke="#AF6900" stroke-opacity="0.1" stroke-width="0.862798" stroke-miterlimit="10"/>
<path d="M18.1877 2109.12C44.0012 2101.22 102.477 2224.63 128.304 2216.72C154.131 2208.82 95.642 2085.42 121.469 2077.51C147.297 2069.61 205.758 2193.02 231.586 2185.12C257.413 2177.21 198.923 2053.81 224.751 2045.91C250.578 2038 309.04 2161.41 334.867 2153.51C360.694 2145.61 302.205 2022.2 328.032 2014.3C353.86 2006.4 412.321 2129.81 438.149 2121.9C463.976 2114 405.487 1990.6 431.3 1982.7C457.113 1974.8 515.603 2098.2 541.472 2090.28C567.34 2082.37 508.81 1958.98 534.623 1951.08C560.436 1943.18 618.94 2066.58 644.698 2058.7C670.456 2050.81 612.036 1927.39 637.932 1919.46C663.829 1911.54 722.221 2034.97 748.035 2027.07C773.848 2019.17 715.386 1895.76 741.2 1887.86C767.013 1879.96 825.489 2003.37 851.316 1995.47C877.143 1987.56 818.654 1864.16 844.468 1856.26C870.281 1848.36 928.77 1971.76 954.598 1963.86C980.425 1955.96 921.936 1832.55 947.763 1824.65C973.59 1816.75 1032.05 1940.16 1057.88 1932.25C1083.71 1924.35 1025.22 1800.95 1051.04 1793.04C1076.87 1785.14 1135.33 1908.55 1161.16 1900.65C1186.99 1892.74 1128.5 1769.34 1154.33 1761.44C1180.15 1753.53 1238.61 1876.94 1264.44 1869.04C1290.27 1861.14 1231.79 1737.73 1257.61 1729.83C1283.42 1721.93 1341.91 1845.33 1367.72 1837.43C1393.54 1829.54 1335.08 1706.12 1360.89 1698.23C1386.7 1690.33 1445.19 1813.73 1471.02 1805.82C1496.85 1797.92 1438.36 1674.52 1464.18 1666.61C1490.01 1658.71 1548.49 1782.12 1574.3 1774.22C1600.11 1766.32 1541.65 1642.91 1567.48 1635C1593.31 1627.1 1651.78 1750.51 1677.61 1742.6C1703.44 1734.7 1644.96 1611.29 1670.78 1603.39" stroke="#AF6900" stroke-opacity="0.1" stroke-width="0.862798" stroke-miterlimit="10"/>
<path d="M-432.767 1157.43C-406.953 1149.53 -348.478 1272.93 -322.651 1265.03C-296.823 1257.13 -355.313 1133.73 -329.485 1125.82C-303.658 1117.92 -245.196 1241.33 -219.369 1233.42C-193.542 1225.52 -252.031 1102.12 -226.204 1094.22C-200.377 1086.31 -141.915 1209.72 -116.087 1201.82C-90.2602 1193.91 -148.75 1070.51 -122.922 1062.61C-97.095 1054.71 -38.6332 1178.12 -12.8059 1170.21C13.0213 1162.31 -45.4681 1038.91 -19.6546 1031.01C6.15886 1023.11 64.6483 1146.51 90.5171 1138.59C116.386 1130.68 57.855 1007.29 83.6684 999.388C109.482 991.489 167.985 1114.89 193.743 1107C219.501 1099.12 161.081 975.698 186.978 967.774C212.874 959.849 271.267 1083.28 297.08 1075.38C322.894 1067.48 264.432 944.071 290.245 936.172C316.059 928.272 374.534 1051.68 400.362 1043.77C426.189 1035.87 367.699 912.469 393.513 904.57C419.326 896.67 477.816 1020.07 503.643 1012.17C529.47 1004.27 470.981 880.863 496.808 872.959C522.636 865.056 581.097 988.466 606.925 980.563C632.752 972.659 574.263 849.257 600.09 841.353C625.917 833.449 684.379 956.86 710.206 948.956C736.033 941.053 677.544 817.651 703.371 809.747C729.199 801.843 787.66 925.254 813.488 917.35C839.315 909.447 780.839 786.04 806.653 778.141C832.466 770.241 890.956 893.643 916.769 885.744C942.583 877.845 884.121 754.434 909.934 746.535C935.748 738.635 994.237 862.037 1020.06 854.134C1045.89 846.23 987.402 722.828 1013.23 714.924C1039.06 707.02 1097.53 830.427 1123.35 822.527C1149.16 814.628 1090.7 691.217 1116.53 683.314C1142.35 675.41 1200.83 798.816 1226.66 790.913C1252.48 783.009 1194.01 659.603 1219.82 651.703" stroke="#AF6900" stroke-opacity="0.1" stroke-width="0.862798" stroke-miterlimit="10"/>
<path d="M-131.107 1794.05C-105.293 1786.15 -46.8177 1909.55 -20.9904 1901.65C4.83694 1893.75 -53.6525 1770.35 -27.8252 1762.44C-1.99787 1754.54 56.4639 1877.95 82.2912 1870.05C108.118 1862.14 49.6291 1738.74 75.4564 1730.84C101.284 1722.93 159.745 1846.34 185.573 1838.44C211.4 1830.54 152.911 1707.13 178.738 1699.23C204.565 1691.33 263.027 1814.74 288.854 1806.83C314.682 1798.93 256.192 1675.53 282.006 1667.63C307.819 1659.73 366.308 1783.13 392.177 1775.21C418.046 1767.3 359.515 1643.91 385.329 1636.01C411.142 1628.11 469.645 1751.51 495.403 1743.62C521.162 1735.74 462.741 1612.32 488.638 1604.39C514.534 1596.47 572.927 1719.9 598.74 1712C624.554 1704.1 566.092 1580.69 591.905 1572.79C617.719 1564.89 676.194 1688.3 702.022 1680.4C727.849 1672.49 669.36 1549.09 695.173 1541.19C720.987 1533.29 779.476 1656.69 805.303 1648.79C831.131 1640.89 772.641 1517.48 798.468 1509.58C824.296 1501.68 882.758 1625.09 908.585 1617.18C934.412 1609.28 875.923 1485.88 901.75 1477.97C927.577 1470.07 986.039 1593.48 1011.87 1585.58C1037.69 1577.67 979.204 1454.27 1005.03 1446.37C1030.86 1438.46 1089.32 1561.87 1115.15 1553.97C1140.98 1546.07 1082.5 1422.66 1108.31 1414.76C1134.13 1406.86 1192.62 1530.26 1218.43 1522.36C1244.24 1514.46 1185.78 1391.05 1211.59 1383.15C1237.41 1375.26 1295.9 1498.66 1321.72 1490.75C1347.55 1482.85 1289.06 1359.45 1314.89 1351.54C1340.72 1343.64 1399.19 1467.05 1425.01 1459.15C1450.82 1451.25 1392.36 1327.84 1418.19 1319.93C1444.01 1312.03 1502.49 1435.44 1528.32 1427.53C1554.14 1419.63 1495.67 1296.22 1521.48 1288.32" stroke="#AF6900" stroke-opacity="0.1" stroke-width="0.862798" stroke-miterlimit="10"/>
<path d="M-523.586 965.764C-497.772 957.865 -439.297 1081.27 -413.469 1073.37C-387.642 1065.46 -446.131 942.061 -420.304 934.158C-394.477 926.254 -336.015 1049.66 -310.188 1041.76C-284.361 1033.86 -342.85 910.455 -317.023 902.552C-291.195 894.648 -232.734 1018.06 -206.906 1010.15C-181.079 1002.25 -239.568 878.849 -213.741 870.945C-187.914 863.042 -129.452 986.452 -103.625 978.549C-77.7975 970.645 -136.287 847.243 -110.473 839.343C-84.66 831.444 -26.1706 954.846 -0.301773 946.93C25.567 939.013 -32.9639 815.624 -7.15043 807.725C18.663 799.825 77.1663 923.223 102.924 915.341C128.683 907.458 70.2623 784.035 96.1587 776.11C122.055 768.185 180.448 891.617 206.261 883.717C232.075 875.818 173.613 752.407 199.426 744.508C225.24 736.608 283.715 860.015 309.543 852.111C335.37 844.208 276.881 720.805 302.694 712.906C328.508 705.007 386.997 828.409 412.824 820.505C438.652 812.601 380.162 689.199 405.989 681.296C431.817 673.392 490.278 796.803 516.106 788.899C541.933 780.995 483.444 657.593 509.271 649.689C535.098 641.786 593.56 765.196 619.387 757.293C645.215 749.389 586.725 625.987 612.553 618.083C638.38 610.179 696.842 733.59 722.669 725.686C748.496 717.783 690.021 594.376 715.834 586.477C741.647 578.578 800.137 701.98 825.95 694.08C851.764 686.181 793.302 562.77 819.116 554.871C844.929 546.971 903.418 670.374 929.246 662.47C955.073 654.566 896.584 531.164 922.411 523.26C948.238 515.357 1006.71 638.763 1032.53 630.864C1058.34 622.964 999.879 499.554 1025.71 491.65C1051.53 483.746 1110.01 607.153 1135.84 599.249C1161.66 591.345 1103.19 467.939 1129 460.04" stroke="#AF6900" stroke-opacity="0.1" stroke-width="0.862798" stroke-miterlimit="10"/>
<path d="M-221.926 1602.38C-196.113 1594.48 -137.637 1717.89 -111.81 1709.99C-85.9824 1702.08 -144.472 1578.68 -118.645 1570.78C-92.8172 1562.87 -34.3555 1686.28 -8.52817 1678.38C17.2991 1670.48 -41.1903 1547.07 -15.363 1539.17C10.4643 1531.27 68.9261 1654.68 94.7534 1646.77C120.581 1638.87 62.0912 1515.47 87.9185 1507.56C113.746 1499.66 172.208 1623.07 198.035 1615.17C223.862 1607.26 165.373 1483.86 191.186 1475.96C217 1468.06 275.489 1591.47 301.358 1583.55C327.227 1575.63 268.696 1452.24 294.509 1444.34C320.323 1436.44 378.826 1559.84 404.584 1551.96C430.342 1544.08 371.922 1420.65 397.818 1412.73C423.715 1404.8 482.107 1528.24 507.921 1520.34C533.734 1512.44 475.273 1389.03 501.086 1381.13C526.9 1373.23 585.375 1496.63 611.202 1488.73C637.03 1480.83 578.54 1357.42 604.354 1349.53C630.167 1341.63 688.657 1465.03 714.484 1457.12C740.311 1449.22 681.822 1325.82 707.649 1317.92C733.476 1310.01 791.938 1433.42 817.765 1425.52C843.593 1417.61 785.103 1294.21 810.931 1286.31C836.758 1278.41 895.22 1401.82 921.047 1393.91C946.874 1386.01 888.385 1262.61 914.212 1254.7C940.04 1246.8 998.501 1370.21 1024.33 1362.31C1050.16 1354.4 991.68 1231 1017.49 1223.1C1043.31 1215.2 1101.8 1338.6 1127.61 1330.7C1153.42 1322.8 1094.96 1199.39 1120.78 1191.49C1146.59 1183.59 1205.08 1306.99 1230.91 1299.09C1256.73 1291.19 1198.24 1167.78 1224.07 1159.88C1249.9 1151.98 1308.37 1275.38 1334.19 1267.48C1360 1259.58 1301.54 1136.17 1327.37 1128.27C1353.19 1120.37 1411.67 1243.77 1437.5 1235.87C1463.32 1227.96 1404.85 1104.56 1430.66 1096.66" stroke="#AF6900" stroke-opacity="0.1" stroke-width="0.862798" stroke-miterlimit="10"/>
<path d="M-312.746 1410.72C-286.932 1402.82 -228.457 1526.23 -202.63 1518.32C-176.802 1510.42 -235.292 1387.02 -209.464 1379.11C-183.637 1371.21 -125.175 1494.62 -99.348 1486.72C-73.5207 1478.81 -132.01 1355.41 -106.183 1347.51C-80.3555 1339.6 -21.8938 1463.01 3.93353 1455.11C29.7608 1447.21 -28.7286 1323.8 -2.9013 1315.9C22.926 1308 81.3878 1431.41 107.215 1423.5C133.042 1415.6 74.5529 1292.2 100.366 1284.3C126.18 1276.4 184.669 1399.8 210.538 1391.89C236.407 1383.97 177.876 1260.58 203.689 1252.68C229.503 1244.78 288.006 1368.18 313.764 1360.3C339.522 1352.41 281.102 1228.99 306.999 1221.07C332.895 1213.14 391.288 1336.57 417.101 1328.67C442.915 1320.77 384.453 1197.36 410.266 1189.46C436.08 1181.56 494.555 1304.97 520.383 1297.07C546.21 1289.16 487.72 1165.76 513.534 1157.86C539.347 1149.96 597.837 1273.36 623.664 1265.46C649.491 1257.56 591.002 1134.15 616.829 1126.25C642.657 1118.35 701.118 1241.76 726.946 1233.85C752.773 1225.95 694.284 1102.55 720.111 1094.64C745.938 1086.74 804.4 1210.15 830.227 1202.25C856.054 1194.34 797.565 1070.94 823.392 1063.04C849.22 1055.13 907.681 1178.55 933.509 1170.64C959.336 1162.74 900.86 1039.33 926.674 1031.43C952.487 1023.53 1010.98 1146.94 1036.79 1139.04C1062.6 1131.14 1004.14 1007.73 1029.96 999.826C1055.77 991.927 1114.26 1115.33 1140.09 1107.43C1165.91 1099.52 1107.42 976.119 1133.25 968.216C1159.08 960.312 1217.55 1083.72 1243.37 1075.82C1269.18 1067.92 1210.72 944.509 1236.55 936.605C1262.37 928.702 1320.85 1052.11 1346.68 1044.2C1372.5 1036.3 1314.03 912.894 1339.84 904.995" stroke="#AF6900" stroke-opacity="0.1" stroke-width="0.862798" stroke-miterlimit="10"/>
<path d="M-11.0854 2047.34C14.728 2039.44 73.2036 2162.85 99.0309 2154.94C124.858 2147.04 66.3688 2023.64 92.1961 2015.73C118.023 2007.83 176.485 2131.24 202.312 2123.34C228.14 2115.43 169.65 1992.03 195.478 1984.13C221.305 1976.22 279.767 2099.63 305.594 2091.73C331.421 2083.83 272.932 1960.43 298.759 1952.52C324.586 1944.62 383.048 2068.03 408.875 2060.13C434.703 2052.22 376.213 1928.82 402.027 1920.92C427.84 1913.02 486.33 2036.42 512.198 2028.51C538.067 2020.59 479.536 1897.2 505.35 1889.3C531.163 1881.4 589.667 2004.8 615.425 1996.92C641.183 1989.03 582.763 1865.61 608.659 1857.69C634.555 1849.76 692.948 1973.19 718.762 1965.29C744.575 1957.39 686.113 1833.98 711.927 1826.08C737.74 1818.18 796.216 1941.59 822.043 1933.69C847.87 1925.78 789.381 1802.38 815.194 1794.48C841.008 1786.58 899.497 1909.99 925.325 1902.08C951.152 1894.18 892.662 1770.78 918.49 1762.87C944.317 1754.97 1002.78 1878.38 1028.61 1870.48C1054.43 1862.57 995.944 1739.17 1021.77 1731.27C1047.6 1723.36 1106.06 1846.77 1131.89 1838.87C1157.71 1830.97 1099.23 1707.56 1125.05 1699.66C1150.88 1691.76 1209.34 1815.17 1235.17 1807.26C1261 1799.36 1202.52 1675.95 1228.33 1668.05C1254.15 1660.15 1312.64 1783.56 1338.45 1775.66C1364.26 1767.76 1305.8 1644.35 1331.62 1636.45C1357.43 1628.55 1415.92 1751.95 1441.75 1744.05C1467.57 1736.14 1409.08 1612.74 1434.91 1604.84C1460.74 1596.93 1519.21 1720.34 1545.03 1712.44C1570.84 1704.54 1512.38 1581.13 1538.21 1573.23C1564.03 1565.32 1622.51 1688.73 1648.34 1680.83C1674.16 1672.92 1615.69 1549.52 1641.5 1541.62" stroke="#AF6900" stroke-opacity="0.1" stroke-width="0.862798" stroke-miterlimit="10"/>
<path d="M-585.131 835.878C-559.318 827.978 -500.842 951.385 -475.015 943.481C-449.188 935.578 -507.677 812.175 -481.85 804.272C-456.023 796.368 -397.561 919.779 -371.733 911.875C-345.906 903.971 -404.396 780.569 -378.568 772.666C-352.741 764.762 -294.279 888.173 -268.452 880.269C-242.625 872.365 -301.114 748.963 -275.287 741.059C-249.46 733.156 -190.998 856.566 -165.17 848.663C-139.343 840.759 -197.833 717.357 -172.019 709.457C-146.206 701.558 -87.7162 824.96 -61.8474 817.044C-35.9786 809.127 -94.5095 685.738 -68.6961 677.839C-42.8826 669.939 15.6206 793.337 41.3787 785.455C67.1369 777.572 8.71663 654.149 34.6131 646.224C60.5096 638.299 118.902 761.731 144.716 753.831C170.529 745.932 112.067 622.521 137.881 614.622C163.694 606.722 222.17 730.129 247.997 722.225C273.824 714.322 215.335 590.919 241.148 583.02C266.962 575.121 325.451 698.523 351.279 690.619C377.106 682.715 318.616 559.313 344.444 551.41C370.271 543.506 428.733 666.917 454.56 659.013C480.387 651.109 421.898 527.707 447.725 519.803C473.553 511.9 532.014 635.31 557.842 627.407C583.669 619.503 525.18 496.101 551.007 488.197C576.834 480.293 635.296 603.704 661.123 595.8C686.95 587.897 628.475 464.49 654.288 456.591C680.102 448.692 738.591 572.094 764.405 564.194C790.218 556.295 731.756 432.884 757.57 424.985C783.383 417.085 841.873 540.487 867.7 532.584C893.527 524.68 835.038 401.278 860.865 393.374C886.693 385.471 945.168 508.877 970.982 500.978C996.795 493.078 938.333 369.668 964.161 361.764C989.988 353.86 1048.46 477.267 1074.29 469.363C1100.12 461.459 1041.64 338.053 1067.46 330.153" stroke="#AF6900" stroke-opacity="0.1" stroke-width="0.862798" stroke-miterlimit="10"/>
<path d="M-374.291 1280.83C-348.477 1272.93 -290.002 1396.34 -264.174 1388.44C-238.347 1380.53 -296.837 1257.13 -271.009 1249.23C-245.182 1241.32 -186.72 1364.74 -160.893 1356.83C-135.066 1348.93 -193.555 1225.53 -167.728 1217.62C-141.9 1209.72 -83.4387 1333.13 -57.6114 1325.23C-31.7841 1317.32 -90.2735 1193.92 -64.4462 1186.02C-38.6189 1178.11 19.8428 1301.52 45.6701 1293.62C71.4974 1285.72 13.008 1162.31 38.8215 1154.41C64.6349 1146.51 123.124 1269.92 148.993 1262C174.862 1254.08 116.331 1130.69 142.144 1122.79C167.958 1114.9 226.461 1238.29 252.219 1230.41C277.977 1222.53 219.557 1099.11 245.454 1091.18C271.35 1083.26 329.743 1206.69 355.556 1198.79C381.37 1190.89 322.908 1067.48 348.721 1059.58C374.535 1051.68 433.01 1175.09 458.838 1167.18C484.665 1159.28 426.176 1035.88 451.989 1027.98C477.802 1020.08 536.292 1143.48 562.119 1135.58C587.947 1127.67 529.457 1004.27 555.284 996.366C581.112 988.462 639.573 1111.87 665.401 1103.97C691.228 1096.07 632.739 972.663 658.566 964.76C684.393 956.856 742.855 1080.27 768.682 1072.36C794.509 1064.46 736.02 941.057 761.847 933.154C787.675 925.25 846.136 1048.66 871.964 1040.76C897.791 1032.85 839.315 909.447 865.129 901.547C890.942 893.648 949.432 1017.05 975.245 1009.15C1001.06 1001.25 942.597 877.841 968.41 869.941C994.224 862.042 1052.71 985.444 1078.54 977.54C1104.37 969.637 1045.88 846.234 1071.71 838.331C1097.53 830.427 1156.01 953.834 1181.82 945.934C1207.64 938.035 1149.17 814.624 1175 806.72C1200.83 798.817 1259.3 922.223 1285.13 914.319C1310.96 906.416 1252.48 783.009 1278.3 775.11" stroke="#AF6900" stroke-opacity="0.1" stroke-width="0.862798" stroke-miterlimit="10"/>
<path d="M-72.6311 1917.45C-46.8176 1909.55 11.6579 2032.96 37.4852 2025.06C63.3125 2017.15 4.82312 1893.75 30.6504 1885.85C56.4777 1877.94 114.939 2001.36 140.767 1993.45C166.594 1985.55 108.105 1862.15 133.932 1854.24C159.759 1846.34 218.221 1969.75 244.048 1961.85C269.876 1953.94 211.386 1830.54 237.213 1822.64C263.041 1814.73 321.502 1938.14 347.33 1930.24C373.157 1922.34 314.668 1798.93 340.481 1791.03C366.295 1783.13 424.784 1906.54 450.653 1898.62C476.522 1890.7 417.991 1767.31 443.804 1759.41C469.618 1751.52 528.121 1874.91 553.879 1867.03C579.637 1859.15 521.217 1735.73 547.113 1727.8C573.01 1719.88 631.402 1843.31 657.216 1835.41C683.029 1827.51 624.568 1704.1 650.381 1696.2C676.195 1688.3 734.67 1811.71 760.497 1803.8C786.325 1795.9 727.835 1672.5 753.649 1664.6C779.462 1656.7 837.952 1780.1 863.779 1772.2C889.606 1764.29 831.117 1640.89 856.944 1632.99C882.771 1625.08 941.233 1748.49 967.06 1740.59C992.888 1732.69 934.398 1609.28 960.226 1601.38C986.053 1593.48 1044.51 1716.89 1070.34 1708.98C1096.17 1701.08 1037.68 1577.68 1063.51 1569.77C1089.33 1561.87 1147.8 1685.28 1173.62 1677.38C1199.45 1669.47 1140.98 1546.07 1166.79 1538.17C1192.6 1530.27 1251.09 1653.67 1276.9 1645.77C1302.72 1637.87 1244.26 1514.46 1270.07 1506.56C1295.88 1498.66 1354.37 1622.06 1380.2 1614.16C1406.03 1606.26 1347.54 1482.85 1373.37 1474.95C1399.19 1467.05 1457.67 1590.45 1483.48 1582.55C1509.3 1574.65 1450.83 1451.24 1476.66 1443.34C1502.49 1435.44 1560.96 1558.84 1586.79 1550.94C1612.62 1543.04 1554.14 1419.63 1579.96 1411.73" stroke="#AF6900" stroke-opacity="0.1" stroke-width="0.862798" stroke-miterlimit="10"/>
<path d="M-465.11 1089.17C-439.297 1081.27 -380.821 1204.68 -354.994 1196.77C-329.166 1188.87 -387.656 1065.47 -361.829 1057.56C-336.001 1049.66 -277.54 1173.07 -251.712 1165.17C-225.885 1157.26 -284.374 1033.86 -258.547 1025.96C-232.72 1018.05 -174.258 1141.46 -148.431 1133.56C-122.603 1125.66 -181.093 1002.26 -155.266 994.352C-129.438 986.448 -70.9765 1109.86 -45.1492 1101.95C-19.3219 1094.05 -77.8113 970.649 -51.9979 962.75C-26.1844 954.85 32.305 1078.25 58.1738 1070.34C84.0426 1062.42 25.5117 939.03 51.3252 931.131C77.1386 923.231 135.642 1046.63 161.4 1038.75C187.158 1030.86 128.738 907.441 154.634 899.516C180.531 891.591 238.923 1015.02 264.737 1007.12C290.55 999.224 232.089 875.814 257.902 867.914C283.716 860.015 342.191 983.421 368.018 975.517C393.846 967.614 335.356 844.212 361.17 836.312C386.983 828.413 445.473 951.815 471.3 943.911C497.127 936.008 438.638 812.605 464.465 804.702C490.292 796.798 548.754 920.209 574.581 912.305C600.409 904.401 541.919 780.999 567.747 773.096C593.574 765.192 652.036 888.603 677.863 880.699C703.69 872.795 645.201 749.393 671.028 741.489C696.855 733.586 755.317 856.996 781.144 849.093C806.972 841.189 748.496 717.783 774.31 709.883C800.123 701.984 858.613 825.386 884.426 817.486C910.239 809.587 851.778 686.176 877.591 678.277C903.405 670.378 961.894 793.78 987.721 785.876C1013.55 777.972 955.059 654.57 980.887 646.667C1006.71 638.763 1065.19 762.169 1091 754.27C1116.82 746.37 1058.35 622.96 1084.18 615.056C1110.01 607.153 1168.48 730.559 1194.31 722.655C1220.14 714.752 1161.66 591.345 1187.48 583.446" stroke="#AF6900" stroke-opacity="0.1" stroke-width="0.862798" stroke-miterlimit="10"/>
<path d="M-163.451 1725.79C-137.638 1717.89 -79.1621 1841.3 -53.3348 1833.39C-27.5075 1825.49 -85.9969 1702.09 -60.1696 1694.18C-34.3424 1686.28 24.1194 1809.69 49.9467 1801.79C75.774 1793.88 17.2846 1670.48 43.1119 1662.58C68.9392 1654.68 127.401 1778.09 153.228 1770.18C179.056 1762.28 120.566 1638.88 146.393 1630.97C172.221 1623.07 230.682 1746.48 256.51 1738.58C282.337 1730.67 223.848 1607.27 249.661 1599.37C275.475 1591.47 333.964 1714.87 359.833 1706.96C385.702 1699.04 327.171 1575.65 352.984 1567.75C378.798 1559.85 437.301 1683.25 463.059 1675.37C488.817 1667.49 430.397 1544.06 456.293 1536.14C482.19 1528.21 540.582 1651.64 566.396 1643.74C592.209 1635.85 533.748 1512.43 559.561 1504.54C585.374 1496.64 643.85 1620.04 669.677 1612.14C695.505 1604.23 637.015 1480.83 662.829 1472.93C688.642 1465.03 747.132 1588.44 772.959 1580.53C798.786 1572.63 740.297 1449.23 766.124 1441.32C791.951 1433.42 850.413 1556.83 876.24 1548.93C902.068 1541.02 843.578 1417.62 869.406 1409.72C895.233 1401.81 953.695 1525.22 979.522 1517.32C1005.35 1509.42 946.86 1386.01 972.687 1378.11C998.514 1370.21 1056.98 1493.62 1082.8 1485.71C1108.63 1477.81 1050.16 1354.4 1075.97 1346.5C1101.78 1338.6 1160.27 1462.01 1186.08 1454.11C1211.9 1446.21 1153.44 1322.8 1179.25 1314.9C1205.06 1307 1263.55 1430.4 1289.38 1422.5C1315.21 1414.59 1256.72 1291.19 1282.55 1283.29C1308.37 1275.38 1366.85 1398.79 1392.66 1390.89C1418.48 1382.99 1360.01 1259.58 1385.84 1251.68C1411.67 1243.77 1470.14 1367.18 1495.97 1359.28C1521.8 1351.37 1463.32 1227.97 1489.14 1220.07" stroke="#AF6900" stroke-opacity="0.1" stroke-width="0.862798" stroke-miterlimit="10"/>
<path d="M-254.27 1534.13C-228.456 1526.23 -169.98 1649.63 -144.153 1641.73C-118.326 1633.83 -176.815 1510.42 -150.988 1502.52C-125.161 1494.62 -66.699 1618.03 -40.8717 1610.12C-15.0444 1602.22 -73.5338 1478.82 -47.7065 1470.91C-21.8792 1463.01 36.5826 1586.42 62.4098 1578.52C88.2371 1570.61 29.7477 1447.21 55.575 1439.31C81.4023 1431.4 139.864 1554.81 165.691 1546.91C191.519 1539.01 133.029 1415.6 158.843 1407.71C184.656 1399.81 243.146 1523.21 269.014 1515.29C294.883 1507.38 236.352 1383.99 262.166 1376.09C287.979 1368.19 346.482 1491.58 372.241 1483.7C397.999 1475.82 339.578 1352.4 365.475 1344.47C391.371 1336.55 449.764 1459.98 475.577 1452.08C501.391 1444.18 442.929 1320.77 468.743 1312.87C494.556 1304.97 553.032 1428.38 578.859 1420.47C604.686 1412.57 546.197 1289.17 572.01 1281.27C597.824 1273.37 656.313 1396.77 682.14 1388.87C707.968 1380.96 649.478 1257.56 675.306 1249.66C701.133 1241.75 759.595 1365.16 785.422 1357.26C811.249 1349.36 752.76 1225.95 778.587 1218.05C804.414 1210.15 862.876 1333.56 888.703 1325.65C914.531 1317.75 856.041 1194.35 881.869 1186.45C907.696 1178.54 966.158 1301.95 991.985 1294.05C1017.81 1286.14 959.337 1162.74 985.15 1154.84C1010.96 1146.94 1069.45 1270.34 1095.27 1262.44C1121.08 1254.54 1062.62 1131.13 1088.43 1123.23C1114.25 1115.33 1172.73 1238.74 1198.56 1230.83C1224.39 1222.93 1165.9 1099.53 1191.73 1091.62C1217.55 1083.72 1276.03 1207.13 1301.84 1199.23C1327.66 1191.33 1269.2 1067.92 1295.02 1060.01C1320.85 1052.11 1379.33 1175.51 1405.15 1167.61C1430.98 1159.71 1372.5 1036.3 1398.32 1028.4" stroke="#AF6900" stroke-opacity="0.1" stroke-width="0.862798" stroke-miterlimit="10"/>
<path d="M47.3899 2170.75C73.2034 2162.85 131.679 2286.25 157.506 2278.35C183.334 2270.45 124.844 2147.05 150.671 2139.14C176.499 2131.24 234.96 2254.65 260.788 2246.75C286.615 2238.84 228.126 2115.44 253.953 2107.54C279.78 2099.63 338.242 2223.04 364.069 2215.14C389.897 2207.24 331.407 2083.83 357.234 2075.93C383.062 2068.03 441.523 2191.44 467.351 2183.53C493.178 2175.63 434.689 2052.23 460.502 2044.33C486.316 2036.43 544.805 2159.83 570.674 2151.91C596.543 2144 538.012 2020.61 563.825 2012.71C589.639 2004.81 648.142 2128.21 673.9 2120.32C699.658 2112.44 641.238 1989.02 667.134 1981.09C693.031 1973.17 751.423 2096.6 777.237 2088.7C803.05 2080.8 744.589 1957.39 770.402 1949.49C796.216 1941.59 854.691 2065 880.518 2057.1C906.346 2049.19 847.856 1925.79 873.67 1917.89C899.483 1909.99 957.973 2033.39 983.8 2025.49C1009.63 2017.59 951.138 1894.18 976.965 1886.28C1002.79 1878.38 1061.25 2001.79 1087.08 1993.88C1112.91 1985.98 1054.42 1862.58 1080.25 1854.67C1106.07 1846.77 1164.54 1970.18 1190.36 1962.28C1216.19 1954.37 1157.7 1830.97 1183.53 1823.07C1209.36 1815.16 1267.82 1938.57 1293.64 1930.67C1319.47 1922.77 1261 1799.36 1286.81 1791.46C1312.62 1783.56 1371.11 1906.96 1396.93 1899.06C1422.74 1891.16 1364.28 1767.75 1390.09 1759.85C1415.9 1751.96 1474.39 1875.36 1500.22 1867.45C1526.05 1859.55 1467.56 1736.15 1493.39 1728.24C1519.21 1720.34 1577.69 1843.75 1603.5 1835.85C1629.32 1827.95 1570.85 1704.54 1596.68 1696.63C1622.51 1688.73 1680.98 1812.14 1706.81 1804.23C1732.64 1796.33 1674.16 1672.92 1699.98 1665.02" stroke="#AF6900" stroke-opacity="0.1" stroke-width="0.862798" stroke-miterlimit="10"/>
</svg>
