<svg width="224" height="210" viewBox="0 0 224 210" fill="none" xmlns="http://www.w3.org/2000/svg">
<g opacity="0.5">
<path d="M41.1073 98.7589C42.1216 98.7589 43.0015 98.9495 43.7468 99.3306C44.4922 99.7116 45.103 100.208 45.5794 100.818C46.0557 101.435 46.4116 102.127 46.6469 102.895C46.8823 103.663 47 104.456 47 105.274V110.217H46.4032C46.4032 110.054 46.3892 109.844 46.3611 109.586C46.3275 109.323 46.2911 109.149 46.2519 109.065C46.179 108.897 46.0725 108.776 45.9324 108.703C45.7867 108.625 45.613 108.586 45.4112 108.586H36.8033C36.6128 108.586 36.4419 108.619 36.2906 108.687C36.1392 108.748 36.0188 108.874 35.9291 109.065C35.845 109.239 35.7834 109.426 35.7442 109.628C35.7049 109.83 35.6797 110.004 35.6685 110.149H35.0717V104.937C35.0717 104.22 35.1837 103.514 35.4079 102.819C35.6265 102.124 35.9235 101.519 36.299 101.003C36.7977 100.303 37.4506 99.7537 38.2576 99.3558C39.0646 98.9579 40.0145 98.7589 41.1073 98.7589ZM41.0989 100.818C40.2975 100.818 39.5746 100.925 38.9301 101.138C38.28 101.351 37.714 101.662 37.232 102.071C36.7725 102.458 36.411 102.934 36.1477 103.5C35.8843 104.06 35.7526 104.685 35.7526 105.375C35.7526 105.604 35.7582 105.865 35.7694 106.156C35.775 106.442 35.7806 106.655 35.7862 106.795H44.9573C45.4673 106.795 45.8203 106.647 46.0165 106.35C46.2126 106.053 46.3107 105.596 46.3107 104.98C46.3107 104.268 46.1846 103.646 45.9324 103.113C45.6802 102.581 45.33 102.149 44.8816 101.819C44.4109 101.471 43.8673 101.219 43.2509 101.062C42.6288 100.9 41.9115 100.818 41.0989 100.818Z" fill="white"/>
<path d="M45.9596 83.3362C46.5241 83.4811 47.0575 83.7136 47.5597 84.0334C48.0565 84.3519 48.4524 84.7255 48.7474 85.1542C49.0854 85.6402 49.2969 86.1574 49.3818 86.7057C49.4666 87.254 49.4303 87.8348 49.2728 88.4482C49.1418 88.9584 48.9221 89.4199 48.6137 89.8325C48.2998 90.2437 47.9123 90.581 47.4512 90.8445C46.997 91.1039 46.4821 91.2726 45.9067 91.3505C45.3272 91.4216 44.7118 91.3735 44.0604 91.2063C42.8065 90.8843 41.874 90.2573 41.2628 89.325C40.653 88.3874 40.5001 87.3269 40.8039 86.1436C41.0924 85.02 41.71 84.192 42.6567 83.6598C43.5993 83.1207 44.7003 83.0129 45.9596 83.3362ZM45.5431 85.0258C45.136 84.9213 44.6968 84.8519 44.2253 84.8176C43.7485 84.782 43.3317 84.8051 42.9751 84.8872C42.5939 84.9744 42.2667 85.1334 41.9934 85.3641C41.7147 85.5934 41.523 85.9116 41.4185 86.3187C41.3112 86.7367 41.3223 87.1214 41.452 87.4729C41.583 87.819 41.8039 88.1303 42.1148 88.4068C42.4013 88.6656 42.7472 88.8845 43.1524 89.0638C43.5577 89.2431 43.9585 89.3836 44.3547 89.4853C44.8758 89.6191 45.3694 89.7024 45.8354 89.7353C46.2973 89.7613 46.7257 89.7267 47.1205 89.6313C47.5153 89.536 47.8486 89.3757 48.1205 89.1504C48.3884 88.9183 48.5753 88.596 48.6812 88.1835C48.8554 87.505 48.665 86.8833 48.11 86.3184C47.5549 85.7535 46.6993 85.3226 45.5431 85.0258Z" fill="white"/>
<path d="M57.2014 69.1983L55.2454 72.7563L54.7592 72.489C54.8115 72.3706 54.8691 72.2424 54.9322 72.1045C54.998 71.9615 55.0404 71.8378 55.0596 71.7332C55.091 71.5714 55.0702 71.4289 54.9972 71.3056C54.9221 71.1748 54.7961 71.0608 54.6193 70.9636L50.8846 68.9104C50.3689 68.6269 49.9036 68.531 49.4887 68.6227C49.0765 68.7094 48.7746 68.9271 48.5829 69.2758C48.4398 69.5361 48.3506 69.7972 48.3153 70.0592C48.2751 70.3184 48.268 70.564 48.2941 70.7957C48.3179 71.0199 48.3692 71.2175 48.4478 71.3886C48.5241 71.5521 48.5895 71.6776 48.6437 71.765L52.8205 74.0612C52.9875 74.153 53.1439 74.1942 53.2897 74.1848C53.4355 74.1755 53.5757 74.1182 53.7102 74.0131C53.816 73.937 53.9136 73.8467 54.003 73.7424C54.095 73.6331 54.1811 73.5173 54.2611 73.395L54.7472 73.6623L52.7912 77.2203L52.3051 76.953C52.3573 76.8346 52.411 76.7138 52.4659 76.5906C52.5236 76.4624 52.562 76.346 52.5811 76.2414C52.6125 76.0796 52.5918 75.9371 52.5188 75.8139C52.4437 75.683 52.3177 75.569 52.1409 75.4718L47.6548 73.0055C47.4878 72.9137 47.3153 72.8669 47.1373 72.865C46.9571 72.8554 46.7877 72.8902 46.6291 72.9693C46.5189 73.0302 46.4164 73.1177 46.3217 73.2319C46.222 73.3434 46.1268 73.4701 46.0359 73.612L45.5571 73.3488L46.7234 70.8435L46.8832 70.7971L47.9071 71.36L47.9274 71.3232C47.8743 71.1405 47.8153 70.9163 47.7505 70.6504C47.6807 70.3818 47.6374 70.1406 47.6207 69.9267C47.6027 69.6802 47.6233 69.4101 47.6824 69.1165C47.7415 68.8228 47.8575 68.5189 48.0303 68.2046C48.4136 67.5072 48.9156 67.1117 49.5363 67.018C50.1547 66.9168 50.8249 67.0646 51.5468 67.4614L55.3258 69.5389C55.4977 69.6334 55.6538 69.6809 55.7943 69.6814C55.9298 69.6791 56.0662 69.623 56.2034 69.513C56.3173 69.4221 56.407 69.3404 56.4725 69.2677C56.5408 69.1901 56.6217 69.0779 56.7152 68.931L57.2014 69.1983Z" fill="white"/>
<path d="M82.3022 46.1843L78.1075 48.8463L77.7877 48.3424C78.1418 48.0845 78.4169 47.8435 78.6132 47.6194C78.8142 47.3922 78.8817 47.2266 78.8156 47.1225C78.7886 47.0799 78.7508 47.0309 78.7023 46.9754C78.6538 46.9199 78.6051 46.8745 78.5561 46.8392L76.2863 45.1137L72.7588 47.3523C72.8365 47.7676 72.9109 48.1253 72.9818 48.4254C73.0575 48.7225 73.1283 48.9961 73.1942 49.2464C73.2618 49.4889 73.3243 49.6815 73.3818 49.8243C73.4392 49.967 73.4934 50.0786 73.5445 50.1591C73.6646 50.3483 73.9067 50.4004 74.2709 50.3154C74.635 50.2303 75.01 50.0786 75.3958 49.8603L75.7156 50.3642L71.9255 52.7695L71.6057 52.2656C71.7228 52.178 71.86 52.0544 72.0175 51.8947C72.172 51.7303 72.2844 51.5727 72.3547 51.4219C72.4629 51.174 72.5255 50.9485 72.5425 50.7452C72.5565 50.5372 72.5351 50.2786 72.4783 49.9695C72.1829 48.3848 71.8403 46.611 71.4508 44.648C71.0612 42.6849 70.7151 40.9367 70.4122 39.4031L70.98 39.0428L79.8504 45.5997C80.0384 45.7392 80.2135 45.8372 80.3754 45.8937C80.5374 45.9502 80.7334 45.9818 80.9633 45.9886C81.1142 45.9857 81.2922 45.9524 81.4973 45.8886C81.6994 45.8201 81.8611 45.7507 81.9824 45.6804L82.3022 46.1843ZM75.6299 44.6441L71.6266 41.7089L72.6063 46.5629L75.6299 44.6441ZM71.01 36.6741C70.8679 36.9103 70.6444 37.2745 70.3395 37.7667C70.0363 38.2512 69.6935 38.8039 69.311 39.425L68.9153 39.2878C69.0847 38.6029 69.2201 38.0424 69.3216 37.6062C69.4249 37.1624 69.5205 36.7168 69.6083 36.2694C69.6576 36.0125 69.7227 35.8118 69.8037 35.6675C69.8864 35.5154 69.9988 35.3944 70.1407 35.3043C70.3205 35.1902 70.5088 35.147 70.7057 35.1748C70.9025 35.2025 71.0519 35.2968 71.154 35.4577C71.2832 35.6612 71.3237 35.8611 71.2758 36.0575C71.2278 36.2538 71.1393 36.4594 71.01 36.6741Z" fill="white"/>
<path d="M94.0831 41.7248L90.2376 42.9743L90.0662 42.4466C90.1853 42.3961 90.3124 42.343 90.4475 42.2873C90.5809 42.2263 90.6886 42.1678 90.7705 42.1117C90.9042 42.0152 90.9892 41.8962 91.0258 41.7547C91.0606 41.6079 91.0468 41.4386 90.9844 41.2467L88.0179 32.1167C87.9556 31.9248 87.8549 31.7601 87.716 31.6226C87.5806 31.478 87.4307 31.3794 87.2663 31.3268C87.1496 31.294 86.9546 31.2925 86.6815 31.3223C86.4083 31.3522 86.1928 31.3869 86.0347 31.4264L85.8685 30.9148L88.7748 29.7672L88.9257 29.8507L92.4403 40.6676C92.5009 40.8541 92.5858 40.9974 92.6949 41.0975C92.8023 41.1923 92.9436 41.2465 93.119 41.2602C93.2535 41.2754 93.3811 41.2782 93.5017 41.2685C93.6276 41.257 93.7643 41.2332 93.9116 41.1971L94.0831 41.7248Z" fill="white"/>
<path d="M112.301 31.2212C112.052 31.2817 111.817 31.3892 111.597 31.5434C111.381 31.6917 111.203 31.9444 111.063 32.3013C110.78 33.0716 110.488 33.876 110.187 34.7148C109.886 35.548 109.573 36.4239 109.249 37.3428C109.154 37.6071 109.053 37.9195 108.946 38.2799C108.845 38.64 108.752 38.9856 108.666 39.3167L108.012 39.3579C107.398 38.0769 106.833 36.9108 106.318 35.8595C105.802 34.8026 105.268 33.7216 104.715 32.6165C104.587 32.3662 104.393 32.1791 104.133 32.0551C103.877 31.9252 103.623 31.8486 103.368 31.8252L103.334 31.2715L107.159 31.0308L107.196 31.6181C107.029 31.6343 106.821 31.6838 106.574 31.7668C106.326 31.8441 106.206 31.9387 106.213 32.0506C106.214 32.0674 106.231 32.1112 106.263 32.1822C106.295 32.2475 106.328 32.3241 106.362 32.4118C106.627 32.9679 107.001 33.7445 107.485 34.7416C107.969 35.7387 108.362 36.5423 108.665 37.1521C108.836 36.6585 109.05 36.0442 109.307 35.3093C109.569 34.574 109.849 33.7534 110.146 32.8476C110.192 32.693 110.236 32.5499 110.279 32.4181C110.321 32.2807 110.337 32.1448 110.329 32.0106C110.323 31.9155 110.27 31.8346 110.17 31.7679C110.076 31.6952 109.963 31.635 109.831 31.5871C109.698 31.5393 109.57 31.5053 109.445 31.485C109.32 31.4648 109.218 31.4516 109.139 31.4453L109.106 30.9084L112.268 30.7094L112.301 31.2212Z" fill="white"/>
<path d="M128.429 40.8552C128.153 40.8994 127.91 40.9302 127.702 40.9474C127.497 40.9712 127.271 40.9595 127.024 40.9122C126.594 40.8303 126.269 40.6656 126.048 40.4181C125.834 40.1661 125.728 39.8406 125.73 39.4416L125.68 39.4322C125.247 39.7603 124.804 39.9895 124.351 40.1199C123.903 40.2514 123.391 40.262 122.813 40.1518C122.202 40.0352 121.734 39.752 121.409 39.302C121.089 38.8531 120.987 38.3259 121.103 37.7204C121.163 37.4066 121.26 37.1343 121.396 36.9034C121.531 36.6724 121.706 36.4747 121.92 36.3101C122.089 36.1712 122.298 36.06 122.548 35.9764C122.799 35.8874 123.031 35.8232 123.244 35.784C123.509 35.7376 124.043 35.6598 124.846 35.5504C125.654 35.4421 126.204 35.3416 126.495 35.2489L126.651 34.4314C126.665 34.3599 126.674 34.2191 126.68 34.0091C126.692 33.8002 126.665 33.5954 126.601 33.3949C126.529 33.1702 126.406 32.9641 126.231 32.7766C126.062 32.5847 125.793 32.4535 125.424 32.3832C125.171 32.3349 124.926 32.3338 124.689 32.3798C124.459 32.4214 124.29 32.4806 124.185 32.5574C124.164 32.6675 124.157 32.8346 124.166 33.0588C124.18 33.284 124.17 33.4874 124.135 33.6691C124.098 33.8617 123.977 34.0211 123.77 34.1471C123.569 34.2742 123.314 34.3083 123.006 34.2495C122.731 34.197 122.545 34.0618 122.45 33.844C122.361 33.6216 122.34 33.3894 122.386 33.1472C122.434 32.8939 122.569 32.6685 122.789 32.4709C123.015 32.2744 123.288 32.1126 123.609 31.9855C123.886 31.8786 124.211 31.8065 124.583 31.7691C124.956 31.7262 125.311 31.7368 125.647 31.8009C126.109 31.8891 126.505 31.9988 126.833 32.1299C127.169 32.2566 127.457 32.4514 127.698 32.7141C127.939 32.9713 128.098 33.2898 128.174 33.6694C128.257 34.0445 128.245 34.5074 128.14 35.0578C127.99 35.845 127.849 36.5426 127.716 37.1505C127.584 37.7528 127.449 38.4146 127.311 39.1357C127.27 39.3504 127.273 39.5279 127.321 39.6682C127.374 39.8095 127.469 39.9389 127.606 40.0563C127.679 40.1216 127.804 40.1738 127.979 40.213C128.159 40.2531 128.343 40.291 128.53 40.3267L128.429 40.8552ZM126.379 35.9456C125.885 35.994 125.449 36.0506 125.072 36.1156C124.694 36.1805 124.335 36.2831 123.995 36.4235C123.684 36.5582 123.424 36.7397 123.215 36.9679C123.007 37.1907 122.869 37.4783 122.802 37.8306C122.715 38.2875 122.769 38.6458 122.965 38.9057C123.166 39.1666 123.451 39.3322 123.82 39.4026C124.211 39.4771 124.573 39.4492 124.906 39.3187C125.24 39.1827 125.533 39.0048 125.786 38.785L126.379 35.9456Z" fill="white"/>
<path d="M146.389 40.2593C146.267 40.5179 146.095 40.7188 145.873 40.8619C145.653 41 145.411 41.0071 145.148 40.883C144.864 40.7494 144.68 40.5732 144.597 40.3546C144.52 40.1383 144.522 39.9415 144.606 39.764C144.658 39.6525 144.714 39.5546 144.772 39.4705C144.835 39.3888 144.896 39.3059 144.954 39.2217C144.716 39.1096 144.391 39.0747 143.981 39.1171C143.571 39.1594 143.171 39.3056 142.781 39.5555L140.726 43.9215C140.643 44.0989 140.608 44.259 140.621 44.4015C140.64 44.5465 140.709 44.6815 140.83 44.8064C140.933 44.9168 141.078 45.0312 141.263 45.1496C141.454 45.2704 141.621 45.3705 141.763 45.4498L141.527 45.9518L137.572 44.0906L137.808 43.5886C137.929 43.6334 138.053 43.6793 138.18 43.7264C138.311 43.7759 138.43 43.807 138.535 43.8195C138.699 43.8407 138.84 43.811 138.958 43.7304C139.084 43.6472 139.19 43.5143 139.276 43.3318L141.456 38.6997C141.53 38.5425 141.564 38.3699 141.56 38.182C141.56 37.9965 141.516 37.8271 141.427 37.6737C141.36 37.5676 141.266 37.4708 141.146 37.3834C141.028 37.2909 140.896 37.2038 140.749 37.1221L140.981 36.6277L143.555 37.6343L143.611 37.7909L143.114 38.8482L143.152 38.8661C143.659 38.6033 144.156 38.4561 144.642 38.4244C145.127 38.3928 145.53 38.4522 145.849 38.6025C146.169 38.7528 146.378 38.9785 146.478 39.2794C146.583 39.5828 146.553 39.9094 146.389 40.2593Z" fill="white"/>
<path d="M159.908 53.4517C159.536 53.9008 159.099 54.2844 158.596 54.6026C158.096 54.9166 157.589 55.1157 157.076 55.2001C156.492 55.299 155.934 55.2702 155.402 55.1135C154.87 54.9568 154.36 54.6767 153.872 54.273C153.466 53.9372 153.142 53.542 152.9 53.0872C152.661 52.6281 152.521 52.1339 152.479 51.6045C152.438 51.083 152.504 50.5453 152.679 49.9915C152.861 49.4369 153.167 48.9005 153.595 48.3823C154.421 47.3849 155.385 46.8081 156.489 46.652C157.597 46.4995 158.621 46.8126 159.563 47.5914C160.457 48.3308 160.943 49.2421 161.021 50.3253C161.108 51.4078 160.737 52.4499 159.908 53.4517ZM158.556 52.3555C158.824 52.0316 159.074 51.6637 159.306 51.2517C159.541 50.8354 159.698 50.4485 159.775 50.0909C159.859 49.7088 159.854 49.345 159.762 48.9995C159.673 48.6497 159.466 48.3408 159.143 48.0729C158.81 47.7978 158.457 47.6441 158.084 47.6117C157.715 47.5829 157.339 47.6503 156.957 47.8138C156.601 47.9629 156.255 48.1826 155.921 48.473C155.586 48.7634 155.288 49.0662 155.027 49.3814C154.684 49.7959 154.399 50.207 154.171 50.6147C153.95 51.0216 153.799 51.4239 153.718 51.8218C153.636 52.2196 153.639 52.5894 153.727 52.9314C153.823 53.2726 154.035 53.5789 154.363 53.8504C154.903 54.297 155.546 54.3894 156.294 54.1276C157.041 53.8659 157.795 53.2752 158.556 52.3555Z" fill="white"/>
<path d="M177.792 81.3515L175.948 76.6933L177.175 76.2074L179.02 80.8657L177.792 81.3515Z" fill="white"/>
<path d="M182.437 119.234C181.431 119.107 180.582 118.808 179.89 118.336C179.199 117.865 178.655 117.296 178.259 116.631C177.863 115.959 177.597 115.228 177.46 114.437C177.322 113.646 177.305 112.844 177.408 112.032L178.027 107.128L178.619 107.203C178.599 107.365 178.586 107.575 178.582 107.834C178.582 108.1 178.597 108.277 178.625 108.365C178.676 108.541 178.767 108.674 178.897 108.763C179.031 108.86 179.199 108.92 179.399 108.946L187.939 110.024C188.128 110.048 188.302 110.036 188.46 109.989C188.618 109.946 188.754 109.836 188.866 109.659C188.972 109.497 189.056 109.318 189.12 109.123C189.185 108.928 189.231 108.759 189.261 108.615L189.853 108.69L189.2 113.861C189.11 114.573 188.91 115.259 188.601 115.92C188.297 116.582 187.926 117.146 187.489 117.61C186.906 118.243 186.19 118.706 185.339 118.999C184.489 119.293 183.522 119.371 182.437 119.234ZM182.704 117.192C183.499 117.293 184.229 117.277 184.896 117.147C185.567 117.017 186.168 116.78 186.697 116.434C187.202 116.108 187.62 115.681 187.952 115.152C188.284 114.629 188.493 114.026 188.579 113.342C188.608 113.114 188.635 112.855 188.66 112.564C188.691 112.28 188.712 112.068 188.724 111.928L179.625 110.779C179.119 110.715 178.75 110.818 178.518 111.088C178.286 111.358 178.132 111.799 178.055 112.411C177.965 113.117 178.013 113.75 178.196 114.309C178.38 114.869 178.673 115.341 179.076 115.726C179.5 116.129 180.007 116.448 180.599 116.68C181.196 116.92 181.898 117.09 182.704 117.192Z" fill="white"/>
<path d="M175.69 133.927C175.148 133.713 174.648 133.415 174.19 133.035C173.737 132.657 173.391 132.236 173.152 131.774C172.878 131.25 172.733 130.71 172.717 130.155C172.702 129.601 172.811 129.029 173.044 128.44C173.238 127.95 173.514 127.52 173.871 127.15C174.234 126.781 174.661 126.495 175.151 126.291C175.635 126.091 176.167 125.988 176.747 125.983C177.331 125.985 177.936 126.11 178.561 126.357C179.764 126.834 180.611 127.573 181.101 128.574C181.588 129.581 181.607 130.652 181.157 131.788C180.73 132.867 180.014 133.611 179.008 134.02C178.005 134.437 176.899 134.406 175.69 133.927ZM176.315 132.303C176.706 132.458 177.133 132.582 177.596 132.675C178.065 132.77 178.481 132.799 178.846 132.763C179.235 132.724 179.579 132.607 179.879 132.412C180.185 132.22 180.415 131.928 180.569 131.537C180.728 131.136 180.765 130.753 180.681 130.388C180.594 130.028 180.414 129.692 180.14 129.378C179.888 129.086 179.573 128.825 179.193 128.597C178.813 128.368 178.433 128.178 178.053 128.028C177.553 127.83 177.074 127.685 176.615 127.594C176.16 127.51 175.731 127.491 175.327 127.536C174.924 127.581 174.573 127.699 174.275 127.888C173.98 128.085 173.754 128.381 173.598 128.777C173.34 129.428 173.451 130.069 173.931 130.699C174.41 131.329 175.205 131.864 176.315 132.303Z" fill="white"/>
<path d="M162.765 146.545L165.152 143.26L165.6 143.586C165.534 143.697 165.461 143.817 165.381 143.946C165.297 144.079 165.24 144.197 165.208 144.298C165.156 144.455 165.159 144.599 165.216 144.73C165.274 144.869 165.385 144.998 165.548 145.117L168.996 147.622C169.472 147.968 169.922 148.121 170.345 148.082C170.765 148.048 171.091 147.87 171.325 147.548C171.5 147.308 171.621 147.06 171.689 146.804C171.761 146.552 171.799 146.309 171.802 146.076C171.807 145.851 171.781 145.648 171.724 145.469C171.669 145.297 171.62 145.164 171.577 145.071L167.721 142.269C167.567 142.157 167.417 142.097 167.271 142.088C167.125 142.079 166.979 142.118 166.832 142.205C166.718 142.268 166.61 142.345 166.508 142.437C166.403 142.534 166.303 142.638 166.208 142.75L165.759 142.423L168.146 139.139L168.595 139.465C168.528 139.576 168.46 139.689 168.39 139.804C168.316 139.924 168.264 140.035 168.232 140.136C168.18 140.293 168.183 140.437 168.24 140.568C168.298 140.707 168.409 140.836 168.572 140.955L172.714 143.964C172.868 144.076 173.033 144.144 173.209 144.168C173.387 144.2 173.559 144.187 173.727 144.128C173.844 144.082 173.956 144.008 174.065 143.906C174.177 143.808 174.288 143.695 174.396 143.565L174.838 143.886L173.367 146.226L173.202 146.252L172.257 145.565L172.232 145.599C172.262 145.787 172.292 146.017 172.324 146.289C172.359 146.564 172.372 146.809 172.362 147.023C172.348 147.27 172.294 147.535 172.199 147.819C172.103 148.103 171.95 148.39 171.739 148.68C171.272 149.324 170.724 149.653 170.096 149.668C169.47 149.691 168.824 149.461 168.157 148.977L164.669 146.442C164.51 146.326 164.361 146.26 164.222 146.242C164.087 146.227 163.945 146.266 163.795 146.358C163.67 146.433 163.571 146.503 163.497 146.567C163.419 146.636 163.325 146.737 163.214 146.871L162.765 146.545Z" fill="white"/>
<path d="M134.978 166.231L139.473 164.116L139.727 164.656C139.344 164.867 139.041 165.072 138.818 165.27C138.59 165.47 138.502 165.626 138.555 165.737C138.576 165.783 138.608 165.836 138.649 165.897C138.69 165.959 138.733 166.01 138.777 166.051L140.812 168.047L144.593 166.268C144.568 165.847 144.539 165.482 144.506 165.176C144.468 164.872 144.432 164.591 144.398 164.335C144.361 164.086 144.323 163.887 144.284 163.738C144.245 163.589 144.205 163.471 144.165 163.385C144.069 163.182 143.836 163.1 143.464 163.139C143.092 163.178 142.701 163.281 142.291 163.45L142.037 162.91L146.098 160.998L146.352 161.538C146.225 161.611 146.074 161.716 145.897 161.855C145.723 161.998 145.592 162.141 145.504 162.282C145.365 162.514 145.275 162.73 145.232 162.929C145.192 163.134 145.181 163.393 145.199 163.707C145.293 165.316 145.411 167.119 145.551 169.115C145.692 171.112 145.816 172.89 145.924 174.449L145.316 174.735L137.337 167.118C137.168 166.956 137.007 166.837 136.853 166.761C136.7 166.684 136.509 166.629 136.282 166.593C136.132 166.577 135.951 166.588 135.74 166.625C135.531 166.668 135.361 166.717 135.232 166.771L134.978 166.231ZM141.405 168.595L145.009 172.009L144.645 167.071L141.405 168.595ZM144.989 177.082C145.16 176.865 145.427 176.532 145.791 176.082C146.153 175.639 146.562 175.134 147.02 174.565L147.395 174.751C147.141 175.409 146.937 175.948 146.781 176.368C146.623 176.796 146.472 177.226 146.329 177.659C146.248 177.907 146.158 178.098 146.06 178.231C145.959 178.372 145.832 178.478 145.68 178.55C145.487 178.64 145.295 178.659 145.103 178.607C144.912 178.555 144.775 178.443 144.694 178.27C144.591 178.052 144.576 177.849 144.648 177.66C144.72 177.471 144.834 177.278 144.989 177.082Z" fill="white"/>
<path d="M122.731 169.179L126.703 168.421L126.807 168.966C126.682 169.002 126.549 169.038 126.408 169.077C126.268 169.12 126.154 169.165 126.066 169.21C125.921 169.289 125.822 169.397 125.768 169.533C125.715 169.674 125.708 169.844 125.745 170.042L127.544 179.472C127.582 179.67 127.661 179.846 127.782 180C127.898 180.16 128.034 180.277 128.191 180.349C128.303 180.397 128.496 180.423 128.771 180.427C129.045 180.432 129.263 180.424 129.425 180.405L129.526 180.933L126.499 181.708L126.36 181.606L124.228 170.434C124.192 170.241 124.125 170.088 124.03 169.975C123.935 169.868 123.802 169.796 123.629 169.761C123.498 169.729 123.372 169.71 123.251 169.705C123.124 169.7 122.986 169.707 122.835 169.724L122.731 169.179Z" fill="white"/>
<path d="M103.341 177.317C103.595 177.288 103.841 177.211 104.08 177.085C104.312 176.965 104.52 176.737 104.704 176.4C105.081 175.671 105.471 174.91 105.875 174.115C106.279 173.327 106.699 172.497 107.135 171.626C107.263 171.375 107.403 171.078 107.553 170.734C107.699 170.389 107.835 170.058 107.961 169.74L108.616 169.782C109.064 171.129 109.478 172.357 109.858 173.465C110.237 174.578 110.632 175.717 111.041 176.883C111.137 177.147 111.306 177.357 111.549 177.513C111.786 177.674 112.029 177.782 112.278 177.837L112.243 178.39L108.418 178.15L108.455 177.563C108.623 177.568 108.835 177.544 109.091 177.493C109.346 177.447 109.478 177.369 109.485 177.257C109.486 177.24 109.475 177.194 109.451 177.12C109.427 177.051 109.404 176.971 109.382 176.88C109.189 176.295 108.914 175.477 108.559 174.427C108.204 173.378 107.915 172.531 107.691 171.888C107.46 172.356 107.17 172.939 106.823 173.636C106.471 174.333 106.09 175.112 105.682 175.973C105.617 176.121 105.555 176.257 105.497 176.383C105.438 176.514 105.404 176.646 105.396 176.781C105.39 176.876 105.432 176.962 105.523 177.041C105.607 177.125 105.712 177.199 105.837 177.263C105.962 177.327 106.085 177.377 106.207 177.413C106.328 177.448 106.428 177.474 106.505 177.49L106.471 178.027L103.308 177.828L103.341 177.317Z" fill="white"/>
<path d="M88.5466 165.737C88.8265 165.728 89.0711 165.728 89.2803 165.737C89.4859 165.739 89.7086 165.779 89.9484 165.857C90.3642 165.992 90.6661 166.196 90.8543 166.469C91.0354 166.746 91.0999 167.082 91.048 167.478L91.096 167.493C91.5671 167.222 92.0354 167.05 92.501 166.978C92.9612 166.903 93.4711 166.957 94.0307 167.139C94.6223 167.331 95.0511 167.671 95.3171 168.158C95.5778 168.643 95.6129 169.179 95.4224 169.765C95.3237 170.069 95.1927 170.327 95.0295 170.539C94.8663 170.751 94.6682 170.926 94.4353 171.062C94.2502 171.179 94.0284 171.263 93.77 171.314C93.5099 171.371 93.2718 171.406 93.0557 171.418C92.7864 171.431 92.2469 171.441 91.437 171.449C90.6218 171.455 90.0638 171.486 89.763 171.542L89.5058 172.333C89.4833 172.402 89.456 172.541 89.4239 172.748C89.3865 172.954 89.3872 173.161 89.4259 173.368C89.4685 173.6 89.5649 173.819 89.7154 174.027C89.8588 174.239 90.109 174.403 90.4661 174.519C90.7113 174.599 90.9543 174.63 91.1952 174.614C91.4291 174.602 91.6033 174.564 91.7181 174.501C91.7527 174.395 91.7798 174.23 91.7994 174.006C91.8136 173.781 91.8493 173.581 91.9064 173.405C91.9671 173.218 92.1078 173.075 92.3285 172.976C92.544 172.875 92.8009 172.873 93.0994 172.97C93.3659 173.057 93.5328 173.214 93.6001 173.442C93.6603 173.674 93.6524 173.907 93.5762 174.142C93.4965 174.387 93.335 174.594 93.0917 174.762C92.8431 174.929 92.5517 175.055 92.2174 175.141C91.929 175.212 91.5979 175.243 91.2238 175.234C90.8481 175.229 90.4977 175.174 90.1726 175.069C89.7248 174.923 89.3462 174.765 89.0365 174.594C88.7198 174.426 88.4584 174.196 88.2524 173.906C88.0446 173.62 87.9269 173.284 87.8991 172.898C87.8643 172.516 87.9335 172.058 88.1067 171.525C88.3543 170.763 88.5823 170.088 88.7905 169.502C88.997 168.921 89.2136 168.281 89.4405 167.583C89.508 167.375 89.5271 167.199 89.4976 167.054C89.4628 166.907 89.3847 166.766 89.2632 166.633C89.1988 166.559 89.0822 166.491 88.9134 166.431C88.7392 166.368 88.5615 166.308 88.3803 166.249L88.5466 165.737ZM89.9652 170.865C90.4615 170.879 90.901 170.877 91.2837 170.86C91.6664 170.843 92.0354 170.786 92.3909 170.69C92.7163 170.595 92.997 170.447 93.2329 170.247C93.4671 170.052 93.6397 169.784 93.7505 169.443C93.8942 169.001 93.8853 168.638 93.7236 168.356C93.5567 168.072 93.2946 167.872 92.9375 167.756C92.5591 167.633 92.1966 167.615 91.8499 167.703C91.5014 167.796 91.1879 167.936 90.9093 168.122L89.9652 170.865Z" fill="white"/>
<path d="M70.654 164.077C70.8071 163.836 71.0029 163.658 71.2413 163.544C71.4767 163.435 71.7174 163.458 71.9635 163.614C72.2285 163.782 72.3884 163.98 72.4433 164.207C72.4934 164.432 72.4659 164.627 72.3608 164.792C72.2947 164.896 72.2276 164.986 72.1593 165.063C72.0864 165.136 72.0158 165.21 71.9475 165.287C72.1699 165.428 72.4872 165.503 72.8994 165.512C73.3116 165.522 73.7269 165.427 74.1453 165.228L76.7307 161.154C76.8358 160.988 76.8907 160.834 76.8952 160.691C76.895 160.544 76.8428 160.402 76.7387 160.263C76.6504 160.14 76.5215 160.009 76.352 159.868C76.1777 159.724 76.025 159.604 75.8938 159.508L76.1911 159.039L79.8818 161.381L79.5845 161.85C79.4697 161.79 79.3525 161.729 79.2329 161.666C79.1086 161.601 78.9949 161.555 78.8917 161.53C78.7322 161.488 78.5886 161.5 78.461 161.565C78.3257 161.632 78.204 161.75 78.0959 161.921L75.3528 166.243C75.2598 166.39 75.2037 166.556 75.1845 166.743C75.1607 166.927 75.1833 167.101 75.2522 167.264C75.3061 167.378 75.3871 167.486 75.4951 167.588C75.6001 167.694 75.7205 167.797 75.8565 167.897L75.5637 168.358L73.1366 167.037L73.1003 166.874L73.7264 165.888L73.6909 165.865C73.1543 166.062 72.6432 166.146 72.1574 166.117C71.6717 166.087 71.2798 165.978 70.9817 165.789C70.6836 165.6 70.5038 165.349 70.4424 165.038C70.3763 164.724 70.4468 164.404 70.654 164.077Z" fill="white"/>
<path d="M58.895 149.295C59.3198 148.896 59.8019 148.57 60.3411 148.317C60.8762 148.068 61.4037 147.934 61.9237 147.915C62.5152 147.89 63.0652 147.989 63.5736 148.211C64.0821 148.433 64.553 148.775 64.9865 149.236C65.3471 149.62 65.619 150.053 65.8021 150.535C65.9811 151.02 66.0583 151.528 66.0337 152.058C66.0093 152.581 65.8759 153.106 65.6333 153.634C65.3828 154.161 65.0125 154.655 64.5222 155.115C63.5786 156.001 62.5494 156.453 61.4348 156.469C60.3164 156.482 59.339 156.043 58.5027 155.152C57.7086 154.306 57.3405 153.341 57.3984 152.257C57.4483 151.172 57.9472 150.185 58.895 149.295ZM60.0984 150.552C59.792 150.839 59.498 151.173 59.2165 151.553C58.9309 151.936 58.7272 152.301 58.6053 152.646C58.4748 153.014 58.4337 153.376 58.482 153.73C58.5263 154.088 58.6922 154.421 58.98 154.727C59.2754 155.041 59.6062 155.238 59.9724 155.317C60.3348 155.392 60.716 155.372 61.1161 155.258C61.488 155.155 61.8583 154.98 62.2268 154.734C62.5953 154.488 62.9287 154.225 63.2269 153.945C63.6191 153.576 63.9539 153.204 64.2313 152.828C64.5009 152.452 64.7011 152.072 64.8322 151.688C64.9632 151.303 65.0064 150.936 64.9619 150.586C64.9095 150.235 64.7375 149.904 64.446 149.594C63.9665 149.083 63.3395 148.911 62.5651 149.077C61.7908 149.243 60.9685 149.734 60.0984 150.552Z" fill="white"/>
<path d="M44.6482 119.373L45.8942 124.226L44.6159 124.554L43.3699 119.701L44.6482 119.373Z" fill="white"/>
<path fill-rule="evenodd" clip-rule="evenodd" d="M101.721 66.3748C101.66 67.2082 101.741 69.3149 101.884 70.6342C102.138 72.9758 102.767 76.2029 103.248 77.6396C103.475 78.3173 103.526 78.4148 103.712 78.5291C103.827 78.5996 103.951 78.7204 103.988 78.7974C104.112 79.0564 104.769 79.5442 105.237 79.7263C106.139 80.0769 107.036 79.8923 108.311 79.0933L109.181 78.5482L109.359 78.9234C109.457 79.1299 109.506 79.3181 109.469 79.3419C109.431 79.3656 109.091 79.508 108.711 79.6583C107.727 80.0489 106.226 81.0771 105.702 81.7204C105.493 81.9773 105.328 82.2437 105.336 82.3124C105.355 82.4692 106.798 84.0457 107.125 84.2665C107.711 84.6615 108.498 84.5426 109.683 83.8802C110.459 83.4463 110.502 83.4109 110.7 83.0385C110.993 82.4858 111.179 82.3153 111.426 82.3731C111.648 82.425 111.48 82.1414 113.79 86.3732C114.512 87.6969 114.579 87.7925 115.849 89.3137C116.571 90.1784 117.4 91.1721 117.692 91.5218C117.983 91.8715 118.347 92.3058 118.499 92.4868C118.801 92.8455 118.836 92.9679 118.644 92.998C118.445 93.0294 117.931 92.5778 116.371 91.001C116.208 90.8359 116.07 90.7198 116.064 90.7431C116.058 90.7663 116.417 91.2651 116.861 91.8516C117.305 92.4381 117.826 93.1631 118.019 93.4628C118.679 94.4879 119.37 95.1607 120.431 95.8117C120.96 96.1362 120.982 96.1615 121.421 96.959C121.667 97.4075 121.855 97.7836 121.837 97.7948C121.81 97.812 121.2 97.8683 119.164 98.0415C118.965 98.0584 118.789 98.0439 118.772 98.0092C118.679 97.8113 115.791 95.7837 115.395 95.638C113.392 94.8998 111.145 93.432 109.911 92.0552C109.325 91.4015 108.694 90.0703 108.363 88.7905C108.199 88.1562 108.075 87.8231 107.918 87.5944L107.699 87.2773L107.661 88.0642C107.608 89.1441 107.375 90.203 106.99 91.106C106.784 91.5881 106.603 92.2325 106.493 92.8685C106.399 93.4198 106.299 93.9744 106.273 94.1009C106.246 94.2273 106.176 94.6692 106.117 95.083C106.059 95.4967 105.943 95.9868 105.86 96.1721C105.722 96.4838 105.069 98.0498 104.607 99.1806C104.499 99.4447 104.429 99.6672 104.452 99.6749C104.512 99.695 105.078 99.0924 105.904 98.1284C106.295 97.6714 106.806 97.1528 107.039 96.9762C107.271 96.7995 107.525 96.5359 107.603 96.3905C107.848 95.9296 108.276 95.4453 108.644 95.2117C109.102 94.9213 109.206 94.9094 109.503 95.112C111.136 96.2236 111.852 96.7094 112.049 96.8382C112.178 96.9231 112.364 97.1353 112.463 97.3098C112.573 97.5069 112.706 97.6368 112.812 97.6527C113.079 97.6929 113.181 97.5866 113.049 97.4071C112.985 97.3208 112.834 97.0941 112.714 96.9032C112.398 96.4035 112.578 96.3477 113.186 96.7572C114.108 97.3783 115.165 97.9838 115.658 98.173C116.232 98.3934 116.905 98.4665 117.118 98.3315C117.201 98.2789 117.311 98.2882 117.367 98.3525C117.422 98.416 117.931 98.9326 118.498 99.5007C119.064 100.069 119.534 100.545 119.54 100.559C119.547 100.573 119.426 100.776 119.271 101.01L118.991 101.434L119.766 101.995C120.192 102.303 120.79 102.728 121.095 102.939C121.566 103.265 121.679 103.387 121.856 103.76C121.971 104.001 122.041 104.211 122.011 104.226C121.982 104.241 121.19 104.062 120.252 103.829L118.547 103.404L116.183 101.997C114.35 100.906 113.741 100.5 113.472 100.189C113.282 99.9684 112.626 99.2753 112.015 98.6488L110.904 97.5096L109.91 97.1297L108.916 96.7498L108.569 97.0396L108.223 97.3292L108.492 98.4257L108.762 99.522L109.961 100.351L111.16 101.181L111.441 101.774C111.596 102.1 111.703 102.379 111.679 102.394C111.655 102.409 111.24 102.344 110.757 102.25C109.711 102.047 109.149 101.998 108.775 102.078C108.516 102.133 108.492 102.162 108.39 102.544C108.33 102.768 108.303 102.995 108.328 103.05C108.354 103.104 108.946 103.625 109.644 104.209L110.912 105.269L111.473 106.555C111.91 107.555 112.077 107.873 112.226 107.989C112.62 108.295 113.794 109.701 114.099 110.233C114.377 110.717 114.404 110.799 114.32 110.914C114.157 111.136 113.947 111.045 113.454 110.535C112.904 109.968 112.548 109.745 112.309 109.816C112.189 109.852 111.979 109.73 111.587 109.395C110.907 108.815 110.772 108.863 110.868 109.652C110.894 109.862 110.862 109.848 110.496 109.479C109.815 108.791 109.4 108.658 109.461 109.146C109.476 109.263 109.678 109.814 109.91 110.371C110.632 112.103 110.732 112.407 110.605 112.487C110.399 112.618 109.812 112.413 109.267 112.021C108.972 111.809 108.711 111.646 108.687 111.659C108.564 111.731 109.38 113.578 109.78 114.136C109.905 114.31 110.003 114.47 109.998 114.492C109.992 114.513 109.828 114.517 109.633 114.501C109.166 114.461 108.374 114.66 107.717 114.984C107.27 115.204 107.12 115.233 106.764 115.171C106.531 115.13 106.23 115.139 106.094 115.19C105.814 115.296 105.353 115.123 104.271 114.505C102.867 113.703 101.983 112.809 101.421 111.625C101.242 111.247 100.799 110.543 100.316 109.868L99.5096 108.743L99.4324 108.17C99.3899 107.856 99.3591 107.388 99.364 107.132C99.3757 106.517 99.7468 105.055 100.031 104.507L100.256 104.07L100.024 104.125C99.8957 104.156 99.3607 104.449 98.835 104.778C97.4984 105.613 96.6701 106.455 95.3205 108.352L94.6522 109.291L93.9224 109.302C91.0761 109.345 89.8159 111.51 89.8862 116.237C89.894 116.766 89.9321 117.426 89.9706 117.704C90.0092 117.983 90.1183 118.875 90.2131 119.687L90.3854 121.163L89.9699 121.494C89.5444 121.832 89.2892 122.182 89.2361 122.499C89.2171 122.613 89.0916 122.753 88.8929 122.881C88.5054 123.133 88.2296 123.485 88.0467 123.961C87.9143 124.306 87.8872 124.332 87.5572 124.426C87.2389 124.516 87.1932 124.554 87.0426 124.861C86.9518 125.047 86.8819 125.374 86.8875 125.588C86.8931 125.802 86.8525 126.057 86.7974 126.154C86.6104 126.486 86.4236 127.241 86.4336 127.624C86.4391 127.834 86.51 128.276 86.5912 128.606C86.6913 129.012 86.7222 129.441 86.687 129.938C86.6585 130.341 86.6611 130.68 86.6928 130.691C86.7245 130.701 86.9134 130.548 87.1126 130.35C87.4064 130.057 87.5612 129.959 87.931 129.83C88.742 129.548 89.2995 128.957 89.6477 128.012C89.7252 127.802 89.8607 127.584 89.9489 127.528C90.0371 127.472 90.2962 127.241 90.5246 127.015C91.2439 126.303 91.3629 125.53 90.9048 124.543C90.7247 124.155 90.7123 124.077 90.8197 124.008C91.0374 123.87 91.2785 123.137 91.336 122.437C91.3665 122.067 91.3675 121.132 91.3383 120.36C91.309 119.588 91.3055 118.793 91.3305 118.594C91.391 118.116 91.5358 118.029 91.6997 118.374C91.8812 118.757 92.6466 121.062 92.98 122.23C93.5123 124.095 93.9992 124.927 95.6222 126.744C96.6074 127.848 96.6407 127.901 97.9677 130.475C98.6234 131.748 99.3713 133.184 99.6297 133.668L100.099 134.546L99.8705 135.971C99.7446 136.754 99.6383 137.413 99.6345 137.435C99.6306 137.457 99.5304 137.463 99.4119 137.448C98.9036 137.384 98.8332 137.797 99.1827 138.791C99.3032 139.134 99.4674 139.919 99.5645 140.615C99.6581 141.287 99.8366 142.218 99.9611 142.683C100.242 143.735 100.37 144.777 100.35 145.85C100.311 147.94 100.349 148.145 100.779 148.132C101.153 148.122 101.292 148.463 101.304 149.417C101.315 150.254 101.556 151.088 101.878 151.401C102.052 151.57 102.055 151.569 102.722 151.147C103.298 150.782 103.425 150.666 103.637 150.312C103.773 150.087 103.927 149.721 103.979 149.501L104.074 149.099L103.701 148.69C103.496 148.464 103.288 148.195 103.238 148.09C103.189 147.986 103.033 147.861 102.892 147.814L102.636 147.728L102.611 147.153C102.554 145.889 102.161 144.145 101.726 143.227C101.537 142.829 101.538 142.823 101.795 141.975C102.185 140.689 102.287 139.64 102.156 138.291C102.136 138.083 102.206 137.71 102.328 137.378C103.328 134.659 103.72 131.832 103.786 126.84C103.801 125.706 103.915 125.444 104.363 125.516C104.599 125.554 104.662 125.62 104.967 126.151C105.154 126.476 105.493 127.223 105.721 127.811C105.948 128.398 106.392 129.374 106.708 129.979L107.281 131.08L107.253 132.035C107.238 132.56 107.245 133.032 107.269 133.083C107.343 133.239 108.094 133.78 108.904 134.26C109.35 134.524 110.157 134.877 110.82 135.098C111.796 135.424 112.041 135.547 112.488 135.932C113.128 136.485 113.886 137.388 114.309 138.104C114.482 138.398 114.756 138.758 114.918 138.904L115.211 139.17L115.315 138.78C115.507 138.059 115.791 138.149 116.192 139.057C116.606 139.993 117.508 140.499 117.87 139.998C117.953 139.882 118.215 139.671 118.453 139.529C118.691 139.386 118.988 139.148 119.115 139C119.343 138.732 119.506 138.159 119.41 137.959C119.383 137.902 119.435 137.76 119.526 137.643C119.617 137.526 119.664 137.375 119.631 137.305C119.575 137.186 118.974 136.815 118.012 136.304C117.745 136.163 117.514 136.107 117.385 136.153C117.104 136.254 116.929 136.161 116.478 135.673C116.154 135.322 115.978 135.217 115.407 135.033C114.502 134.742 113.354 134.132 112.686 133.59C111.83 132.896 110.812 131.818 110.519 131.295C110.289 130.887 110.255 130.759 110.254 130.301C110.253 130.012 110.425 129.045 110.636 128.153C111.065 126.339 111.172 125.415 111.074 124.363C111.037 123.954 111.051 123.591 111.107 123.514C111.271 123.289 111.731 123.127 112.953 122.863C113.593 122.725 114.282 122.56 114.484 122.496C114.926 122.356 116.155 121.591 116.325 121.35C116.885 120.554 117.252 120.213 118.279 119.537C119.172 118.949 119.367 118.789 119.617 118.439C120.346 117.418 120.844 116.912 121.602 116.424L122.194 116.043L122.89 116.286C124.222 116.751 125.183 116.824 126.529 116.562C126.991 116.472 127.409 116.412 127.459 116.428C127.509 116.445 127.666 116.834 127.811 117.3C127.955 117.762 128.146 118.347 128.236 118.599L128.398 119.057L128.476 118.779C128.594 118.362 128.694 118.351 128.876 118.734C129.048 119.097 129.271 119.264 129.762 119.398C130.191 119.515 130.286 119.394 130.123 118.937C129.998 118.586 130.003 118.553 130.199 118.398C130.374 118.26 130.436 118.259 130.571 118.392C130.66 118.48 130.766 118.531 130.806 118.505C130.926 118.429 130.83 117.642 130.604 116.849C130.4 116.133 130.399 116.103 130.578 115.99C130.68 115.925 130.786 115.88 130.813 115.889C130.841 115.898 130.974 116.21 131.108 116.581C131.634 118.031 131.538 118.99 130.762 120.053C130.521 120.383 130.292 120.673 130.253 120.698C130.214 120.723 129.829 120.736 129.397 120.729C128.299 120.71 128.257 120.757 128.908 121.286L129.294 121.6L129.349 122.21C129.487 123.718 129.807 124.841 130.372 125.796C130.46 125.946 130.492 126.145 130.465 126.378L130.424 126.732L130.974 126.921C131.504 127.104 131.532 127.128 131.731 127.546C131.844 127.785 132.095 128.154 132.288 128.366C132.481 128.578 132.723 128.856 132.827 128.985C133.065 129.279 133.354 129.211 134.054 128.695C134.745 128.185 135.599 126.934 135.459 126.635C135.308 126.313 133.679 125.463 133.265 125.49C133.008 125.507 132.991 125.491 132.914 125.175C132.789 124.659 132.591 124.29 131.986 123.445C131.325 122.522 130.846 121.451 130.86 120.93C130.874 120.418 131.297 119.874 131.604 119.972C132.083 120.125 132.343 120.089 132.784 119.809C133.193 119.55 133.228 119.508 133.182 119.327C132.481 116.555 132.215 114.463 132.279 112.215C132.294 111.691 132.264 111.026 132.213 110.738C132.126 110.246 132.094 110.177 131.701 109.63C131.47 109.31 131.087 108.733 130.849 108.349C129.94 106.878 129.112 105.793 127.775 104.324C126.937 103.402 127.025 103.589 126.694 102.031C126.285 100.102 125.65 98.4411 123.546 93.7952C122.555 91.6055 122.023 90.2584 121.553 88.741L121.374 88.1637L122.044 87.7391C122.697 87.3251 122.715 87.307 122.744 87.0138C122.779 86.667 122.66 85.9687 122.435 85.2059C122.186 84.3591 122.185 84.3792 122.473 84.3039C122.612 84.2676 122.896 84.1299 123.104 83.9977C123.539 83.7218 123.651 83.4708 123.578 82.9328C123.545 82.686 123.573 82.5748 123.687 82.5028C123.918 82.3564 124.102 82.0287 124.067 81.826C124.05 81.7268 123.924 81.5128 123.786 81.3504C123.612 81.1446 123.466 80.8606 123.304 80.4139C122.898 79.2964 122.64 78.7953 122.434 78.7259C122.295 78.6793 122.262 78.6909 122.301 78.7728C122.329 78.8328 122.335 78.9695 122.313 79.0766C122.279 79.2405 122.214 79.2923 121.909 79.4015C121.474 79.5567 121.252 79.7757 121.175 80.1242C121.144 80.2657 121.103 80.372 121.083 80.3604C121.063 80.3489 120.932 80.2394 120.791 80.1172C120.643 79.99 120.352 79.8713 120.108 79.8396C119.715 79.7883 119.67 79.7581 119.52 79.4426C119.373 79.1318 119.35 79.1156 119.267 79.2626C119.217 79.3514 119.165 79.6394 119.15 79.9027C119.136 80.1659 119.108 80.392 119.088 80.4051C119.067 80.4182 119.005 80.3007 118.95 80.144C118.826 79.7904 118.294 79.1654 117.906 78.9171C117.483 78.6467 116.423 78.3093 116.28 78.3998C116.116 78.5041 116.4 79.3301 116.745 79.7517C117.03 80.0988 117.563 80.4512 117.686 80.3733C117.827 80.2836 118.468 80.4625 118.667 80.6474C118.812 80.7822 118.866 80.899 118.909 81.1787C118.992 81.707 118.893 81.8478 118.419 81.875C117.858 81.9071 117.754 81.9963 117.857 82.3592C117.969 82.7539 117.866 83.3113 117.609 83.7081C117.331 84.1376 116.562 84.6202 115.743 84.8783C115.391 84.9894 115.095 85.0856 115.084 85.092C115.074 85.0984 115.215 85.3778 115.396 85.7129C115.597 86.083 115.7 86.3386 115.66 86.3642C115.547 86.4359 114.275 85.3066 113.609 84.5437C112.988 83.8316 112.964 83.7922 112.248 82.275C111.491 80.6719 111.354 80.2942 111.496 80.2062C111.543 80.1775 111.708 80.2336 111.864 80.3308C112.125 80.4931 112.176 80.4903 112.481 80.2969C112.809 80.089 112.813 80.0798 112.798 79.615C112.781 79.0756 112.973 78.6787 113.407 78.358C113.604 78.212 113.678 78.1041 113.659 77.9899C113.563 77.425 114.442 77.838 115.42 78.8171C115.532 78.9291 115.658 78.9986 115.701 78.9716C115.925 78.8293 115.686 77.8821 115.326 77.4903C115.138 77.2858 115.095 77.173 115.028 76.7126C114.985 76.4163 114.928 76.1877 114.902 76.2044C114.777 76.2844 114.572 76.8327 114.602 77.0065C114.628 77.1593 114.606 77.1957 114.501 77.1723C114.257 77.1179 113.597 76.6612 113.298 76.3403C113.137 76.1671 112.918 75.9883 112.812 75.9431C112.706 75.8977 112.54 75.773 112.443 75.6658C112.282 75.4888 112.209 75.4874 111.65 75.6512C111.311 75.7504 111.022 75.7954 111.008 75.7511C110.705 74.7951 110.73 74.8303 110.176 74.5703C109.586 74.2937 109.312 73.9118 109.484 73.6059C109.537 73.5125 110.037 73.1494 110.639 72.768C111.89 71.9746 112.042 71.9368 112.907 72.2027C113.234 72.3033 113.551 72.3541 113.612 72.3155C113.673 72.277 113.753 72.1034 113.791 71.9298C113.86 71.6117 113.827 71.529 113.407 70.953C113.136 70.5818 111.655 71.125 110.6 71.9821C110.139 72.3571 109.973 72.4518 109.685 72.5066C108.902 72.6549 108.535 73.1832 108.584 74.0877L108.615 74.6536L108.202 74.9866C107.32 75.6974 105.769 76.4452 105.264 76.4036C104.928 76.3761 104.65 75.9932 104.511 75.3672C104.446 75.0747 104.272 74.3594 104.125 73.7777C103.977 73.196 103.705 72.1021 103.521 71.3467C103.337 70.5913 103.024 69.316 102.827 68.5126C102.63 67.7092 102.397 66.7612 102.31 66.4058C102.048 65.3338 101.798 65.3206 101.721 66.3748ZM117.88 59.199C117.949 59.3415 117.967 59.3447 117.975 59.2155C117.988 59.0089 117.948 58.9255 117.863 58.9795C117.826 59.0033 117.833 59.1021 117.88 59.199ZM118.175 59.8558C118.173 59.9134 118.327 60.3457 118.516 60.8166C118.977 61.9645 119.553 63.9113 119.699 64.8182C119.946 66.3488 119.843 67.6571 119.408 68.4976L119.207 68.8859L119.471 68.9505C119.834 69.0392 119.832 69.2419 119.466 69.6641C118.851 70.3729 118.671 70.4911 118.329 70.4117C117.974 70.3295 117.761 70.433 117.623 70.7545C117.535 70.9632 117.516 70.973 117.367 70.8921C117.175 70.7884 117.184 70.6108 117.394 70.3861C117.598 70.1676 117.526 70.0909 117.072 70.0425C116.513 69.983 116.166 70.0481 115.933 70.2556C115.748 70.4204 115.708 70.416 115.443 70.2007C115.09 69.914 114.768 69.8585 114.381 70.0178L114.086 70.139L114.496 70.3313C115.034 70.584 115.202 70.7186 115.337 71.0033C115.417 71.1708 115.496 71.2285 115.611 71.2024C115.874 71.1423 116.747 71.7344 116.914 72.0871C116.993 72.2529 117.163 72.4865 117.293 72.6062C117.571 72.8622 117.749 73.2054 117.751 73.4917C117.754 73.8655 117.674 74.1395 117.535 74.2292C117.22 74.4325 117.275 74.5401 117.858 74.8565C118.172 75.0265 118.62 75.3382 118.856 75.5493C119.589 76.2069 119.593 76.2094 119.771 76.0637C119.964 75.9052 119.968 75.3669 119.781 74.8204C119.715 74.6256 119.679 74.3693 119.701 74.2509C119.748 74.0029 119.486 73.4384 119.237 73.2507C119.149 73.1845 119.082 73.111 119.088 73.0876C119.094 73.0641 119.355 72.8145 119.668 72.5328C121.008 71.3277 121.414 69.6115 120.982 66.9778C120.725 65.4129 119.872 62.8315 119.038 61.0993C118.663 60.3197 118.183 59.6285 118.175 59.8558ZM119.018 110.462C119.296 111.049 121.506 111.447 123.81 111.326C124.428 111.294 125.034 111.236 125.158 111.198C125.477 111.1 126.442 111.413 126.395 111.6C126.368 111.707 126.21 111.782 125.741 111.912C124.986 112.12 124.778 112.237 124.918 112.374C124.973 112.428 125.041 112.521 125.07 112.58C125.098 112.641 125.264 112.649 125.447 112.597C125.626 112.547 126.01 112.556 126.301 112.618C127.286 112.827 129.174 112.843 129.144 112.642C129.135 112.585 129.138 112.449 129.151 112.339C129.171 112.159 129.238 112.18 129.873 112.568C130.58 113 131.316 113.271 131.488 113.162C131.628 113.073 131.64 112.861 131.534 112.39C131.482 112.156 131.462 111.951 131.49 111.933C131.519 111.915 131.53 111.771 131.515 111.612C131.491 111.36 131.445 111.29 131.148 111.051C130.835 110.799 130.699 110.773 129.349 110.707L127.888 110.636L126.444 109.934C124.849 109.158 123.434 108.623 122.839 108.571C122.466 108.539 122.413 108.561 121.399 109.175C120.587 109.667 120.213 109.849 119.759 109.971C118.992 110.178 118.909 110.233 119.018 110.462Z" fill="white"/>
</g>
</svg>
