<svg width="224" height="210" viewBox="0 0 224 210" fill="none" xmlns="http://www.w3.org/2000/svg">
<g opacity="0.7">
<path d="M41.1073 98.7588C42.1216 98.7588 43.0015 98.9494 43.7468 99.3304C44.4922 99.7115 45.103 100.207 45.5794 100.818C46.0557 101.435 46.4116 102.127 46.6469 102.895C46.8823 103.662 47 104.455 47 105.274V110.216H46.4032C46.4032 110.054 46.3892 109.844 46.3611 109.586C46.3275 109.323 46.2911 109.149 46.2519 109.065C46.179 108.897 46.0725 108.776 45.9324 108.703C45.7867 108.625 45.613 108.586 45.4112 108.586H36.8033C36.6128 108.586 36.4419 108.619 36.2906 108.686C36.1392 108.748 36.0188 108.874 35.9291 109.065C35.845 109.238 35.7834 109.426 35.7442 109.628C35.7049 109.83 35.6797 110.003 35.6685 110.149H35.0717V104.937C35.0717 104.22 35.1837 103.514 35.4079 102.819C35.6265 102.124 35.9235 101.519 36.299 101.003C36.7977 100.303 37.4506 99.7536 38.2576 99.3557C39.0646 98.9578 40.0145 98.7588 41.1073 98.7588ZM41.0989 100.818C40.2975 100.818 39.5746 100.925 38.9301 101.138C38.28 101.351 37.714 101.662 37.232 102.071C36.7725 102.458 36.411 102.934 36.1477 103.5C35.8843 104.06 35.7526 104.685 35.7526 105.374C35.7526 105.604 35.7582 105.865 35.7694 106.156C35.775 106.442 35.7806 106.655 35.7862 106.795H44.9573C45.4673 106.795 45.8203 106.647 46.0165 106.35C46.2126 106.053 46.3107 105.596 46.3107 104.979C46.3107 104.268 46.1846 103.646 45.9324 103.113C45.6802 102.581 45.33 102.149 44.8816 101.819C44.4109 101.471 43.8673 101.219 43.2509 101.062C42.6288 100.9 41.9115 100.818 41.0989 100.818Z" fill="white"/>
<path d="M45.9597 83.3361C46.5242 83.481 47.0576 83.7134 47.5598 84.0333C48.0566 84.3518 48.4525 84.7254 48.7475 85.1541C49.0856 85.6401 49.297 86.1573 49.3819 86.7056C49.4668 87.2539 49.4305 87.8347 49.273 88.4481C49.142 88.9583 48.9222 89.4197 48.6138 89.8323C48.2999 90.2436 47.9124 90.5809 47.4514 90.8444C46.9971 91.1038 46.4822 91.2725 45.9068 91.3504C45.3273 91.4215 44.7119 91.3734 44.0605 91.2062C42.8066 90.8842 41.8741 90.2571 41.2629 89.3249C40.6532 88.3872 40.5002 87.3268 40.804 86.1434C41.0925 85.0198 41.7101 84.1919 42.6568 83.6597C43.5994 83.1206 44.7004 83.0127 45.9597 83.3361ZM45.5432 85.0257C45.1361 84.9211 44.6969 84.8518 44.2254 84.8175C43.7486 84.7818 43.3318 84.805 42.9752 84.887C42.5941 84.9743 42.2668 85.1333 41.9935 85.364C41.7148 85.5933 41.5232 85.9115 41.4186 86.3186C41.3113 86.7366 41.3225 87.1213 41.4521 87.4728C41.5831 87.8189 41.804 88.1302 42.1149 88.4067C42.4014 88.6654 42.7473 88.8844 43.1526 89.0637C43.5578 89.243 43.9586 89.3835 44.3548 89.4852C44.8759 89.619 45.3695 89.7023 45.8355 89.7352C46.2975 89.7612 46.7258 89.7266 47.1206 89.6312C47.5154 89.5359 47.8487 89.3755 48.1207 89.1503C48.3885 88.9182 48.5754 88.5959 48.6814 88.1834C48.8556 87.5048 48.6651 86.8832 48.1101 86.3183C47.555 85.7534 46.6994 85.3225 45.5432 85.0257Z" fill="white"/>
<path d="M57.2015 69.1982L55.2455 72.7561L54.7593 72.4888C54.8116 72.3705 54.8692 72.2423 54.9323 72.1043C54.9981 71.9614 55.0405 71.8377 55.0597 71.7331C55.0911 71.5713 55.0703 71.4288 54.9974 71.3055C54.9222 71.1747 54.7962 71.0607 54.6194 70.9635L50.8847 68.9103C50.369 68.6268 49.9038 68.5309 49.4888 68.6225C49.0766 68.7093 48.7747 68.927 48.583 69.2757C48.4399 69.5359 48.3507 69.7971 48.3154 70.059C48.2752 70.3183 48.2681 70.5638 48.2942 70.7956C48.318 71.0198 48.3693 71.2174 48.4479 71.3885C48.5243 71.552 48.5896 71.6775 48.6439 71.7649L52.8206 74.061C52.9876 74.1528 53.144 74.194 53.2898 74.1847C53.4357 74.1753 53.5758 74.1181 53.7104 74.013C53.8162 73.9369 53.9137 73.8466 54.0031 73.7422C54.0951 73.633 54.1812 73.5172 54.2612 73.3949L54.7474 73.6622L52.7914 77.2202L52.3052 76.9529C52.3575 76.8345 52.4111 76.7137 52.4661 76.5905C52.5237 76.4623 52.5621 76.3459 52.5813 76.2413C52.6127 76.0795 52.5919 75.937 52.5189 75.8137C52.4438 75.6829 52.3178 75.5689 52.141 75.4717L47.6549 73.0054C47.4879 72.9136 47.3154 72.8668 47.1374 72.8648C46.9572 72.8553 46.7878 72.8901 46.6292 72.9692C46.519 73.0301 46.4165 73.1176 46.3218 73.2318C46.2221 73.3433 46.1269 73.47 46.0361 73.6119L45.5572 73.3487L46.7235 70.8434L46.8833 70.797L47.9072 71.3599L47.9275 71.3231C47.8744 71.1404 47.8154 70.9161 47.7506 70.6502C47.6808 70.3817 47.6375 70.1404 47.6208 69.9266C47.6028 69.6801 47.6234 69.41 47.6825 69.1164C47.7416 68.8227 47.8576 68.5187 48.0304 68.2044C48.4138 67.5071 48.9158 67.1116 49.5364 67.0179C50.1549 66.9167 50.825 67.0645 51.5469 67.4613L55.3259 69.5388C55.4978 69.6333 55.6539 69.6808 55.7944 69.6813C55.9299 69.679 56.0663 69.6229 56.2035 69.5129C56.3174 69.422 56.4071 69.3402 56.4727 69.2675C56.5409 69.1899 56.6218 69.0777 56.7153 68.9309L57.2015 69.1982Z" fill="white"/>
<path d="M82.302 46.1842L78.1074 48.8462L77.7876 48.3422C78.1416 48.0844 78.4168 47.8434 78.6131 47.6192C78.8141 47.3921 78.8816 47.2265 78.8155 47.1224C78.7885 47.0798 78.7507 47.0308 78.7022 46.9753C78.6537 46.9198 78.605 46.8744 78.556 46.8391L76.2862 45.1135L72.7587 47.3521C72.8364 47.7674 72.9107 48.1251 72.9817 48.4252C73.0574 48.7223 73.1282 48.996 73.1941 49.2462C73.2617 49.4887 73.3242 49.6814 73.3816 49.8241C73.4391 49.9669 73.4933 50.0785 73.5443 50.159C73.6644 50.3482 73.9066 50.4003 74.2707 50.3152C74.6349 50.2302 75.0099 50.0785 75.3957 49.8602L75.7155 50.3641L71.9254 52.7694L71.6056 52.2654C71.7226 52.1779 71.8599 52.0543 72.0174 51.8946C72.1719 51.7302 72.2843 51.5726 72.3545 51.4218C72.4627 51.1739 72.5253 50.9483 72.5424 50.7451C72.5564 50.537 72.535 50.2785 72.4782 49.9694C72.1827 48.3847 71.8402 46.6109 71.4507 44.6478C71.0611 42.6848 70.7149 40.9365 70.4121 39.403L70.9799 39.0427L79.8502 45.5996C80.0383 45.7391 80.2133 45.8371 80.3753 45.8936C80.5373 45.9501 80.7332 45.9817 80.9632 45.9884C81.1141 45.9856 81.292 45.9523 81.4971 45.8885C81.6992 45.82 81.8609 45.7506 81.9822 45.6802L82.302 46.1842ZM75.6298 44.644L71.6265 41.7088L72.6062 46.5628L75.6298 44.644ZM71.0099 36.674C70.8678 36.9102 70.6443 37.2744 70.3393 37.7666C70.0362 38.2511 69.6933 38.8038 69.3109 39.4249L68.9152 39.2877C69.0845 38.6028 69.22 38.0422 69.3215 37.6061C69.4248 37.1622 69.5203 36.7166 69.6082 36.2693C69.6575 36.0123 69.7226 35.8117 69.8036 35.6674C69.8863 35.5153 69.9987 35.3943 70.1406 35.3042C70.3204 35.1901 70.5087 35.1469 70.7055 35.1746C70.9024 35.2024 71.0518 35.2967 71.1539 35.4576C71.283 35.661 71.3236 35.861 71.2757 36.0573C71.2277 36.2537 71.1391 36.4593 71.0099 36.674Z" fill="white"/>
<path d="M94.0831 41.7245L90.2376 42.974L90.0662 42.4464C90.1853 42.3959 90.3124 42.3428 90.4475 42.2871C90.5809 42.2261 90.6886 42.1675 90.7705 42.1114C90.9042 42.015 90.9892 41.896 91.0258 41.7545C91.0606 41.6077 91.0468 41.4383 90.9844 41.2464L88.0179 32.1165C87.9556 31.9246 87.8549 31.7599 87.716 31.6224C87.5806 31.4778 87.4307 31.3792 87.2663 31.3265C87.1496 31.2938 86.9546 31.2923 86.6815 31.3221C86.4083 31.3519 86.1928 31.3866 86.0347 31.4262L85.8685 30.9145L88.7748 29.7669L88.9257 29.8505L92.4403 40.6673C92.5009 40.8539 92.5858 40.9972 92.6949 41.0973C92.8023 41.192 92.9436 41.2463 93.119 41.26C93.2535 41.2752 93.3811 41.2779 93.5017 41.2682C93.6276 41.2568 93.7643 41.233 93.9116 41.1969L94.0831 41.7245Z" fill="white"/>
<path d="M112.301 31.2209C112.052 31.2815 111.817 31.3889 111.597 31.5432C111.381 31.6915 111.203 31.9441 111.063 32.3011C110.78 33.0713 110.488 33.8758 110.187 34.7146C109.886 35.5477 109.573 36.4237 109.249 37.3425C109.154 37.6068 109.053 37.9192 108.946 38.2797C108.845 38.6398 108.752 38.9854 108.666 39.3165L108.012 39.3576C107.398 38.0767 106.833 36.9106 106.318 35.8593C105.802 34.8024 105.268 33.7214 104.715 32.6162C104.587 32.366 104.393 32.1789 104.133 32.0549C103.877 31.9249 103.623 31.8483 103.368 31.825L103.334 31.2713L107.159 31.0306L107.196 31.6179C107.029 31.634 106.821 31.6836 106.574 31.7665C106.326 31.8439 106.206 31.9385 106.213 32.0503C106.214 32.0671 106.231 32.111 106.263 32.1819C106.295 32.2473 106.328 32.3238 106.362 32.4116C106.627 32.9676 107.001 33.7442 107.485 34.7414C107.969 35.7385 108.362 36.542 108.665 37.1519C108.836 36.6582 109.05 36.0439 109.307 35.309C109.569 34.5738 109.849 33.7532 110.146 32.8473C110.192 32.6928 110.236 32.5496 110.279 32.4178C110.321 32.2804 110.337 32.1446 110.329 32.0104C110.323 31.9153 110.27 31.8344 110.17 31.7677C110.076 31.695 109.963 31.6347 109.831 31.5869C109.698 31.5391 109.57 31.505 109.445 31.4848C109.32 31.4646 109.218 31.4513 109.139 31.4451L109.106 30.9081L112.268 30.7091L112.301 31.2209Z" fill="white"/>
<path d="M128.429 40.855C128.153 40.8992 127.91 40.9299 127.702 40.9472C127.497 40.971 127.271 40.9592 127.024 40.912C126.594 40.8301 126.269 40.6654 126.048 40.4178C125.834 40.1659 125.728 39.8404 125.73 39.4414L125.68 39.4319C125.247 39.76 124.804 39.9893 124.351 40.1197C123.903 40.2512 123.391 40.2618 122.813 40.1515C122.202 40.035 121.734 39.7517 121.409 39.3018C121.089 38.8529 120.987 38.3257 121.103 37.7201C121.163 37.4064 121.26 37.134 121.396 36.9031C121.531 36.6722 121.706 36.4744 121.92 36.3099C122.089 36.171 122.298 36.0598 122.548 35.9762C122.799 35.8871 123.031 35.823 123.244 35.7837C123.509 35.7374 124.043 35.6595 124.846 35.5502C125.654 35.4419 126.204 35.3414 126.495 35.2486L126.651 34.4312C126.665 34.3596 126.674 34.2188 126.68 34.0089C126.692 33.7999 126.665 33.5952 126.601 33.3946C126.529 33.1699 126.406 32.9639 126.231 32.7764C126.062 32.5844 125.793 32.4533 125.424 32.3829C125.171 32.3346 124.926 32.3335 124.689 32.3796C124.459 32.4212 124.29 32.4804 124.185 32.5572C124.164 32.6673 124.157 32.8344 124.166 33.0585C124.18 33.2837 124.17 33.4872 124.135 33.6688C124.098 33.8615 123.977 34.0208 123.77 34.1469C123.569 34.274 123.314 34.3081 123.006 34.2493C122.731 34.1968 122.545 34.0616 122.45 33.8437C122.361 33.6214 122.34 33.3891 122.386 33.1469C122.434 32.8937 122.569 32.6683 122.789 32.4707C123.015 32.2741 123.288 32.1123 123.609 31.9853C123.886 31.8784 124.211 31.8063 124.583 31.7689C124.956 31.726 125.311 31.7366 125.647 31.8006C126.109 31.8888 126.505 31.9985 126.833 32.1297C127.169 32.2564 127.457 32.4511 127.698 32.7139C127.939 32.9711 128.098 33.2895 128.174 33.6691C128.257 34.0443 128.245 34.5071 128.14 35.0576C127.99 35.8448 127.849 36.5423 127.716 37.1502C127.584 37.7526 127.449 38.4144 127.311 39.1355C127.27 39.3502 127.273 39.5277 127.321 39.6679C127.374 39.8092 127.469 39.9386 127.606 40.0561C127.679 40.1214 127.804 40.1736 127.979 40.2127C128.159 40.2529 128.343 40.2908 128.53 40.3265L128.429 40.855ZM126.379 35.9454C125.885 35.9938 125.449 36.0504 125.072 36.1153C124.694 36.1802 124.335 36.2829 123.995 36.4233C123.684 36.558 123.424 36.7394 123.215 36.9677C123.007 37.1905 122.869 37.478 122.802 37.8303C122.715 38.2872 122.769 38.6456 122.965 38.9054C123.166 39.1663 123.451 39.332 123.82 39.4023C124.211 39.4769 124.573 39.4489 124.906 39.3185C125.24 39.1825 125.533 39.0046 125.786 38.7847L126.379 35.9454Z" fill="white"/>
<path d="M146.389 40.2593C146.267 40.5179 146.095 40.7188 145.873 40.8619C145.653 41 145.411 41.0071 145.148 40.883C144.864 40.7494 144.68 40.5732 144.597 40.3546C144.52 40.1383 144.522 39.9415 144.606 39.764C144.658 39.6525 144.714 39.5546 144.772 39.4705C144.835 39.3888 144.896 39.3059 144.954 39.2217C144.716 39.1096 144.391 39.0747 143.981 39.1171C143.571 39.1594 143.171 39.3056 142.781 39.5555L140.726 43.9215C140.643 44.0989 140.608 44.259 140.621 44.4015C140.64 44.5465 140.709 44.6815 140.83 44.8064C140.933 44.9168 141.078 45.0312 141.263 45.1496C141.454 45.2704 141.621 45.3705 141.763 45.4498L141.527 45.9518L137.572 44.0906L137.808 43.5886C137.929 43.6334 138.053 43.6793 138.18 43.7264C138.311 43.7759 138.43 43.807 138.535 43.8195C138.699 43.8407 138.84 43.811 138.958 43.7304C139.084 43.6472 139.19 43.5143 139.276 43.3318L141.456 38.6997C141.53 38.5425 141.564 38.3699 141.56 38.182C141.56 37.9965 141.516 37.8271 141.427 37.6737C141.36 37.5676 141.266 37.4708 141.146 37.3834C141.028 37.2909 140.896 37.2038 140.749 37.1221L140.981 36.6277L143.555 37.6343L143.611 37.7909L143.114 38.8482L143.152 38.8661C143.659 38.6033 144.156 38.4561 144.642 38.4244C145.127 38.3928 145.53 38.4522 145.849 38.6025C146.169 38.7528 146.378 38.9785 146.478 39.2794C146.583 39.5828 146.553 39.9094 146.389 40.2593Z" fill="white"/>
<path d="M159.908 53.4516C159.536 53.9006 159.099 54.2843 158.596 54.6025C158.096 54.9164 157.589 55.1156 157.076 55.1999C156.492 55.2989 155.934 55.2701 155.402 55.1134C154.87 54.9567 154.36 54.6766 153.872 54.2729C153.466 53.9371 153.142 53.5418 152.9 53.0871C152.661 52.628 152.521 52.1338 152.479 51.6044C152.438 51.0829 152.504 50.5452 152.679 49.9913C152.861 49.4367 153.167 48.9004 153.595 48.3822C154.421 47.3847 155.385 46.808 156.489 46.6519C157.597 46.4994 158.621 46.8125 159.563 47.5912C160.457 48.3307 160.943 49.242 161.021 50.3252C161.108 51.4077 160.737 52.4498 159.908 53.4516ZM158.556 52.3553C158.824 52.0315 159.074 51.6636 159.306 51.2516C159.541 50.8353 159.698 50.4483 159.775 50.0907C159.859 49.7087 159.854 49.3449 159.762 48.9994C159.673 48.6496 159.466 48.3407 159.143 48.0728C158.81 47.7977 158.457 47.644 158.084 47.6116C157.715 47.5828 157.339 47.6502 156.957 47.8137C156.601 47.9628 156.255 48.1825 155.921 48.4729C155.586 48.7632 155.288 49.066 155.027 49.3813C154.684 49.7958 154.399 50.2069 154.171 50.6145C153.95 51.0215 153.799 51.4238 153.718 51.8216C153.636 52.2194 153.639 52.5893 153.727 52.9313C153.823 53.2725 154.035 53.5788 154.363 53.8503C154.903 54.2968 155.546 54.3892 156.294 54.1275C157.041 53.8658 157.795 53.2751 158.556 52.3553Z" fill="white"/>
<path d="M177.792 81.3515L175.948 76.6933L177.175 76.2074L179.02 80.8657L177.792 81.3515Z" fill="white"/>
<path d="M182.437 119.234C181.431 119.107 180.582 118.808 179.89 118.336C179.199 117.865 178.655 117.296 178.259 116.63C177.863 115.959 177.597 115.228 177.46 114.437C177.322 113.645 177.305 112.844 177.408 112.032L178.027 107.128L178.619 107.203C178.599 107.364 178.586 107.575 178.582 107.834C178.582 108.099 178.597 108.276 178.625 108.365C178.676 108.541 178.767 108.673 178.897 108.763C179.031 108.859 179.199 108.92 179.399 108.945L187.939 110.024C188.128 110.048 188.302 110.036 188.46 109.988C188.618 109.946 188.754 109.836 188.866 109.658C188.972 109.497 189.056 109.318 189.12 109.123C189.185 108.928 189.231 108.758 189.261 108.615L189.853 108.69L189.2 113.861C189.11 114.572 188.91 115.259 188.601 115.92C188.297 116.582 187.926 117.145 187.489 117.61C186.906 118.242 186.19 118.705 185.339 118.999C184.489 119.293 183.522 119.371 182.437 119.234ZM182.704 117.192C183.499 117.292 184.229 117.277 184.896 117.147C185.567 117.017 186.168 116.779 186.697 116.434C187.202 116.108 187.62 115.68 187.952 115.152C188.284 114.629 188.493 114.026 188.579 113.342C188.608 113.114 188.635 112.854 188.66 112.564C188.691 112.28 188.712 112.068 188.724 111.928L179.625 110.779C179.119 110.715 178.75 110.818 178.518 111.088C178.286 111.358 178.132 111.799 178.055 112.41C177.965 113.116 178.013 113.749 178.196 114.309C178.38 114.869 178.673 115.341 179.076 115.725C179.5 116.129 180.007 116.447 180.599 116.68C181.196 116.919 181.898 117.09 182.704 117.192Z" fill="white"/>
<path d="M175.69 133.927C175.148 133.713 174.648 133.415 174.19 133.035C173.737 132.657 173.391 132.236 173.152 131.774C172.878 131.249 172.733 130.71 172.717 130.155C172.702 129.601 172.811 129.029 173.044 128.44C173.238 127.95 173.514 127.52 173.871 127.149C174.234 126.781 174.661 126.495 175.151 126.291C175.635 126.091 176.167 125.988 176.747 125.983C177.331 125.985 177.936 126.11 178.561 126.357C179.764 126.834 180.611 127.573 181.101 128.574C181.588 129.581 181.607 130.652 181.157 131.788C180.73 132.867 180.014 133.611 179.008 134.02C178.005 134.437 176.899 134.406 175.69 133.927ZM176.315 132.303C176.706 132.458 177.133 132.582 177.596 132.675C178.065 132.77 178.481 132.799 178.846 132.762C179.235 132.724 179.579 132.607 179.879 132.412C180.185 132.22 180.415 131.928 180.569 131.537C180.728 131.136 180.765 130.753 180.681 130.388C180.594 130.028 180.414 129.692 180.14 129.378C179.888 129.086 179.573 128.825 179.193 128.596C178.813 128.368 178.433 128.178 178.053 128.028C177.553 127.83 177.074 127.685 176.615 127.594C176.16 127.51 175.731 127.491 175.327 127.536C174.924 127.581 174.573 127.698 174.275 127.888C173.98 128.085 173.754 128.381 173.598 128.777C173.34 129.428 173.451 130.069 173.931 130.699C174.41 131.329 175.205 131.864 176.315 132.303Z" fill="white"/>
<path d="M162.765 146.545L165.152 143.26L165.6 143.586C165.534 143.697 165.461 143.817 165.381 143.946C165.297 144.079 165.24 144.197 165.208 144.298C165.156 144.455 165.159 144.599 165.216 144.73C165.274 144.869 165.385 144.998 165.548 145.117L168.996 147.622C169.472 147.968 169.922 148.121 170.345 148.082C170.765 148.048 171.091 147.87 171.325 147.548C171.5 147.308 171.621 147.06 171.689 146.804C171.761 146.552 171.799 146.309 171.802 146.076C171.807 145.851 171.781 145.648 171.724 145.469C171.669 145.297 171.62 145.164 171.577 145.071L167.721 142.269C167.567 142.157 167.417 142.097 167.271 142.088C167.125 142.079 166.979 142.118 166.832 142.205C166.718 142.268 166.61 142.345 166.508 142.437C166.403 142.534 166.303 142.638 166.208 142.749L165.759 142.423L168.146 139.139L168.595 139.465C168.528 139.576 168.46 139.689 168.39 139.804C168.316 139.924 168.264 140.035 168.232 140.136C168.18 140.293 168.183 140.437 168.24 140.568C168.298 140.707 168.409 140.836 168.572 140.955L172.714 143.964C172.868 144.076 173.033 144.144 173.209 144.168C173.387 144.2 173.559 144.187 173.727 144.128C173.844 144.082 173.956 144.008 174.065 143.906C174.177 143.808 174.288 143.694 174.396 143.565L174.838 143.886L173.367 146.226L173.202 146.252L172.257 145.565L172.232 145.599C172.262 145.787 172.292 146.017 172.324 146.288C172.359 146.564 172.372 146.808 172.362 147.023C172.348 147.269 172.294 147.535 172.199 147.819C172.103 148.103 171.95 148.39 171.739 148.68C171.272 149.324 170.724 149.653 170.096 149.668C169.47 149.691 168.824 149.461 168.157 148.976L164.669 146.442C164.51 146.326 164.361 146.26 164.222 146.242C164.087 146.227 163.945 146.265 163.795 146.357C163.67 146.433 163.571 146.503 163.497 146.567C163.419 146.635 163.325 146.737 163.214 146.871L162.765 146.545Z" fill="white"/>
<path d="M134.978 166.231L139.473 164.116L139.727 164.656C139.344 164.867 139.041 165.072 138.818 165.27C138.59 165.47 138.502 165.626 138.555 165.737C138.576 165.783 138.608 165.836 138.649 165.897C138.69 165.959 138.733 166.01 138.777 166.051L140.812 168.047L144.593 166.268C144.568 165.847 144.539 165.482 144.506 165.176C144.468 164.872 144.432 164.591 144.398 164.335C144.361 164.086 144.323 163.887 144.284 163.738C144.245 163.589 144.205 163.471 144.165 163.385C144.069 163.182 143.836 163.1 143.464 163.139C143.092 163.178 142.701 163.281 142.291 163.45L142.037 162.91L146.098 160.998L146.352 161.538C146.225 161.611 146.074 161.716 145.897 161.855C145.723 161.998 145.592 162.141 145.504 162.282C145.365 162.514 145.275 162.73 145.232 162.929C145.192 163.134 145.181 163.393 145.199 163.707C145.293 165.316 145.411 167.119 145.551 169.115C145.692 171.112 145.816 172.89 145.924 174.449L145.316 174.735L137.337 167.118C137.168 166.956 137.007 166.837 136.853 166.761C136.7 166.684 136.509 166.629 136.282 166.593C136.132 166.577 135.951 166.588 135.74 166.625C135.531 166.668 135.361 166.717 135.232 166.771L134.978 166.231ZM141.405 168.595L145.009 172.009L144.645 167.071L141.405 168.595ZM144.989 177.082C145.16 176.865 145.427 176.532 145.791 176.082C146.153 175.639 146.562 175.134 147.02 174.565L147.395 174.751C147.141 175.409 146.937 175.948 146.781 176.368C146.623 176.796 146.472 177.226 146.329 177.659C146.248 177.907 146.158 178.098 146.06 178.231C145.959 178.372 145.832 178.478 145.68 178.55C145.487 178.64 145.295 178.659 145.103 178.607C144.912 178.555 144.775 178.443 144.694 178.27C144.591 178.052 144.576 177.849 144.648 177.66C144.72 177.471 144.834 177.278 144.989 177.082Z" fill="white"/>
<path d="M122.731 169.179L126.703 168.421L126.807 168.966C126.682 169.001 126.549 169.038 126.408 169.077C126.268 169.12 126.154 169.165 126.066 169.21C125.921 169.289 125.822 169.397 125.768 169.532C125.715 169.674 125.708 169.844 125.745 170.042L127.544 179.471C127.582 179.67 127.661 179.846 127.782 179.999C127.898 180.16 128.034 180.277 128.191 180.349C128.303 180.397 128.496 180.422 128.771 180.427C129.045 180.432 129.263 180.424 129.425 180.405L129.526 180.933L126.499 181.708L126.36 181.606L124.228 170.434C124.192 170.241 124.125 170.088 124.03 169.975C123.935 169.868 123.802 169.796 123.629 169.761C123.498 169.729 123.372 169.71 123.251 169.705C123.124 169.7 122.986 169.707 122.835 169.724L122.731 169.179Z" fill="white"/>
<path d="M103.341 177.316C103.595 177.288 103.841 177.21 104.08 177.085C104.312 176.965 104.52 176.736 104.704 176.4C105.081 175.671 105.471 174.91 105.875 174.115C106.279 173.326 106.699 172.497 107.135 171.626C107.263 171.375 107.403 171.078 107.553 170.734C107.699 170.389 107.835 170.058 107.961 169.74L108.616 169.781C109.064 171.129 109.478 172.357 109.858 173.465C110.237 174.578 110.632 175.717 111.041 176.883C111.137 177.147 111.306 177.357 111.549 177.513C111.786 177.674 112.029 177.782 112.278 177.837L112.243 178.39L108.418 178.15L108.455 177.562C108.623 177.567 108.835 177.544 109.091 177.493C109.346 177.447 109.478 177.368 109.485 177.257C109.486 177.24 109.475 177.194 109.451 177.12C109.427 177.051 109.404 176.971 109.382 176.88C109.189 176.295 108.914 175.477 108.559 174.427C108.204 173.377 107.915 172.531 107.691 171.888C107.46 172.356 107.17 172.939 106.823 173.636C106.471 174.332 106.09 175.111 105.682 175.973C105.617 176.12 105.555 176.257 105.497 176.382C105.438 176.513 105.404 176.646 105.396 176.78C105.39 176.875 105.432 176.962 105.523 177.041C105.607 177.125 105.712 177.199 105.837 177.263C105.962 177.327 106.085 177.377 106.207 177.413C106.328 177.448 106.428 177.474 106.505 177.49L106.471 178.027L103.308 177.828L103.341 177.316Z" fill="white"/>
<path d="M88.5466 165.737C88.8265 165.728 89.0711 165.728 89.2803 165.737C89.4859 165.739 89.7086 165.779 89.9484 165.856C90.3642 165.992 90.6661 166.196 90.8543 166.469C91.0354 166.746 91.0999 167.082 91.048 167.478L91.096 167.493C91.5671 167.222 92.0354 167.05 92.501 166.978C92.9612 166.903 93.4711 166.957 94.0307 167.139C94.6223 167.331 95.0511 167.671 95.3171 168.158C95.5778 168.643 95.6129 169.179 95.4224 169.765C95.3237 170.069 95.1927 170.327 95.0295 170.539C94.8663 170.751 94.6682 170.926 94.4353 171.062C94.2502 171.179 94.0284 171.263 93.77 171.314C93.5099 171.371 93.2718 171.406 93.0557 171.418C92.7864 171.431 92.2469 171.441 91.437 171.449C90.6218 171.455 90.0638 171.486 89.763 171.541L89.5058 172.333C89.4833 172.402 89.456 172.541 89.4239 172.748C89.3865 172.954 89.3872 173.161 89.4259 173.368C89.4685 173.599 89.5649 173.819 89.7154 174.027C89.8588 174.239 90.109 174.403 90.4661 174.519C90.7113 174.598 90.9543 174.63 91.1952 174.614C91.4291 174.602 91.6033 174.564 91.7181 174.501C91.7527 174.395 91.7798 174.23 91.7994 174.006C91.8136 173.781 91.8493 173.58 91.9064 173.405C91.9671 173.218 92.1078 173.075 92.3285 172.976C92.544 172.875 92.8009 172.873 93.0994 172.97C93.3659 173.057 93.5328 173.214 93.6001 173.442C93.6603 173.674 93.6524 173.907 93.5762 174.142C93.4965 174.387 93.335 174.594 93.0917 174.762C92.8431 174.929 92.5517 175.055 92.2174 175.141C91.929 175.212 91.5979 175.243 91.2238 175.233C90.8481 175.229 90.4977 175.174 90.1726 175.069C89.7248 174.923 89.3462 174.765 89.0365 174.593C88.7198 174.426 88.4584 174.196 88.2524 173.906C88.0446 173.62 87.9269 173.284 87.8991 172.898C87.8643 172.515 87.9335 172.058 88.1067 171.525C88.3543 170.763 88.5823 170.088 88.7905 169.502C88.997 168.921 89.2136 168.281 89.4405 167.583C89.508 167.375 89.5271 167.199 89.4976 167.053C89.4628 166.907 89.3847 166.766 89.2632 166.633C89.1988 166.559 89.0822 166.491 88.9134 166.431C88.7392 166.368 88.5615 166.307 88.3803 166.249L88.5466 165.737ZM89.9652 170.865C90.4615 170.879 90.901 170.877 91.2837 170.86C91.6664 170.843 92.0354 170.786 92.3909 170.689C92.7163 170.595 92.997 170.447 93.2329 170.247C93.4671 170.052 93.6397 169.784 93.7505 169.443C93.8942 169.001 93.8853 168.638 93.7236 168.356C93.5567 168.072 93.2946 167.872 92.9375 167.756C92.5591 167.633 92.1966 167.615 91.8499 167.703C91.5014 167.796 91.1879 167.936 90.9093 168.122L89.9652 170.865Z" fill="white"/>
<path d="M70.654 164.077C70.8071 163.836 71.0029 163.658 71.2413 163.544C71.4767 163.434 71.7174 163.458 71.9635 163.614C72.2285 163.782 72.3884 163.98 72.4433 164.207C72.4934 164.431 72.4659 164.626 72.3608 164.792C72.2947 164.896 72.2276 164.986 72.1593 165.062C72.0864 165.136 72.0158 165.21 71.9475 165.286C72.1699 165.427 72.4872 165.503 72.8994 165.512C73.3116 165.521 73.7269 165.427 74.1453 165.228L76.7307 161.154C76.8358 160.988 76.8907 160.834 76.8952 160.69C76.895 160.544 76.8428 160.402 76.7387 160.262C76.6504 160.14 76.5215 160.009 76.352 159.868C76.1777 159.724 76.025 159.604 75.8938 159.507L76.1911 159.039L79.8818 161.381L79.5845 161.849C79.4697 161.79 79.3525 161.729 79.2329 161.666C79.1086 161.601 78.9949 161.555 78.8917 161.529C78.7322 161.488 78.5886 161.5 78.461 161.565C78.3257 161.631 78.204 161.75 78.0959 161.92L75.3528 166.243C75.2598 166.389 75.2037 166.556 75.1845 166.743C75.1607 166.927 75.1833 167.101 75.2522 167.264C75.3061 167.378 75.3871 167.486 75.4951 167.587C75.6001 167.694 75.7205 167.797 75.8565 167.896L75.5637 168.358L73.1366 167.037L73.1003 166.874L73.7264 165.888L73.6909 165.865C73.1543 166.062 72.6432 166.146 72.1574 166.116C71.6717 166.087 71.2798 165.978 70.9817 165.788C70.6836 165.599 70.5038 165.349 70.4424 165.038C70.3763 164.724 70.4468 164.404 70.654 164.077Z" fill="white"/>
<path d="M58.8951 149.295C59.32 148.896 59.802 148.57 60.3412 148.317C60.8763 148.068 61.4039 147.934 61.9238 147.915C62.5154 147.89 63.0653 147.988 63.5737 148.211C64.0822 148.433 64.5531 148.775 64.9866 149.236C65.3472 149.62 65.6191 150.053 65.8022 150.534C65.9812 151.02 66.0584 151.528 66.0338 152.058C66.0095 152.581 65.876 153.106 65.6334 153.634C65.383 154.161 65.0126 154.655 64.5224 155.115C63.5787 156.001 62.5495 156.453 61.435 156.469C60.3165 156.482 59.3392 156.042 58.5029 155.152C57.7088 154.306 57.3406 153.341 57.3985 152.257C57.4485 151.172 57.9473 150.185 58.8951 149.295ZM60.0985 150.551C59.7921 150.839 59.4982 151.173 59.2166 151.553C58.931 151.936 58.7273 152.3 58.6054 152.645C58.4749 153.014 58.4338 153.376 58.4821 153.73C58.5264 154.088 58.6924 154.42 58.9801 154.727C59.2755 155.041 59.6063 155.238 59.9725 155.317C60.3349 155.392 60.7162 155.372 61.1162 155.258C61.4882 155.155 61.8584 154.98 62.2269 154.734C62.5954 154.488 62.9288 154.224 63.227 153.944C63.6192 153.576 63.954 153.204 64.2315 152.828C64.501 152.452 64.7013 152.072 64.8323 151.687C64.9633 151.303 65.0066 150.936 64.9621 150.585C64.9097 150.235 64.7377 149.904 64.4461 149.594C63.9666 149.083 63.3396 148.911 62.5653 149.077C61.7909 149.243 60.9687 149.734 60.0985 150.551Z" fill="white"/>
<path d="M44.6482 119.373L45.8942 124.226L44.6159 124.554L43.3699 119.701L44.6482 119.373Z" fill="white"/>
<path fill-rule="evenodd" clip-rule="evenodd" d="M101.721 66.3747C101.66 67.208 101.741 69.3148 101.884 70.6341C102.138 72.9757 102.767 76.2027 103.248 77.6394C103.475 78.3172 103.526 78.4147 103.712 78.5289C103.827 78.5995 103.951 78.7203 103.988 78.7973C104.112 79.0562 104.769 79.5441 105.237 79.7262C106.139 80.0767 107.036 79.8921 108.311 79.0932L109.181 78.5481L109.359 78.9233C109.457 79.1297 109.506 79.318 109.469 79.3417C109.431 79.3654 109.091 79.5078 108.711 79.6581C107.727 80.0487 106.226 81.077 105.702 81.7203C105.493 81.9772 105.328 82.2436 105.336 82.3123C105.355 82.4691 106.798 84.0456 107.125 84.2664C107.711 84.6614 108.498 84.5425 109.683 83.8801C110.459 83.4462 110.502 83.4108 110.7 83.0383C110.993 82.4857 111.179 82.3152 111.426 82.373C111.648 82.4249 111.48 82.1413 113.79 86.3731C114.512 87.6968 114.579 87.7924 115.849 89.3136C116.571 90.1783 117.4 91.1719 117.692 91.5217C117.983 91.8714 118.347 92.3057 118.499 92.4867C118.801 92.8454 118.836 92.9677 118.644 92.9979C118.445 93.0293 117.931 92.5776 116.371 91.0009C116.208 90.8358 116.07 90.7197 116.064 90.743C116.058 90.7662 116.417 91.265 116.861 91.8515C117.305 92.438 117.826 93.163 118.019 93.4626C118.679 94.4878 119.37 95.1606 120.431 95.8116C120.96 96.1361 120.982 96.1613 121.421 96.9588C121.667 97.4074 121.855 97.7835 121.837 97.7946C121.81 97.8119 121.2 97.8682 119.164 98.0414C118.965 98.0583 118.789 98.0437 118.772 98.009C118.679 97.8112 115.791 95.7836 115.395 95.6379C113.392 94.8997 111.145 93.4319 109.911 92.0551C109.325 91.4014 108.694 90.0702 108.363 88.7904C108.199 88.1561 108.075 87.823 107.918 87.5943L107.699 87.2772L107.661 88.0641C107.608 89.144 107.375 90.2029 106.99 91.1059C106.784 91.588 106.603 92.2324 106.493 92.8684C106.399 93.4197 106.299 93.9743 106.273 94.1007C106.246 94.2272 106.176 94.6691 106.117 95.0828C106.059 95.4966 105.943 95.9867 105.86 96.172C105.722 96.4836 105.069 98.0496 104.607 99.1805C104.499 99.4446 104.429 99.6671 104.452 99.6748C104.512 99.6949 105.078 99.0922 105.904 98.1283C106.295 97.6712 106.806 97.1527 107.039 96.976C107.271 96.7994 107.525 96.5358 107.603 96.3904C107.848 95.9294 108.276 95.4452 108.644 95.2115C109.102 94.9212 109.206 94.9092 109.503 95.1118C111.136 96.2235 111.852 96.7092 112.049 96.838C112.178 96.9229 112.364 97.1352 112.463 97.3097C112.573 97.5067 112.706 97.6366 112.812 97.6526C113.079 97.6928 113.181 97.5865 113.049 97.4069C112.985 97.3206 112.834 97.0939 112.714 96.9031C112.398 96.4033 112.578 96.3475 113.186 96.757C114.108 97.3782 115.165 97.9837 115.658 98.1729C116.232 98.3933 116.905 98.4664 117.118 98.3314C117.201 98.2788 117.311 98.288 117.367 98.3524C117.422 98.4159 117.931 98.9325 118.498 99.5006C119.064 100.069 119.534 100.545 119.54 100.559C119.547 100.573 119.426 100.776 119.271 101.009L118.991 101.434L119.766 101.995C120.192 102.303 120.79 102.728 121.095 102.938C121.566 103.264 121.679 103.387 121.856 103.76C121.971 104.001 122.041 104.211 122.011 104.226C121.982 104.241 121.19 104.062 120.252 103.829L118.547 103.404L116.183 101.997C114.35 100.906 113.741 100.5 113.472 100.189C113.282 99.9683 112.626 99.2752 112.015 98.6487L110.904 97.5095L109.91 97.1296L108.916 96.7497L108.569 97.0394L108.223 97.3291L108.492 98.4256L108.762 99.5219L109.961 100.351L111.16 101.181L111.441 101.774C111.596 102.099 111.703 102.378 111.679 102.394C111.655 102.409 111.24 102.344 110.757 102.25C109.711 102.047 109.149 101.998 108.775 102.078C108.516 102.133 108.492 102.162 108.39 102.544C108.33 102.768 108.303 102.995 108.328 103.049C108.354 103.104 108.946 103.625 109.644 104.209L110.912 105.269L111.473 106.555C111.91 107.555 112.077 107.873 112.226 107.989C112.62 108.295 113.794 109.701 114.099 110.233C114.377 110.717 114.404 110.799 114.32 110.913C114.157 111.136 113.947 111.044 113.454 110.535C112.904 109.968 112.548 109.744 112.309 109.816C112.189 109.852 111.979 109.73 111.587 109.395C110.907 108.815 110.772 108.863 110.868 109.652C110.894 109.862 110.862 109.847 110.496 109.479C109.815 108.791 109.4 108.658 109.461 109.146C109.476 109.263 109.678 109.814 109.91 110.37C110.632 112.103 110.732 112.407 110.605 112.487C110.399 112.618 109.812 112.413 109.267 112.021C108.972 111.809 108.711 111.646 108.687 111.659C108.564 111.73 109.38 113.578 109.78 114.136C109.905 114.31 110.003 114.47 109.998 114.492C109.992 114.513 109.828 114.517 109.633 114.501C109.166 114.46 108.374 114.66 107.717 114.984C107.27 115.203 107.12 115.233 106.764 115.171C106.531 115.13 106.23 115.139 106.094 115.19C105.814 115.296 105.353 115.123 104.271 114.505C102.867 113.702 101.983 112.809 101.421 111.625C101.242 111.246 100.799 110.543 100.316 109.868L99.5096 108.742L99.4324 108.17C99.3899 107.856 99.3591 107.388 99.364 107.132C99.3757 106.517 99.7468 105.055 100.031 104.507L100.256 104.07L100.024 104.125C99.8957 104.156 99.3607 104.449 98.835 104.778C97.4984 105.613 96.6701 106.455 95.3205 108.352L94.6522 109.291L93.9224 109.302C91.0761 109.345 89.8159 111.51 89.8862 116.237C89.894 116.766 89.9321 117.426 89.9706 117.704C90.0092 117.982 90.1183 118.874 90.2131 119.687L90.3854 121.163L89.9699 121.493C89.5444 121.832 89.2892 122.181 89.2361 122.499C89.2171 122.613 89.0916 122.752 88.8929 122.881C88.5054 123.132 88.2296 123.484 88.0467 123.961C87.9143 124.306 87.8872 124.332 87.5572 124.425C87.2389 124.516 87.1932 124.554 87.0426 124.861C86.9518 125.047 86.8819 125.374 86.8875 125.587C86.8931 125.802 86.8525 126.057 86.7974 126.154C86.6104 126.486 86.4236 127.24 86.4336 127.624C86.4391 127.834 86.51 128.276 86.5912 128.606C86.6913 129.012 86.7222 129.441 86.687 129.938C86.6585 130.341 86.6611 130.68 86.6928 130.691C86.7245 130.701 86.9134 130.548 87.1126 130.349C87.4064 130.057 87.5612 129.959 87.931 129.83C88.742 129.548 89.2995 128.957 89.6477 128.012C89.7252 127.801 89.8607 127.583 89.9489 127.528C90.0371 127.472 90.2962 127.241 90.5246 127.015C91.2439 126.303 91.3629 125.53 90.9048 124.543C90.7247 124.155 90.7123 124.076 90.8197 124.008C91.0374 123.87 91.2785 123.137 91.336 122.437C91.3665 122.067 91.3675 121.132 91.3383 120.36C91.309 119.588 91.3055 118.793 91.3305 118.594C91.391 118.115 91.5358 118.029 91.6997 118.374C91.8812 118.756 92.6466 121.061 92.98 122.229C93.5123 124.095 93.9992 124.927 95.6222 126.744C96.6074 127.847 96.6407 127.9 97.9677 130.475C98.6234 131.748 99.3713 133.184 99.6297 133.668L100.099 134.546L99.8705 135.97C99.7446 136.754 99.6383 137.413 99.6345 137.435C99.6306 137.457 99.5304 137.463 99.4119 137.448C98.9036 137.384 98.8332 137.796 99.1827 138.791C99.3032 139.134 99.4674 139.919 99.5645 140.615C99.6581 141.287 99.8366 142.218 99.9611 142.683C100.242 143.735 100.37 144.777 100.35 145.85C100.311 147.94 100.349 148.144 100.779 148.132C101.153 148.122 101.292 148.463 101.304 149.417C101.315 150.254 101.556 151.088 101.878 151.401C102.052 151.57 102.055 151.569 102.722 151.147C103.298 150.782 103.425 150.666 103.637 150.312C103.773 150.087 103.927 149.721 103.979 149.501L104.074 149.099L103.701 148.69C103.496 148.464 103.288 148.195 103.238 148.09C103.189 147.986 103.033 147.861 102.892 147.814L102.636 147.728L102.611 147.153C102.554 145.889 102.161 144.145 101.726 143.227C101.537 142.829 101.538 142.822 101.795 141.975C102.185 140.689 102.287 139.64 102.156 138.291C102.136 138.083 102.206 137.71 102.328 137.378C103.328 134.659 103.72 131.832 103.786 126.84C103.801 125.706 103.915 125.444 104.363 125.516C104.599 125.554 104.662 125.62 104.967 126.15C105.154 126.476 105.493 127.223 105.721 127.811C105.948 128.398 106.392 129.374 106.708 129.979L107.281 131.08L107.253 132.035C107.238 132.56 107.245 133.031 107.269 133.082C107.343 133.239 108.094 133.78 108.904 134.26C109.35 134.524 110.157 134.877 110.82 135.098C111.796 135.424 112.041 135.547 112.488 135.932C113.128 136.484 113.886 137.388 114.309 138.103C114.482 138.397 114.756 138.758 114.918 138.904L115.211 139.169L115.315 138.78C115.507 138.059 115.791 138.149 116.192 139.057C116.606 139.993 117.508 140.499 117.87 139.998C117.953 139.882 118.215 139.671 118.453 139.528C118.691 139.386 118.988 139.148 119.115 139C119.343 138.732 119.506 138.159 119.41 137.959C119.383 137.902 119.435 137.759 119.526 137.643C119.617 137.526 119.664 137.375 119.631 137.305C119.575 137.186 118.974 136.815 118.012 136.304C117.745 136.163 117.514 136.107 117.385 136.153C117.104 136.254 116.929 136.161 116.478 135.673C116.154 135.322 115.978 135.217 115.407 135.033C114.502 134.741 113.354 134.132 112.686 133.59C111.83 132.896 110.812 131.817 110.519 131.295C110.289 130.887 110.255 130.759 110.254 130.301C110.253 130.011 110.425 129.045 110.636 128.152C111.065 126.339 111.172 125.415 111.074 124.363C111.037 123.954 111.051 123.591 111.107 123.514C111.271 123.289 111.731 123.127 112.953 122.863C113.593 122.725 114.282 122.56 114.484 122.496C114.926 122.356 116.155 121.591 116.325 121.35C116.885 120.553 117.252 120.213 118.279 119.537C119.172 118.949 119.367 118.789 119.617 118.439C120.346 117.418 120.844 116.912 121.602 116.424L122.194 116.043L122.89 116.286C124.222 116.751 125.183 116.824 126.529 116.562C126.991 116.472 127.409 116.412 127.459 116.428C127.509 116.445 127.666 116.834 127.811 117.299C127.955 117.762 128.146 118.347 128.236 118.599L128.398 119.057L128.476 118.779C128.594 118.362 128.694 118.351 128.876 118.734C129.048 119.097 129.271 119.263 129.762 119.398C130.191 119.515 130.286 119.394 130.123 118.937C129.998 118.586 130.003 118.552 130.199 118.398C130.374 118.26 130.436 118.259 130.571 118.392C130.66 118.48 130.766 118.531 130.806 118.505C130.926 118.429 130.83 117.642 130.604 116.849C130.4 116.133 130.399 116.103 130.578 115.99C130.68 115.925 130.786 115.88 130.813 115.889C130.841 115.898 130.974 116.21 131.108 116.581C131.634 118.031 131.538 118.99 130.762 120.053C130.521 120.383 130.292 120.673 130.253 120.698C130.214 120.722 129.829 120.736 129.397 120.729C128.299 120.709 128.257 120.757 128.908 121.286L129.294 121.6L129.349 122.21C129.487 123.718 129.807 124.84 130.372 125.796C130.46 125.946 130.492 126.145 130.465 126.378L130.424 126.732L130.974 126.921C131.504 127.104 131.532 127.127 131.731 127.546C131.844 127.785 132.095 128.154 132.288 128.366C132.481 128.578 132.723 128.856 132.827 128.984C133.065 129.279 133.354 129.211 134.054 128.694C134.745 128.185 135.599 126.934 135.459 126.635C135.308 126.313 133.679 125.463 133.265 125.49C133.008 125.507 132.991 125.491 132.914 125.175C132.789 124.659 132.591 124.29 131.986 123.445C131.325 122.521 130.846 121.451 130.86 120.93C130.874 120.418 131.297 119.874 131.604 119.972C132.083 120.125 132.343 120.089 132.784 119.809C133.193 119.55 133.228 119.508 133.182 119.327C132.481 116.555 132.215 114.463 132.279 112.215C132.294 111.691 132.264 111.026 132.213 110.738C132.126 110.246 132.094 110.177 131.701 109.63C131.47 109.309 131.087 108.733 130.849 108.349C129.94 106.878 129.112 105.793 127.775 104.324C126.937 103.402 127.025 103.589 126.694 102.031C126.285 100.102 125.65 98.4409 123.546 93.7951C122.555 91.6053 122.023 90.2583 121.553 88.7408L121.374 88.1636L122.044 87.739C122.697 87.325 122.715 87.3068 122.744 87.0137C122.779 86.6669 122.66 85.9686 122.435 85.2057C122.186 84.359 122.185 84.3791 122.473 84.3038C122.612 84.2675 122.896 84.1298 123.104 83.9976C123.539 83.7217 123.651 83.4706 123.578 82.9327C123.545 82.6858 123.573 82.5747 123.687 82.5026C123.918 82.3563 124.102 82.0286 124.067 81.8258C124.05 81.7267 123.924 81.5126 123.786 81.3503C123.612 81.1445 123.466 80.8605 123.304 80.4137C122.898 79.2963 122.64 78.7952 122.434 78.7258C122.295 78.6792 122.262 78.6908 122.301 78.7727C122.329 78.8326 122.335 78.9694 122.313 79.0765C122.279 79.2403 122.214 79.2922 121.909 79.4014C121.474 79.5566 121.252 79.7756 121.175 80.1241C121.144 80.2656 121.103 80.3719 121.083 80.3603C121.063 80.3487 120.932 80.2392 120.791 80.117C120.643 79.9898 120.352 79.8712 120.108 79.8394C119.715 79.7882 119.67 79.758 119.52 79.4425C119.373 79.1316 119.35 79.1155 119.267 79.2625C119.217 79.3512 119.165 79.6393 119.15 79.9026C119.136 80.1658 119.108 80.3919 119.088 80.405C119.067 80.4181 119.005 80.3005 118.95 80.1438C118.826 79.7903 118.294 79.1653 117.906 78.9169C117.483 78.6466 116.423 78.3091 116.28 78.3997C116.116 78.5039 116.4 79.3299 116.745 79.7515C117.03 80.0987 117.563 80.4511 117.686 80.3732C117.827 80.2834 118.468 80.4624 118.667 80.6473C118.812 80.7821 118.866 80.8989 118.909 81.1786C118.992 81.7069 118.893 81.8477 118.419 81.8748C117.858 81.907 117.754 81.9962 117.857 82.3591C117.969 82.7538 117.866 83.3112 117.609 83.708C117.331 84.1375 116.562 84.62 115.743 84.8782C115.391 84.9893 115.095 85.0854 115.084 85.0919C115.074 85.0983 115.215 85.3777 115.396 85.7127C115.597 86.0828 115.7 86.3385 115.66 86.3641C115.547 86.4358 114.275 85.3065 113.609 84.5436C112.988 83.8315 112.964 83.7921 112.248 82.2749C111.491 80.6717 111.354 80.2941 111.496 80.206C111.543 80.1774 111.708 80.2335 111.864 80.3307C112.125 80.4929 112.176 80.4901 112.481 80.2968C112.809 80.0889 112.813 80.0797 112.798 79.6149C112.781 79.0755 112.973 78.6786 113.407 78.3579C113.604 78.2119 113.678 78.104 113.659 77.9897C113.563 77.4249 114.442 77.8378 115.42 78.817C115.532 78.9289 115.658 78.9985 115.701 78.9715C115.925 78.8292 115.686 77.882 115.326 77.4901C115.138 77.2857 115.095 77.1729 115.028 76.7125C114.985 76.4162 114.928 76.1876 114.902 76.2043C114.777 76.2843 114.572 76.8326 114.602 77.0064C114.628 77.1592 114.606 77.1956 114.501 77.1722C114.257 77.1178 113.597 76.6611 113.298 76.3401C113.137 76.167 112.918 75.9882 112.812 75.9429C112.706 75.8976 112.54 75.7729 112.443 75.6657C112.282 75.4887 112.209 75.4873 111.65 75.651C111.311 75.7503 111.022 75.7952 111.008 75.7509C110.705 74.795 110.73 74.8302 110.176 74.5702C109.586 74.2935 109.312 73.9117 109.484 73.6057C109.537 73.5124 110.037 73.1493 110.639 72.7679C111.89 71.9745 112.042 71.9367 112.907 72.2026C113.234 72.3032 113.551 72.3539 113.612 72.3154C113.673 72.2769 113.753 72.1033 113.791 71.9296C113.86 71.6116 113.827 71.5289 113.407 70.9528C113.136 70.5817 111.655 71.1248 110.6 71.9819C110.139 72.357 109.973 72.4517 109.685 72.5064C108.902 72.6548 108.535 73.183 108.584 74.0876L108.615 74.6534L108.202 74.9864C107.32 75.6973 105.769 76.445 105.264 76.4035C104.928 76.3759 104.65 75.993 104.511 75.3671C104.446 75.0746 104.272 74.3592 104.125 73.7776C103.977 73.1959 103.705 72.102 103.521 71.3466C103.337 70.5912 103.024 69.3159 102.827 68.5125C102.63 67.7091 102.397 66.761 102.31 66.4057C102.048 65.3337 101.798 65.3205 101.721 66.3747ZM117.88 59.1989C117.949 59.3414 117.967 59.3446 117.975 59.2154C117.988 59.0088 117.948 58.9254 117.863 58.9794C117.826 59.0031 117.833 59.1019 117.88 59.1989ZM118.175 59.8557C118.173 59.9133 118.327 60.3456 118.516 60.8165C118.977 61.9643 119.553 63.9111 119.699 64.8181C119.946 66.3486 119.843 67.657 119.408 68.4975L119.207 68.8858L119.471 68.9503C119.834 69.0391 119.832 69.2418 119.466 69.6639C118.851 70.3727 118.671 70.4909 118.329 70.4116C117.974 70.3294 117.761 70.4328 117.623 70.7544C117.535 70.9631 117.516 70.9729 117.367 70.892C117.175 70.7883 117.184 70.6107 117.394 70.386C117.598 70.1674 117.526 70.0907 117.072 70.0424C116.513 69.9829 116.166 70.048 115.933 70.2555C115.748 70.4203 115.708 70.4159 115.443 70.2005C115.09 69.9138 114.768 69.8584 114.381 70.0177L114.086 70.1389L114.496 70.3311C115.034 70.5839 115.202 70.7185 115.337 71.0032C115.417 71.1707 115.496 71.2284 115.611 71.2022C115.874 71.1422 116.747 71.7343 116.914 72.087C116.993 72.2528 117.163 72.4864 117.293 72.6061C117.571 72.8621 117.749 73.2053 117.751 73.4916C117.754 73.8653 117.674 74.1394 117.535 74.2291C117.22 74.4324 117.275 74.54 117.858 74.8563C118.172 75.0264 118.62 75.3381 118.856 75.5492C119.589 76.2067 119.593 76.2092 119.771 76.0636C119.964 75.9051 119.968 75.3668 119.781 74.8203C119.715 74.6254 119.679 74.3691 119.701 74.2508C119.748 74.0027 119.486 73.4383 119.237 73.2505C119.149 73.1844 119.082 73.1109 119.088 73.0875C119.094 73.064 119.355 72.8144 119.668 72.5326C121.008 71.3276 121.414 69.6113 120.982 66.9777C120.725 65.4128 119.872 62.8314 119.038 61.0992C118.663 60.3195 118.183 59.6284 118.175 59.8557ZM119.018 110.462C119.296 111.049 121.506 111.447 123.81 111.326C124.428 111.293 125.034 111.236 125.158 111.198C125.477 111.1 126.442 111.413 126.395 111.6C126.368 111.707 126.21 111.782 125.741 111.912C124.986 112.12 124.778 112.237 124.918 112.374C124.973 112.428 125.041 112.521 125.07 112.58C125.098 112.641 125.264 112.649 125.447 112.597C125.626 112.547 126.01 112.556 126.301 112.618C127.286 112.827 129.174 112.843 129.144 112.642C129.135 112.585 129.138 112.449 129.151 112.339C129.171 112.159 129.238 112.18 129.873 112.568C130.58 113 131.316 113.271 131.488 113.162C131.628 113.073 131.64 112.861 131.534 112.39C131.482 112.156 131.462 111.951 131.49 111.933C131.519 111.915 131.53 111.77 131.515 111.612C131.491 111.36 131.445 111.29 131.148 111.051C130.835 110.799 130.699 110.773 129.349 110.707L127.888 110.636L126.444 109.934C124.849 109.158 123.434 108.623 122.839 108.571C122.466 108.539 122.413 108.561 121.399 109.175C120.587 109.667 120.213 109.849 119.759 109.971C118.992 110.178 118.909 110.233 119.018 110.462Z" fill="white"/>
</g>
</svg>
