<svg width="20" height="21" viewBox="0 0 20 21" fill="none" xmlns="http://www.w3.org/2000/svg">
<path d="M7.51426 20.1257C8.36351 20.1257 9.05196 19.4373 9.05196 18.5881C9.05196 17.7388 8.36351 17.0504 7.51426 17.0504C6.66501 17.0504 5.97656 17.7388 5.97656 18.5881C5.97656 19.4373 6.66501 20.1257 7.51426 20.1257Z" fill="#232323"/>
<path d="M16.8565 20.1257C17.7058 20.1257 18.3942 19.4373 18.3942 18.5881C18.3942 17.7388 17.7058 17.0504 16.8565 17.0504C16.0073 17.0504 15.3188 17.7388 15.3188 18.5881C15.3188 19.4373 16.0073 20.1257 16.8565 20.1257Z" fill="#232323"/>
<path d="M12.1992 3.0403C12.168 2.81381 12.152 2.5855 12.1513 2.35688C12.152 2.12827 12.168 1.89995 12.1992 1.67346H4.25487L4.6991 3.0403H12.1992Z" fill="#232323"/>
<path d="M18.4949 9.12506H18.2078L17.7656 11.2414H7.51429L4.39106 1.35227C4.35727 1.24734 4.29861 1.15214 4.22007 1.07478C4.14152 0.997432 4.04543 0.940228 3.94 0.908051L1.13797 0.0469404C1.05181 0.0204647 0.961285 0.0112184 0.871553 0.0197293C0.781821 0.0282403 0.694645 0.0543419 0.615001 0.0965438C0.454152 0.181774 0.333749 0.327411 0.280279 0.501415C0.226809 0.67542 0.244652 0.863538 0.329882 1.02439C0.415113 1.18524 0.56075 1.30564 0.734754 1.35911L3.18823 2.11087L6.32514 12.0205L5.20433 12.9363L5.11548 13.0251C4.83824 13.3446 4.6811 13.7508 4.67112 14.1737C4.66114 14.5966 4.79895 15.0097 5.06081 15.3419C5.24708 15.5684 5.48378 15.7482 5.75198 15.8669C6.02017 15.9856 6.31242 16.0398 6.60534 16.0253H18.0116C18.1929 16.0253 18.3667 15.9533 18.4949 15.8252C18.6231 15.697 18.6951 15.5232 18.6951 15.3419C18.6951 15.1606 18.6231 14.9868 18.4949 14.8586C18.3667 14.7305 18.1929 14.6585 18.0116 14.6585H6.49599C6.41729 14.6558 6.34062 14.6329 6.27337 14.5919C6.20613 14.5509 6.15059 14.4933 6.11211 14.4246C6.07364 14.3559 6.05353 14.2784 6.05373 14.1997C6.05394 14.1209 6.07445 14.0436 6.11328 13.9751L7.76032 12.6082H18.3123C18.4703 12.6121 18.6248 12.5611 18.7494 12.4639C18.874 12.3667 18.961 12.2293 18.9958 12.0751L19.6567 8.99521C19.2756 9.0826 18.8858 9.12617 18.4949 9.12506Z" fill="#232323"/>
</svg>
