<svg width="20" height="21" viewBox="0 0 20 21" fill="none" xmlns="http://www.w3.org/2000/svg">
<path d="M7.51438 20.1258C8.36363 20.1258 9.05208 19.4373 9.05208 18.5881C9.05208 17.7388 8.36363 17.0504 7.51438 17.0504C6.66514 17.0504 5.97668 17.7388 5.97668 18.5881C5.97668 19.4373 6.66514 20.1258 7.51438 20.1258Z" fill="white"/>
<path d="M16.8568 20.1258C17.706 20.1258 18.3945 19.4373 18.3945 18.5881C18.3945 17.7388 17.706 17.0504 16.8568 17.0504C16.0075 17.0504 15.3191 17.7388 15.3191 18.5881C15.3191 19.4373 16.0075 20.1258 16.8568 20.1258Z" fill="white"/>
<path d="M12.1989 3.04033C12.1678 2.81384 12.1518 2.58553 12.1511 2.35691C12.1518 2.1283 12.1678 1.89998 12.1989 1.67349H4.25463L4.69885 3.04033H12.1989Z" fill="white"/>
<path d="M18.4949 9.12509H18.2078L17.7656 11.2414H7.51429L4.39106 1.3523C4.35727 1.24737 4.29861 1.15217 4.22007 1.07482C4.14152 0.997463 4.04543 0.940258 3.94 0.908081L1.13797 0.0469709C1.05181 0.0204952 0.961285 0.0112489 0.871553 0.0197599C0.781821 0.0282708 0.694645 0.0543724 0.615001 0.0965743C0.454152 0.181805 0.333749 0.327442 0.280279 0.501446C0.226809 0.67545 0.244652 0.863569 0.329882 1.02442C0.415113 1.18527 0.56075 1.30567 0.734754 1.35914L3.18823 2.1109L6.32514 12.0205L5.20433 12.9363L5.11548 13.0251C4.83824 13.3446 4.6811 13.7508 4.67112 14.1737C4.66114 14.5966 4.79895 15.0097 5.06081 15.3419C5.24708 15.5685 5.48378 15.7482 5.75198 15.8669C6.02017 15.9856 6.31242 16.0398 6.60534 16.0254H18.0116C18.1929 16.0254 18.3667 15.9533 18.4949 15.8252C18.6231 15.697 18.6951 15.5232 18.6951 15.3419C18.6951 15.1607 18.6231 14.9868 18.4949 14.8587C18.3667 14.7305 18.1929 14.6585 18.0116 14.6585H6.49599C6.41729 14.6558 6.34062 14.6329 6.27337 14.5919C6.20613 14.5509 6.15059 14.4933 6.11211 14.4246C6.07364 14.3559 6.05353 14.2784 6.05373 14.1997C6.05394 14.121 6.07445 14.0436 6.11328 13.9751L7.76032 12.6082H18.3123C18.4703 12.6121 18.6248 12.5611 18.7494 12.4639C18.874 12.3667 18.961 12.2293 18.9958 12.0752L19.6567 8.99524C19.2756 9.08263 18.8858 9.1262 18.4949 9.12509Z" fill="white"/>
</svg>
