<svg width="24" height="15" viewBox="0 0 24 15" fill="none" xmlns="http://www.w3.org/2000/svg">
<path d="M1.14075 2.03149C0.786872 2.03149 0.5 1.74462 0.5 1.39075C0.5 1.03687 0.786872 0.75 1.14075 0.75H22.9262C23.28 0.75 23.5669 1.03687 23.5669 1.39075C23.5669 1.74462 23.28 2.03149 22.9262 2.03149H1.14075ZM1.14075 8.43897C0.786872 8.43897 0.5 8.1521 0.5 7.79822C0.5 7.44435 0.786872 7.15747 1.14075 7.15747H22.9262C23.28 7.15747 23.5669 7.44435 23.5669 7.79822C23.5669 8.1521 23.28 8.43897 22.9262 8.43897H1.14075ZM1.14075 14.8464C0.786872 14.8464 0.5 14.5596 0.5 14.2057C0.5 13.8518 0.786872 13.5649 1.14075 13.5649H22.9262C23.28 13.5649 23.5669 13.8518 23.5669 14.2057C23.5669 14.5596 23.28 14.8464 22.9262 14.8464H1.14075Z" fill="#232323"/>
</svg>
