<svg width="24" height="15" viewBox="0 0 24 15" fill="none" xmlns="http://www.w3.org/2000/svg">
<path d="M1.14075 2.03153C0.786872 2.03153 0.5 1.74465 0.5 1.39078C0.5 1.0369 0.786872 0.750031 1.14075 0.750031H22.9262C23.28 0.750031 23.5669 1.0369 23.5669 1.39078C23.5669 1.74465 23.28 2.03153 22.9262 2.03153H1.14075ZM1.14075 8.439C0.786872 8.439 0.5 8.15213 0.5 7.79825C0.5 7.44438 0.786872 7.15751 1.14075 7.15751H22.9262C23.28 7.15751 23.5669 7.44438 23.5669 7.79825C23.5669 8.15213 23.28 8.439 22.9262 8.439H1.14075ZM1.14075 14.8465C0.786872 14.8465 0.5 14.5596 0.5 14.2057C0.5 13.8519 0.786872 13.565 1.14075 13.565H22.9262C23.28 13.565 23.5669 13.8519 23.5669 14.2057C23.5669 14.5596 23.28 14.8465 22.9262 14.8465H1.14075Z" fill="white"/>
</svg>
