<svg width="98" height="98" viewBox="0 0 98 98" fill="none" xmlns="http://www.w3.org/2000/svg">
<g clip-path="url(#clip0_194_375)">
<path d="M14.2644 84.9644C9.4889 80.3521 5.67979 74.8348 3.05934 68.7346C0.43889 62.6344 -0.940421 56.0734 -0.998112 49.4345C-1.0558 42.7955 0.209282 36.2115 2.72333 30.0667C5.23737 23.9219 8.95003 18.3393 13.6447 13.6447C18.3393 8.95003 23.9219 5.23737 30.0667 2.72333C36.2115 0.209282 42.7955 -1.0558 49.4345 -0.998112C56.0734 -0.940421 62.6344 0.43889 68.7346 3.05934C74.8348 5.67979 80.3521 9.4889 84.9644 14.2644C94.0723 23.6945 99.112 36.3246 98.9981 49.4345C98.8842 62.5443 93.6257 75.0849 84.3553 84.3553C75.0849 93.6257 62.5443 98.8842 49.4345 98.9981C36.3246 99.112 23.6945 94.0723 14.2644 84.9644ZM34.6144 29.6144V69.6144H44.6144V29.6144H34.6144ZM54.6144 29.6144V69.6144H64.6144V29.6144H54.6144Z" fill="white"/>
</g>
<defs>
<clipPath id="clip0_194_375">
<rect width="98" height="98" fill="white"/>
</clipPath>
</defs>
</svg>
