<svg width="129" height="24" viewBox="0 0 129 24" fill="none" xmlns="http://www.w3.org/2000/svg">
<path d="M17.938 14.32C17.679 14.571 17.56 14.934 17.619 15.29L18.508 20.21C18.583 20.627 18.407 21.049 18.058 21.29C17.716 21.54 17.261 21.57 16.888 21.37L12.459 19.06C12.305 18.978 12.134 18.934 11.959 18.929H11.688C11.594 18.943 11.502 18.973 11.418 19.019L6.98798 21.34C6.76898 21.45 6.52098 21.489 6.27798 21.45C5.68598 21.338 5.29098 20.774 5.38798 20.179L6.27798 15.259C6.33698 14.9 6.21798 14.535 5.95898 14.28L2.34798 10.78C2.04598 10.487 1.94098 10.047 2.07898 9.65C2.21298 9.254 2.55498 8.965 2.96798 8.9L7.93798 8.179C8.31598 8.14 8.64798 7.91 8.81798 7.57L11.008 3.08C11.06 2.98 11.127 2.888 11.208 2.81L11.298 2.74C11.345 2.688 11.399 2.645 11.459 2.61L11.568 2.57L11.738 2.5H12.159C12.535 2.539 12.866 2.764 13.039 3.1L15.258 7.57C15.418 7.897 15.729 8.124 16.088 8.179L21.058 8.9C21.478 8.96 21.829 9.25 21.968 9.65C22.099 10.051 21.986 10.491 21.678 10.78L17.938 14.32Z" fill="url(#paint0_linear_2147_1085)"/>
<path d="M43.938 14.32C43.679 14.571 43.56 14.934 43.619 15.29L44.508 20.21C44.583 20.627 44.407 21.049 44.058 21.29C43.716 21.54 43.261 21.57 42.888 21.37L38.459 19.06C38.305 18.978 38.134 18.934 37.959 18.929H37.688C37.594 18.943 37.502 18.973 37.418 19.019L32.988 21.34C32.769 21.45 32.521 21.489 32.278 21.45C31.686 21.338 31.291 20.774 31.388 20.179L32.278 15.259C32.337 14.9 32.218 14.535 31.959 14.28L28.348 10.78C28.046 10.487 27.941 10.047 28.079 9.65C28.213 9.254 28.555 8.965 28.968 8.9L33.938 8.179C34.316 8.14 34.648 7.91 34.818 7.57L37.008 3.08C37.06 2.98 37.127 2.888 37.208 2.81L37.298 2.74C37.345 2.688 37.399 2.645 37.459 2.61L37.568 2.57L37.738 2.5H38.159C38.535 2.539 38.866 2.764 39.039 3.1L41.258 7.57C41.418 7.897 41.729 8.124 42.088 8.179L47.058 8.9C47.478 8.96 47.829 9.25 47.968 9.65C48.099 10.051 47.986 10.491 47.678 10.78L43.938 14.32Z" fill="url(#paint1_linear_2147_1085)"/>
<path d="M69.938 14.32C69.679 14.571 69.56 14.934 69.619 15.29L70.508 20.21C70.583 20.627 70.407 21.049 70.058 21.29C69.716 21.54 69.261 21.57 68.888 21.37L64.459 19.06C64.305 18.978 64.134 18.934 63.959 18.929H63.688C63.594 18.943 63.502 18.973 63.418 19.019L58.988 21.34C58.769 21.45 58.521 21.489 58.278 21.45C57.686 21.338 57.291 20.774 57.388 20.179L58.278 15.259C58.337 14.9 58.218 14.535 57.959 14.28L54.348 10.78C54.046 10.487 53.941 10.047 54.079 9.65C54.213 9.254 54.555 8.965 54.968 8.9L59.938 8.179C60.316 8.14 60.648 7.91 60.818 7.57L63.008 3.08C63.06 2.98 63.127 2.888 63.208 2.81L63.298 2.74C63.345 2.688 63.399 2.645 63.459 2.61L63.568 2.57L63.738 2.5H64.159C64.535 2.539 64.866 2.764 65.039 3.1L67.258 7.57C67.418 7.897 67.729 8.124 68.088 8.179L73.058 8.9C73.478 8.96 73.829 9.25 73.968 9.65C74.099 10.051 73.986 10.491 73.678 10.78L69.938 14.32Z" fill="url(#paint2_linear_2147_1085)"/>
<path d="M95.938 14.32C95.679 14.571 95.56 14.934 95.619 15.29L96.508 20.21C96.583 20.627 96.407 21.049 96.058 21.29C95.716 21.54 95.261 21.57 94.888 21.37L90.459 19.06C90.305 18.978 90.134 18.934 89.959 18.929H89.688C89.594 18.943 89.502 18.973 89.418 19.019L84.988 21.34C84.769 21.45 84.521 21.489 84.278 21.45C83.686 21.338 83.291 20.774 83.388 20.179L84.278 15.259C84.337 14.9 84.218 14.535 83.959 14.28L80.348 10.78C80.046 10.487 79.941 10.047 80.079 9.65C80.213 9.254 80.555 8.965 80.968 8.9L85.938 8.179C86.316 8.14 86.648 7.91 86.818 7.57L89.008 3.08C89.06 2.98 89.127 2.888 89.208 2.81L89.298 2.74C89.345 2.688 89.399 2.645 89.459 2.61L89.568 2.57L89.738 2.5H90.159C90.535 2.539 90.866 2.764 91.039 3.1L93.258 7.57C93.418 7.897 93.729 8.124 94.088 8.179L99.058 8.9C99.478 8.96 99.829 9.25 99.968 9.65C100.099 10.051 99.986 10.491 99.678 10.78L95.938 14.32Z" fill="url(#paint3_linear_2147_1085)"/>
<path d="M121.938 14.32C121.679 14.571 121.56 14.934 121.619 15.29L122.508 20.21C122.583 20.627 122.407 21.049 122.058 21.29C121.716 21.54 121.261 21.57 120.888 21.37L116.459 19.06C116.305 18.978 116.134 18.934 115.959 18.929H115.688C115.594 18.943 115.502 18.973 115.418 19.019L110.988 21.34C110.769 21.45 110.521 21.489 110.278 21.45C109.686 21.338 109.291 20.774 109.388 20.179L110.278 15.259C110.337 14.9 110.218 14.535 109.959 14.28L106.348 10.78C106.046 10.487 105.941 10.047 106.079 9.65C106.213 9.254 106.555 8.965 106.968 8.9L111.938 8.179C112.316 8.14 112.648 7.91 112.818 7.57L115.008 3.08C115.06 2.98 115.127 2.888 115.208 2.81L115.298 2.74C115.345 2.688 115.399 2.645 115.459 2.61L115.568 2.57L115.738 2.5H116.159C116.535 2.539 116.866 2.764 117.039 3.1L119.258 7.57C119.418 7.897 119.729 8.124 120.088 8.179L125.058 8.9C125.478 8.96 125.829 9.25 125.968 9.65C126.099 10.051 125.986 10.491 125.678 10.78L121.938 14.32Z" stroke="url(#paint4_linear_2147_1085)"/>
<defs>
<linearGradient id="paint0_linear_2147_1085" x1="3.55084" y1="15.6652" x2="22.0227" y2="15.5987" gradientUnits="userSpaceOnUse">
<stop offset="0.120833" stop-color="#974900"/>
<stop offset="0.917665" stop-color="#FFE476"/>
</linearGradient>
<linearGradient id="paint1_linear_2147_1085" x1="29.5508" y1="15.6652" x2="48.0227" y2="15.5987" gradientUnits="userSpaceOnUse">
<stop offset="0.120833" stop-color="#974900"/>
<stop offset="0.917665" stop-color="#FFE476"/>
</linearGradient>
<linearGradient id="paint2_linear_2147_1085" x1="55.5508" y1="15.6652" x2="74.0227" y2="15.5987" gradientUnits="userSpaceOnUse">
<stop offset="0.120833" stop-color="#974900"/>
<stop offset="0.917665" stop-color="#FFE476"/>
</linearGradient>
<linearGradient id="paint3_linear_2147_1085" x1="81.5508" y1="15.6652" x2="100.023" y2="15.5987" gradientUnits="userSpaceOnUse">
<stop offset="0.120833" stop-color="#974900"/>
<stop offset="0.917665" stop-color="#FFE476"/>
</linearGradient>
<linearGradient id="paint4_linear_2147_1085" x1="107.551" y1="15.6652" x2="126.023" y2="15.5987" gradientUnits="userSpaceOnUse">
<stop offset="0.120833" stop-color="#974900"/>
<stop offset="0.917665" stop-color="#FFE476"/>
</linearGradient>
</defs>
</svg>
