<svg width="56" height="65" viewBox="0 0 56 65" fill="none" xmlns="http://www.w3.org/2000/svg">
<path fill-rule="evenodd" clip-rule="evenodd" d="M38.6984 1.35527C38.3107 1.93938 37.5299 3.52533 37.1197 4.56175C36.3918 6.40125 35.6244 9.06579 35.454 10.346C35.3735 10.9499 35.3774 11.0452 35.4892 11.2158C35.5582 11.3211 35.615 11.4678 35.6154 11.5416C35.6168 11.79 35.9774 12.4542 36.3018 12.8063C36.9269 13.4844 37.7626 13.7664 39.1677 13.7733L40.1264 13.7781V14.1368C40.1264 14.3342 40.0926 14.4956 40.0512 14.4956C40.0099 14.4956 39.6631 14.4415 39.2805 14.3753C38.2864 14.2034 36.5971 14.2598 35.8927 14.4885C35.6113 14.5798 35.3641 14.6989 35.3433 14.7531C35.2958 14.877 35.8861 16.7082 36.0752 17.023C36.4131 17.5861 37.1295 17.8654 38.4032 17.9309C39.2376 17.9737 39.2883 17.9676 39.6064 17.786C40.0784 17.5165 40.3052 17.478 40.4917 17.6356C40.6589 17.7769 40.631 17.4905 40.8866 21.6768C40.9665 22.9863 40.9848 23.0878 41.45 24.7974C41.7145 25.7693 42.0182 26.886 42.1248 27.2789C42.2314 27.6717 42.365 28.1602 42.4215 28.3643C42.5336 28.7688 42.5138 28.8749 42.3388 28.8077C42.1566 28.7378 41.9021 28.1663 41.2133 26.2809C41.1412 26.0835 41.0705 25.9337 41.0561 25.948C41.0418 25.9624 41.1452 26.4961 41.286 27.134C41.4268 27.7721 41.5772 28.5478 41.6204 28.858C41.7679 29.9191 42.0835 30.7355 42.7223 31.7084C43.0406 32.1932 43.0489 32.222 43.1 33.0125C43.1287 33.4571 43.1362 33.8208 43.1168 33.8208C43.0867 33.8208 42.5463 33.5782 40.7468 32.7566C40.571 32.6764 40.4272 32.5835 40.4272 32.5503C40.4272 32.3612 38.7918 29.5253 38.5146 29.2339C37.1109 27.7581 35.7944 25.6325 35.3012 24.0455C35.067 23.292 35.0676 22.0195 35.3028 20.9248C35.4193 20.3822 35.4481 20.0797 35.4064 19.838L35.3486 19.5031L34.9988 20.0636C34.5188 20.8328 33.8935 21.5022 33.2023 21.9865C32.8333 22.245 32.4194 22.634 32.0702 23.0505C31.7675 23.4116 31.4595 23.7729 31.3859 23.8535C31.3124 23.934 31.0748 24.2262 30.858 24.5029C30.6412 24.7795 30.3454 25.0859 30.2006 25.1836C29.9572 25.3481 28.7715 26.1949 27.9228 26.8105C27.7246 26.9543 27.5759 27.0854 27.5923 27.1018C27.635 27.1445 28.3584 26.9651 29.4487 26.6416C29.9656 26.4882 30.6086 26.3451 30.8774 26.3236C31.1462 26.3022 31.468 26.2267 31.5923 26.1559C31.9865 25.9314 32.5453 25.7749 32.9525 25.7749C33.4585 25.7749 33.5512 25.8143 33.7223 26.102C34.661 27.6798 35.0735 28.3705 35.1884 28.5567C35.2641 28.6794 35.3367 28.9222 35.3496 29.0961C35.3643 29.2926 35.4244 29.4497 35.5084 29.5111C35.7184 29.6647 35.8482 29.6343 35.8082 29.4407C35.789 29.3476 35.7524 29.1108 35.727 28.9144C35.6603 28.3999 35.8359 28.443 36.1871 29.0271C36.7198 29.9132 37.3735 30.8509 37.7159 31.2196C38.1149 31.6492 38.6564 32.0162 38.8916 32.0162C38.9834 32.0162 39.0733 32.0744 39.095 32.1477C39.1163 32.2202 39.3402 32.837 39.5925 33.5186C39.8448 34.2001 40.0512 34.7688 40.0512 34.7822C40.0512 34.7957 39.8668 34.8882 39.6413 34.9879L39.2315 35.1692L39.664 35.9426C39.9018 36.3679 40.2385 36.9587 40.4122 37.2553C40.6808 37.7143 40.728 37.8574 40.728 38.2141C40.728 38.4447 40.7026 38.6312 40.6716 38.6285C40.6405 38.6257 40.0404 38.1255 39.3378 37.517L38.0605 36.4104L36.6197 34.2744C35.5026 32.6184 35.1491 32.036 35.0464 31.6825C34.9736 31.4318 34.6961 30.6169 34.4298 29.8717L33.9454 28.5168L33.2542 27.7744L32.563 27.032L32.1518 27.0834L31.7405 27.1348L31.5274 28.0662L31.3144 28.9976L31.9982 30.1658L32.6821 31.3341V31.9007C32.6821 32.2123 32.6605 32.4673 32.6341 32.4673C32.6078 32.4673 32.2816 32.2267 31.9093 31.9326C31.1024 31.2953 30.645 30.9976 30.295 30.8821C30.0524 30.8021 30.0208 30.8121 29.7802 31.0452C29.6392 31.1819 29.5239 31.3362 29.5239 31.3881C29.5239 31.4399 29.8163 32.0992 30.1738 32.853L30.8237 34.2237L30.7819 35.4297C30.7493 36.3685 30.7628 36.6798 30.8429 36.8347C31.0539 37.2428 31.4842 38.8237 31.5293 39.3563C31.5703 39.8416 31.5598 39.9142 31.442 39.9594C31.214 40.0469 31.0732 39.8823 30.8593 39.2782C30.6209 38.6048 30.409 38.275 30.1769 38.216C30.0603 38.1865 29.9315 37.9989 29.7335 37.5706C29.3897 36.827 29.2559 36.7996 29.0191 37.4241C28.956 37.5905 28.935 37.5649 28.773 37.1233C28.4712 36.3006 28.1729 36.0096 28.0281 36.3963C27.9932 36.4894 27.9424 36.9884 27.9152 37.5054C27.8305 39.1156 27.7928 39.3853 27.6523 39.3853C27.4252 39.3853 27.0088 38.9612 26.704 38.4195C26.5386 38.1255 26.3826 37.8841 26.3573 37.8831C26.2242 37.8781 26.172 39.6158 26.2872 40.2124C26.3232 40.3986 26.3418 40.5618 26.3284 40.5753C26.3151 40.5887 26.1743 40.5153 26.0154 40.4122C25.6345 40.1648 24.8818 39.9426 24.193 39.8743C23.725 39.8277 23.585 39.7793 23.3078 39.5676C23.1266 39.4294 22.8671 39.2954 22.7309 39.2699C22.4502 39.2172 22.1286 38.8749 21.4594 37.9169C20.5904 36.6729 20.1996 35.6044 20.1996 34.472C20.1996 34.1103 20.1073 33.3873 19.9689 32.6659L19.7381 31.4629L19.9032 31.0064C19.994 30.7553 20.1562 30.3976 20.2637 30.2115C20.5217 29.7647 21.4262 28.8635 21.8883 28.5927L22.2563 28.377L22.0364 28.3091C21.9154 28.2718 21.3426 28.2383 20.7636 28.2347C19.2917 28.2256 18.2485 28.4587 16.3374 29.2239L15.391 29.6029L14.7668 29.2709C12.3321 27.9757 10.3887 28.9798 8.54265 32.4865C8.33593 32.879 8.10192 33.3822 8.02252 33.6045C7.94319 33.8269 7.67617 34.5333 7.42923 35.1744L6.98031 36.3399L6.49417 36.3891C5.99631 36.4394 5.6386 36.5775 5.4655 36.7861C5.40347 36.8608 5.24052 36.9051 5.01982 36.9072C4.5894 36.9112 4.2132 37.0414 3.86565 37.3065C3.61412 37.4983 3.58073 37.5047 3.26273 37.4196C2.95601 37.3376 2.90157 37.3447 2.64989 37.5002C2.49799 37.5941 2.30692 37.8018 2.22541 37.9616C2.14383 38.1216 2.00652 38.2901 1.92027 38.3362C1.62768 38.4929 1.16493 38.9603 1.01868 39.2469C0.938594 39.404 0.820763 39.7616 0.756847 40.0417C0.678117 40.3867 0.531261 40.7167 0.301013 41.0655C0.114228 41.3486 -0.020146 41.5988 0.00248777 41.6214C0.0251216 41.644 0.247474 41.6192 0.496596 41.5663C0.863925 41.4884 1.03507 41.4884 1.40105 41.566C2.20376 41.7364 2.9154 41.5621 3.59231 41.0296C3.743 40.911 3.94603 40.814 4.04348 40.814C4.14094 40.814 4.45397 40.7652 4.73912 40.7055C5.63695 40.5177 6.05 40.0045 6.05887 39.0657C6.06233 38.6967 6.08331 38.6333 6.20204 38.6333C6.44259 38.6333 6.94316 38.2065 7.2741 37.7191C7.44938 37.461 7.82709 36.7744 8.11358 36.1933C8.4 35.6122 8.71732 35.0268 8.81876 34.8924C9.06322 34.5685 9.22113 34.5724 9.22113 34.9025C9.22113 35.2681 8.94193 37.3188 8.75409 38.3326C8.45407 39.9517 8.53219 40.7902 9.17805 42.8819C9.57011 44.1518 9.57703 44.2062 9.66599 46.7168C9.7099 47.9576 9.766 49.3618 9.79059 49.8374L9.83525 50.7022L9.06661 51.6421C8.64386 52.1591 8.28788 52.594 8.27563 52.6085C8.26337 52.6231 8.17592 52.5808 8.08132 52.5145C7.67557 52.2303 7.44931 52.5008 7.34516 53.3947C7.30922 53.7029 7.13228 54.3562 6.93399 54.9131C6.74247 55.4508 6.51884 56.218 6.43695 56.618C6.25197 57.5217 5.94044 58.3476 5.49084 59.1264C4.61459 60.6443 4.56481 60.8125 4.935 61.0039C5.25631 61.1701 5.23713 61.4859 4.86274 62.1925C4.53421 62.8126 4.40277 63.5381 4.55023 63.9178C4.63023 64.1239 4.63294 64.1246 5.36955 64.1246C6.00586 64.1246 6.16068 64.0986 6.48342 63.9378C6.68953 63.835 6.96753 63.6383 7.10108 63.5005L7.34388 63.25L7.19214 62.7751C7.10875 62.5139 7.04047 62.2186 7.04047 62.1186C7.04047 62.0188 6.95835 61.8549 6.85797 61.7545L6.6754 61.572L6.88534 61.1376C7.34696 60.1824 7.7164 58.7173 7.717 57.8397C7.71723 57.4595 7.72008 57.455 8.28014 56.9517C9.12947 56.1886 9.6402 55.465 10.0722 54.4127C10.1389 54.2501 10.3491 54.0087 10.5866 53.8217C12.5326 52.2893 14.0046 50.3939 16.0735 46.756C16.5436 45.9295 16.7463 45.7902 17.098 46.052C17.283 46.1898 17.3098 46.2678 17.3546 46.7997C17.3822 47.1264 17.369 47.8335 17.3255 48.3711C17.2818 48.9088 17.2657 49.833 17.2895 50.4249L17.3328 51.5013L16.9239 52.1899C16.6991 52.5686 16.5151 52.9183 16.5151 52.9671C16.5151 53.1166 16.9351 53.8642 17.4293 54.5943C17.7015 54.9963 18.2446 55.6321 18.7182 56.1031C19.4162 56.7974 19.5752 57.0019 19.7992 57.4932C20.1201 58.1976 20.3992 59.2147 20.47 59.9375C20.499 60.2345 20.5866 60.6269 20.6646 60.8094L20.8064 61.1413L21.0518 60.9034C21.5057 60.4634 21.7111 60.6617 21.6857 61.5157C21.6596 62.3966 22.222 63.1892 22.7312 62.9892C22.8484 62.9431 23.1564 62.9101 23.4157 62.916C23.675 62.9218 24.0239 62.8856 24.1909 62.8356C24.4923 62.7452 24.8618 62.4 24.8618 62.2087C24.8618 62.1538 24.9633 62.0736 25.0873 62.0304C25.2119 61.9869 25.3129 61.8976 25.3129 61.8307C25.3129 61.7167 24.9526 61.1643 24.3412 60.3409C24.1715 60.1124 23.9973 59.9634 23.8693 59.9375C23.5905 59.881 23.4788 59.7307 23.2924 59.1617C23.1585 58.7531 23.0517 58.5941 22.6409 58.1928C21.99 57.5568 21.26 56.574 20.9113 55.8641C20.4648 54.9553 20.0349 53.6886 19.9962 53.1678C19.9659 52.7607 19.9886 52.651 20.1722 52.3136C20.2881 52.1007 20.8238 51.4703 21.3628 50.9127C22.4579 49.7797 22.9214 49.1502 23.2631 48.3317C23.3957 48.0141 23.5543 47.7533 23.6332 47.7229C23.8629 47.6344 24.3192 47.7298 25.4633 48.1052C26.063 48.302 26.7149 48.5015 26.9119 48.5487C27.3438 48.6519 28.6963 48.6622 28.9376 48.564C29.7345 48.2398 30.183 48.1606 31.3286 48.1422C32.3242 48.1261 32.5544 48.0994 32.9077 47.9585C33.9381 47.5476 34.5656 47.408 35.4062 47.4026L36.0625 47.3984L36.5554 47.901C37.4996 48.864 38.286 49.3651 39.5357 49.7999C39.964 49.949 40.3433 50.0997 40.3787 50.1351C40.4143 50.1706 40.3912 50.5294 40.3267 50.9394C40.2627 51.3466 40.1892 51.8654 40.1634 52.0923L40.1165 52.5048L40.2955 52.3366C40.5631 52.0852 40.6528 52.1238 40.6528 52.4901C40.6528 52.8369 40.7745 53.0629 41.1378 53.3904C41.4551 53.6765 41.5845 53.6318 41.6303 53.2206C41.6656 52.9037 41.6829 52.8814 41.9124 52.8593C42.1161 52.8396 42.1689 52.8678 42.2301 53.0285C42.2704 53.1345 42.3399 53.2212 42.3846 53.2212C42.5174 53.2212 42.7531 52.5982 42.8809 51.9096C42.9961 51.2885 43.0073 51.2662 43.2051 51.2662C43.3178 51.2662 43.426 51.2822 43.4456 51.3019C43.4653 51.3215 43.4524 51.6121 43.417 51.9478C43.2787 53.2584 42.811 53.9183 41.7227 54.338C41.385 54.4682 41.0736 54.5747 41.0306 54.5747C40.9875 54.5747 40.6548 54.4056 40.2911 54.1988C39.3663 53.6729 39.3117 53.6884 39.6509 54.3803L39.8522 54.7908L39.6534 55.2655C39.1624 56.4378 38.9817 57.4118 39.0762 58.377C39.091 58.5284 39.0377 58.69 38.9208 58.8482L38.7428 59.0889L39.1338 59.4848C39.5101 59.8658 39.5248 59.8964 39.5248 60.2961C39.5248 60.5247 39.5889 60.9127 39.6673 61.1586C39.7456 61.4044 39.8393 61.722 39.8756 61.8643C39.9591 62.192 40.2326 62.2766 41.0353 62.2233C41.8279 62.1706 43.0569 61.6489 43.0585 61.3644C43.0602 61.0573 42.0195 59.6731 41.657 59.5003C41.4322 59.3932 41.4237 59.3737 41.486 59.1055C41.5877 58.6677 41.5683 58.3043 41.3952 57.4015C41.2059 56.4146 41.2305 55.4048 41.4529 55.0283C41.6713 54.6586 42.2491 54.4559 42.4709 54.6712C42.8163 55.0065 43.0513 55.1011 43.5391 55.1011C43.9908 55.1011 44.0369 55.0865 44.0711 54.9319C44.5933 52.5682 45.2112 50.907 46.1717 49.2846C46.3957 48.9063 46.6385 48.4038 46.7114 48.1681C46.8356 47.7664 46.8362 47.7003 46.7226 47.1154C46.6559 46.7721 46.5631 46.1698 46.5164 45.7769C46.3372 44.2723 46.0707 43.0885 45.5281 41.3865C45.1875 40.3184 45.187 40.4964 45.5345 39.1973C45.9645 37.5895 46.0949 36.0726 46.181 31.6778C46.2215 29.6063 46.3135 28.3688 46.526 27.0345L46.6068 26.5269H47.3468C48.0684 26.5269 48.0906 26.5217 48.234 26.3201C48.4037 26.0816 48.5839 25.5127 48.7004 24.8473C48.8299 24.1088 48.8211 24.1231 49.0961 24.202C49.2285 24.24 49.5252 24.271 49.7555 24.271C50.2365 24.271 50.4328 24.1387 50.588 23.7095C50.6592 23.5125 50.7277 23.4439 50.8533 23.4439C51.1085 23.4439 51.397 23.2889 51.4494 23.1238C51.475 23.043 51.454 22.8268 51.4026 22.6434C51.3376 22.411 51.3277 22.1341 51.3702 21.7302C51.4765 20.72 51.4591 20.2314 51.3117 20.0842C51.2127 19.9853 51.1801 19.9785 51.1801 20.0569C51.1801 20.1142 51.1294 20.2171 51.0675 20.2855C50.9727 20.3902 50.8971 20.3983 50.5934 20.3361C50.1616 20.2476 49.8845 20.305 49.6791 20.5255C49.5957 20.615 49.5176 20.6738 49.5056 20.6562C49.4936 20.6385 49.4259 20.4967 49.3551 20.341C49.2814 20.179 49.0816 19.9559 48.8874 19.819C48.5742 19.5982 48.5483 19.5551 48.5483 19.2534C48.5483 18.9562 48.5355 18.9338 48.4058 19.0032C48.3274 19.045 48.1667 19.2323 48.0486 19.4192C47.9305 19.6061 47.8154 19.7591 47.7926 19.7592C47.7699 19.7592 47.7648 19.644 47.7812 19.5032C47.8183 19.1855 47.6184 18.4783 47.3888 18.1149C47.139 17.7193 46.3742 16.9771 46.2164 16.9771C46.0347 16.9771 45.943 17.7166 46.0664 18.1874C46.168 18.5751 46.4789 19.0826 46.6147 19.0826C46.7711 19.0826 47.2429 19.5125 47.3377 19.7413C47.4067 19.9081 47.4049 20.0187 47.3293 20.2446C47.1864 20.6714 47.0453 20.7287 46.6319 20.5277C46.1423 20.2899 46.0184 20.3073 45.9595 20.6219C45.8952 20.964 45.5836 21.326 45.2052 21.4978C44.7957 21.6839 43.9476 21.68 43.1483 21.4883C42.8044 21.4059 42.5139 21.3384 42.5027 21.3384C42.4915 21.3384 42.498 21.6091 42.5172 21.94C42.5383 22.3054 42.5231 22.5415 42.4784 22.5415C42.3535 22.5415 41.7283 21.1188 41.4707 20.2481C41.2303 19.4353 41.2261 19.3953 41.2294 17.9464C41.2328 16.4155 41.2685 16.0741 41.425 16.0757C41.4759 16.0762 41.594 16.1946 41.6874 16.3388C41.8433 16.5795 41.8876 16.6011 42.2246 16.6011C42.5869 16.6011 42.5943 16.5964 42.7691 16.2479C42.9719 15.8434 43.2952 15.6412 43.7929 15.6076C44.0194 15.5923 44.1256 15.5474 44.1552 15.4544C44.3016 14.9946 44.882 15.7079 45.3177 16.8831C45.3675 17.0175 45.4468 17.1275 45.4939 17.1275C45.742 17.1275 45.9203 16.3197 45.7727 15.8641C45.6957 15.6263 45.7044 15.5233 45.8331 15.1536C45.9158 14.9158 45.96 14.7214 45.9312 14.7215C45.7931 14.7223 45.3978 15.0297 45.3529 15.1712C45.3134 15.2957 45.2798 15.312 45.1999 15.2458C45.0151 15.0924 44.6388 14.4493 44.5144 14.0742C44.4472 13.8718 44.3334 13.6384 44.2615 13.5557C44.1897 13.473 44.0988 13.3038 44.0594 13.1797C43.9946 12.975 43.933 12.9399 43.3919 12.7995C43.0641 12.7146 42.8007 12.6131 42.8066 12.574C42.9346 11.7301 42.9415 11.7676 42.5754 11.3182C42.1859 10.84 42.1074 10.4318 42.3773 10.2873C42.4597 10.2433 43.031 10.2095 43.6956 10.2095C45.0785 10.2095 45.2225 10.2524 45.8499 10.8508C46.0871 11.0771 46.3361 11.2622 46.4033 11.2622C46.4703 11.2622 46.6087 11.1722 46.7107 11.0621C46.8975 10.8605 46.9033 10.7845 46.7785 10.1653C46.6981 9.76631 45.221 9.47531 43.9798 9.61389C43.4367 9.6745 43.2579 9.66706 42.9905 9.57269C42.2662 9.31717 41.741 9.53411 41.4185 10.2221L41.2167 10.6524L40.7313 10.7045C39.6954 10.8159 38.077 10.6429 37.6643 10.3768C37.3902 10.2001 37.3083 9.7891 37.4428 9.26439C37.5055 9.0191 37.6462 8.41235 37.7553 7.91606C37.8645 7.41977 38.0749 6.48923 38.2228 5.84819C38.3709 5.20715 38.6199 4.12434 38.7762 3.44194C38.9325 2.75954 39.1172 1.95442 39.1866 1.65274C39.396 0.742652 39.1887 0.616323 38.6984 1.35527ZM55.317 3.61113C55.318 3.74791 55.3321 3.75874 55.3911 3.66752C55.4853 3.52172 55.4853 3.44194 55.3911 3.44194C55.3497 3.44194 55.3164 3.51811 55.317 3.61113ZM55.303 4.23149C55.278 4.27285 55.2339 4.66198 55.2048 5.09623C55.1339 6.15483 54.8381 7.85395 54.5968 8.58876C54.1895 9.82873 53.574 10.742 52.8658 11.1571L52.5385 11.3489L52.7367 11.5193C53.0089 11.7535 52.9259 11.9018 52.4446 12.0413C51.6365 12.2757 51.4362 12.2789 51.1773 12.061C50.9087 11.835 50.6862 11.8119 50.44 11.9843C50.2803 12.0962 50.2607 12.0948 50.1663 11.9657C50.0452 11.8 50.1249 11.674 50.3937 11.6066C50.655 11.541 50.625 11.4512 50.259 11.2042C49.8083 10.9 49.4866 10.7858 49.205 10.8297C48.9814 10.8646 48.9497 10.843 48.8115 10.5613C48.6273 10.1861 48.3759 9.99521 47.9826 9.93174L47.6835 9.88354L47.9539 10.2157C48.3089 10.6521 48.3979 10.8297 48.3979 11.1019C48.3979 11.262 48.4419 11.3413 48.5498 11.3755C48.7981 11.4543 49.3002 12.2959 49.3002 12.6331C49.3002 12.7916 49.351 13.0429 49.413 13.1913C49.5457 13.5089 49.5581 13.8438 49.4448 14.0554C49.2969 14.3316 49.1183 14.4956 48.964 14.4968C48.6145 14.4994 48.6181 14.6043 48.9855 15.1083C49.1832 15.3793 49.4387 15.8176 49.5533 16.0823C49.9109 16.9072 49.9137 16.9111 50.1232 16.8867C50.3509 16.8602 50.5719 16.4667 50.6336 15.978C50.6556 15.8037 50.7282 15.5985 50.795 15.522C50.9349 15.3616 50.94 14.8247 50.8041 14.5706C50.756 14.481 50.7286 14.3957 50.7431 14.3813C50.7576 14.3668 51.08 14.305 51.4595 14.2438C53.0833 13.9824 54.1201 12.9102 54.8153 10.7735C55.2283 9.50381 55.5442 7.20892 55.5345 5.54741C55.5302 4.79959 55.4015 4.06816 55.303 4.23149ZM35.6147 41.817C35.6147 42.3778 37.3311 43.7003 39.3369 44.6849C39.8745 44.9488 40.4128 45.1891 40.533 45.2188C40.8438 45.2956 41.5371 45.9753 41.4219 46.0905C41.3556 46.1569 41.1916 46.1387 40.7403 46.015C40.015 45.8162 39.7915 45.8051 39.8552 45.9711C39.8803 46.0365 39.9008 46.1366 39.9008 46.1937C39.9008 46.2518 40.0388 46.3346 40.2145 46.3819C40.387 46.4284 40.7097 46.6143 40.9315 46.795C41.6842 47.408 43.2811 48.2994 43.3366 48.1374C43.3524 48.0916 43.41 47.993 43.4646 47.9182C43.5548 47.7949 43.6027 47.8413 43.9857 48.4229C44.4118 49.0699 44.9279 49.6119 45.1179 49.6119C45.2724 49.6119 45.3689 49.4615 45.4687 49.0657C45.518 48.8698 45.584 48.7095 45.6154 48.7095C45.6469 48.7095 45.7144 48.6086 45.7655 48.4852C45.8469 48.2887 45.8364 48.2165 45.6806 47.9024C45.5163 47.5711 45.4113 47.4886 44.2906 46.811L43.0784 46.0781L42.1354 44.8893C41.0936 43.576 40.1069 42.523 39.6228 42.2078C39.3187 42.0099 39.2653 42.0016 38.1565 41.9807C37.268 41.964 36.8773 41.9231 36.4418 41.8014C35.7076 41.5961 35.6147 41.5979 35.6147 41.817Z" fill="#232323"/>
</svg>
