<svg width="23" height="27" viewBox="0 0 23 27" fill="none" xmlns="http://www.w3.org/2000/svg">
<path fill-rule="evenodd" clip-rule="evenodd" d="M15.9346 0.197581C15.775 0.4381 15.4535 1.09113 15.2846 1.51789C14.9848 2.27534 14.6688 3.3725 14.5987 3.89964C14.5656 4.1483 14.5672 4.18756 14.6132 4.25779C14.6416 4.30117 14.665 4.36154 14.6652 4.39195C14.6657 4.49422 14.8142 4.76774 14.9478 4.91271C15.2052 5.19193 15.5493 5.30804 16.1278 5.31089L16.5226 5.31284V5.46057C16.5226 5.54184 16.5087 5.60832 16.4917 5.60832C16.4747 5.60832 16.3318 5.58603 16.1743 5.55878C15.765 5.488 15.0694 5.51122 14.7793 5.60538C14.6635 5.64297 14.5617 5.69201 14.5531 5.71434C14.5335 5.76533 14.7766 6.51937 14.8545 6.64901C14.9936 6.88086 15.2886 6.99585 15.8131 7.02282C16.1566 7.04047 16.1775 7.03796 16.3085 6.96319C16.5028 6.85222 16.5962 6.83633 16.673 6.90123C16.7419 6.95944 16.7304 6.84147 16.8356 8.56526C16.8685 9.10448 16.8761 9.14625 17.0676 9.85022C17.1766 10.2504 17.3016 10.7102 17.3455 10.872C17.3894 11.0338 17.4444 11.2349 17.4677 11.3189C17.5138 11.4855 17.5057 11.5292 17.4336 11.5015C17.3586 11.4727 17.2538 11.2374 16.9702 10.461C16.9405 10.3798 16.9114 10.3181 16.9054 10.324C16.8996 10.3299 16.9421 10.5497 17.0001 10.8124C17.0581 11.0751 17.12 11.3945 17.1378 11.5222C17.1985 11.9592 17.3285 12.2953 17.5915 12.6959C17.7226 12.8956 17.726 12.9074 17.747 13.2329C17.7588 13.416 17.762 13.5657 17.7539 13.5657C17.7416 13.5657 17.519 13.4658 16.7781 13.1275C16.7057 13.0945 16.6465 13.0563 16.6465 13.0426C16.6465 12.9647 15.9731 11.797 15.8589 11.677C15.281 11.0693 14.7389 10.1941 14.5358 9.54059C14.4394 9.23034 14.4396 8.70639 14.5364 8.25563C14.5844 8.03221 14.5963 7.90761 14.5791 7.80813L14.5553 7.67022L14.4113 7.90102C14.2136 8.21774 13.9561 8.49337 13.6715 8.69277C13.5196 8.79922 13.3492 8.95942 13.2054 9.13092C13.0807 9.2796 12.9539 9.42838 12.9236 9.46154C12.8933 9.4947 12.7955 9.61502 12.7062 9.72894C12.6169 9.84285 12.4951 9.96899 12.4355 10.0092C12.3353 10.077 11.8471 10.4257 11.4976 10.6792C11.416 10.7384 11.3548 10.7923 11.3615 10.7991C11.3791 10.8167 11.677 10.7428 12.1259 10.6096C12.3388 10.5464 12.6035 10.4875 12.7142 10.4787C12.8249 10.4698 12.9574 10.4388 13.0086 10.4096C13.1709 10.3172 13.401 10.2527 13.5687 10.2527C13.777 10.2527 13.8152 10.269 13.8856 10.3874C14.2722 11.0371 14.442 11.3215 14.4893 11.3982C14.5205 11.4487 14.5504 11.5486 14.5557 11.6203C14.5617 11.7012 14.5865 11.7659 14.6211 11.7911C14.7076 11.8544 14.761 11.8419 14.7446 11.7622C14.7366 11.7238 14.7216 11.6263 14.7111 11.5454C14.6836 11.3336 14.7559 11.3513 14.9005 11.5919C15.1199 11.9567 15.3891 12.3428 15.5301 12.4947C15.6943 12.6715 15.9173 12.8226 16.0142 12.8226C16.052 12.8226 16.089 12.8466 16.0979 12.8768C16.1067 12.9066 16.1989 13.1606 16.3028 13.4413C16.4067 13.7219 16.4917 13.9561 16.4917 13.9616C16.4917 13.9671 16.4157 14.0053 16.3229 14.0463L16.1541 14.1209L16.3322 14.4394C16.4301 14.6145 16.5688 14.8578 16.6403 14.9799C16.7509 15.1689 16.7703 15.2279 16.7703 15.3747C16.7703 15.4697 16.7599 15.5465 16.7471 15.5453C16.7343 15.5442 16.4872 15.3383 16.1979 15.0877L15.672 14.632L15.0787 13.7525C14.6187 13.0706 14.4731 12.8308 14.4309 12.6853C14.4009 12.582 14.2866 12.2465 14.1769 11.9396L13.9775 11.3817L13.6929 11.076L13.4083 10.7703L13.239 10.7915L13.0696 10.8127L12.9819 11.1962L12.8942 11.5797L13.1757 12.0607L13.4573 12.5418V12.7751C13.4573 12.9034 13.4484 13.0084 13.4376 13.0084C13.4267 13.0084 13.2924 12.9093 13.1391 12.7882C12.8068 12.5258 12.6185 12.4032 12.4744 12.3557C12.3745 12.3227 12.3615 12.3269 12.2624 12.4228C12.2044 12.4791 12.1569 12.5426 12.1569 12.564C12.1569 12.5853 12.2773 12.8568 12.4245 13.1672L12.6921 13.7316L12.6749 14.2282C12.6614 14.6148 12.667 14.743 12.7 14.8068C12.7869 14.9748 12.9641 15.6257 12.9826 15.8451C12.9995 16.0449 12.9952 16.0748 12.9467 16.0934C12.8528 16.1294 12.7948 16.0617 12.7068 15.8129C12.6086 15.5356 12.5213 15.3998 12.4258 15.3755C12.3778 15.3633 12.3247 15.2861 12.2432 15.1098C12.1016 14.8036 12.0465 14.7923 11.949 15.0494C11.923 15.1179 11.9144 15.1074 11.8477 14.9256C11.7234 14.5868 11.6006 14.467 11.541 14.6262C11.5266 14.6646 11.5057 14.8701 11.4945 15.0829C11.4596 15.7459 11.4441 15.857 11.3862 15.857C11.2927 15.857 11.1213 15.6824 10.9958 15.4593C10.9277 15.3382 10.8634 15.2388 10.853 15.2384C10.7982 15.2364 10.7767 15.9519 10.8241 16.1976C10.8389 16.2742 10.8466 16.3414 10.8411 16.347C10.8356 16.3525 10.7776 16.3223 10.7122 16.2798C10.5554 16.178 10.2454 16.0865 9.96183 16.0583C9.76912 16.0392 9.71147 16.0192 9.59731 15.9321C9.52272 15.8751 9.41583 15.82 9.35979 15.8095C9.24421 15.7878 9.11175 15.6468 8.83621 15.2523C8.47838 14.7401 8.31749 14.3001 8.31749 13.8339C8.31749 13.6849 8.27947 13.3872 8.22247 13.0902L8.12744 12.5948L8.19541 12.4069C8.23281 12.3035 8.2996 12.1562 8.34387 12.0795C8.45011 11.8956 8.82256 11.5245 9.01282 11.413L9.16436 11.3242L9.07379 11.2962C9.02397 11.2808 8.78813 11.267 8.54971 11.2656C7.94362 11.2618 7.51407 11.3578 6.72715 11.6729L6.33746 11.829L6.08044 11.6922C5.07792 11.1589 4.27769 11.5724 3.51756 13.0163C3.43244 13.1779 3.33608 13.3851 3.30339 13.4767C3.27072 13.5683 3.16077 13.8591 3.05909 14.1231L2.87424 14.603L2.67407 14.6232C2.46906 14.644 2.32177 14.7008 2.2505 14.7867C2.22495 14.8175 2.15786 14.8357 2.06698 14.8366C1.88975 14.8383 1.73485 14.8918 1.59174 15.001C1.48816 15.08 1.47442 15.0826 1.34348 15.0476C1.21718 15.0138 1.19476 15.0168 1.09113 15.0808C1.02858 15.1195 0.949909 15.2049 0.916345 15.2708C0.882751 15.3366 0.826212 15.406 0.790698 15.425C0.670222 15.4895 0.479677 15.682 0.419455 15.8C0.38648 15.8647 0.337961 16.0119 0.311643 16.1273C0.279225 16.2693 0.218754 16.4052 0.123946 16.5488C0.047035 16.6654 -0.00829541 16.7684 0.00102437 16.7777C0.0103442 16.787 0.101901 16.7768 0.204481 16.7551C0.355734 16.723 0.426205 16.723 0.5769 16.7549C0.907428 16.8251 1.20046 16.7533 1.47919 16.534C1.54123 16.4852 1.62483 16.4453 1.66496 16.4453C1.70509 16.4453 1.83399 16.4252 1.9514 16.4006C2.32109 16.3233 2.49117 16.1119 2.49483 15.7254C2.49625 15.5734 2.50489 15.5474 2.55378 15.5474C2.65283 15.5474 2.85895 15.3716 2.99521 15.1709C3.06739 15.0647 3.22291 14.7819 3.34088 14.5427C3.45882 14.3034 3.58948 14.0623 3.63125 14.007C3.73191 13.8736 3.79693 13.8752 3.79693 14.0111C3.79693 14.1617 3.68197 15.0061 3.60462 15.4235C3.48108 16.0902 3.51325 16.4355 3.77919 17.2968C3.94063 17.8197 3.94348 17.8421 3.98011 18.8759C3.99819 19.3867 4.02129 19.965 4.03141 20.1608L4.04981 20.5169L3.7333 20.9039C3.55923 21.1168 3.41265 21.2958 3.40761 21.3018C3.40256 21.3079 3.36655 21.2904 3.3276 21.2631C3.16052 21.1461 3.06736 21.2575 3.02447 21.6256C3.00967 21.7524 2.93682 22.0215 2.85517 22.2508C2.77631 22.4722 2.68422 22.7881 2.65051 22.9528C2.57434 23.3249 2.44606 23.665 2.26093 23.9857C1.90012 24.6107 1.87963 24.6799 2.03206 24.7588C2.16436 24.8272 2.15646 24.9572 2.0023 25.2482C1.86703 25.5035 1.8129 25.8022 1.87362 25.9586C1.90656 26.0434 1.90768 26.0437 2.21099 26.0437C2.473 26.0437 2.53675 26.033 2.66964 25.9668C2.75451 25.9245 2.86898 25.8435 2.92397 25.7868L3.02395 25.6836L2.96146 25.4881C2.92713 25.3805 2.89901 25.2589 2.89901 25.2178C2.89901 25.1766 2.8652 25.1092 2.82387 25.0678L2.74869 24.9927L2.83514 24.8138C3.02522 24.4205 3.17734 23.8172 3.17758 23.4558C3.17768 23.2993 3.17885 23.2974 3.40946 23.0902C3.75919 22.776 3.96949 22.478 4.14737 22.0447C4.17483 21.9778 4.2614 21.8784 4.35919 21.8014C5.16047 21.1704 5.7666 20.3899 6.61851 18.892C6.81205 18.5516 6.89553 18.4943 7.04034 18.6021C7.11654 18.6588 7.12756 18.691 7.14602 18.91C7.15735 19.0445 7.15193 19.3357 7.134 19.557C7.11605 19.7784 7.10939 20.159 7.1192 20.4027L7.13701 20.8459L6.96866 21.1295C6.87609 21.2854 6.80032 21.4294 6.80032 21.4495C6.80032 21.511 6.97328 21.8189 7.17676 22.1195C7.28885 22.285 7.51246 22.5468 7.70747 22.7408C7.99489 23.0267 8.06038 23.1109 8.15259 23.3132C8.28473 23.6032 8.39967 24.022 8.4288 24.3197C8.44076 24.442 8.47683 24.6035 8.50894 24.6787L8.56733 24.8153L8.66836 24.7174C8.85529 24.5362 8.93984 24.6178 8.92941 24.9695C8.91867 25.3322 9.15024 25.6586 9.35988 25.5762C9.40816 25.5572 9.53498 25.5437 9.64174 25.5461C9.74853 25.5485 9.89217 25.5336 9.96097 25.513C10.0851 25.4758 10.2372 25.3336 10.2372 25.2548C10.2372 25.2323 10.279 25.1992 10.3301 25.1814C10.3814 25.1635 10.423 25.1267 10.423 25.0992C10.423 25.0523 10.2746 24.8248 10.0228 24.4857C9.95298 24.3916 9.88124 24.3303 9.82851 24.3196C9.71373 24.2964 9.66775 24.2345 9.59096 24.0002C9.53585 23.832 9.49185 23.7665 9.32273 23.6013C9.05469 23.3393 8.7541 22.9347 8.61052 22.6424C8.42667 22.2682 8.24965 21.7466 8.23374 21.5321C8.22126 21.3645 8.23058 21.3193 8.30619 21.1804C8.35391 21.0927 8.57451 20.8332 8.79642 20.6036C9.24737 20.137 9.43822 19.8778 9.57892 19.5408C9.6335 19.41 9.6988 19.3026 9.73131 19.2901C9.8259 19.2537 10.0138 19.293 10.4849 19.4475C10.7318 19.5285 11.0002 19.6107 11.0814 19.6301C11.2592 19.6726 11.8161 19.6769 11.9155 19.6365C12.2436 19.5029 12.4283 19.4703 12.9 19.4628C13.31 19.4562 13.4047 19.4451 13.5502 19.3871C13.9745 19.2179 14.2329 19.1605 14.579 19.1582L14.8493 19.1565L15.0522 19.3635C15.441 19.76 15.7648 19.9663 16.2794 20.1454C16.4557 20.2067 16.6119 20.2688 16.6265 20.2834C16.6412 20.298 16.6316 20.4457 16.6051 20.6146C16.5787 20.7822 16.5485 20.9958 16.5379 21.0893L16.5185 21.2591L16.5923 21.1899C16.7025 21.0863 16.7394 21.1022 16.7394 21.2531C16.7394 21.3959 16.7895 21.4889 16.9391 21.6238C17.0697 21.7416 17.123 21.7232 17.1419 21.5539C17.1564 21.4234 17.1635 21.4142 17.258 21.4051C17.3419 21.397 17.3637 21.4086 17.3888 21.4748C17.4054 21.5184 17.4341 21.5541 17.4525 21.5541C17.5071 21.5541 17.6042 21.2976 17.6568 21.014C17.7043 20.7583 17.7089 20.7491 17.7903 20.7491C17.8367 20.7491 17.8813 20.7557 17.8893 20.7638C17.8975 20.7719 17.8921 20.8916 17.8776 21.0298C17.8206 21.5694 17.6281 21.8412 17.1799 22.014C17.0409 22.0676 16.9126 22.1115 16.8949 22.1115C16.8772 22.1115 16.7402 22.0418 16.5904 21.9566C16.2096 21.7401 16.1871 21.7465 16.3268 22.0314L16.4097 22.2004L16.3279 22.3959C16.1257 22.8786 16.0513 23.2797 16.0902 23.6771C16.0963 23.7395 16.0743 23.806 16.0262 23.8711L15.9529 23.9702L16.1139 24.1333C16.2688 24.2901 16.2749 24.3027 16.2749 24.4673C16.2749 24.5614 16.3013 24.7212 16.3336 24.8224C16.3658 24.9237 16.4044 25.0544 16.4194 25.1131C16.4537 25.248 16.5663 25.2828 16.8969 25.2609C17.2232 25.2392 17.7293 25.0243 17.7299 24.9072C17.7307 24.7807 17.3021 24.2108 17.1529 24.1396C17.0603 24.0955 17.0568 24.0875 17.0825 23.9771C17.1243 23.7968 17.1163 23.6472 17.0451 23.2754C16.9671 22.8691 16.9772 22.4533 17.0688 22.2982C17.1588 22.146 17.3967 22.0625 17.488 22.1512C17.6302 22.2892 17.727 22.3282 17.9279 22.3282C18.1139 22.3282 18.1328 22.3222 18.1469 22.2585C18.3619 21.2852 18.6164 20.6012 19.0118 19.9332C19.1041 19.7774 19.2041 19.5705 19.2341 19.4734C19.2852 19.308 19.2855 19.2808 19.2387 19.04C19.2112 18.8986 19.173 18.6506 19.1538 18.4888C19.08 17.8693 18.9703 17.3818 18.7468 16.681C18.6066 16.2412 18.6064 16.3145 18.7495 15.7796C18.9265 15.1175 18.9802 14.4929 19.0157 12.6833C19.0324 11.8303 19.0702 11.3208 19.1577 10.7714L19.191 10.5624H19.4957C19.7928 10.5624 19.802 10.5602 19.861 10.4772C19.9309 10.379 20.0051 10.1448 20.0531 9.87078C20.1064 9.56666 20.1028 9.57257 20.216 9.60505C20.2705 9.62069 20.3927 9.63348 20.4876 9.63348C20.6856 9.63348 20.7664 9.57898 20.8303 9.40225C20.8596 9.32116 20.8879 9.29289 20.9396 9.29289C21.0446 9.29289 21.1634 9.22907 21.185 9.16108C21.1956 9.12782 21.1869 9.03881 21.1658 8.96329C21.139 8.86758 21.1349 8.75355 21.1524 8.58724C21.1962 8.17129 21.189 7.9701 21.1283 7.90947C21.0876 7.86876 21.0741 7.86597 21.0741 7.89823C21.0741 7.92183 21.0533 7.96421 21.0278 7.99239C20.9887 8.03549 20.9576 8.0388 20.8325 8.0132C20.6548 7.97675 20.5407 8.00041 20.4561 8.09119C20.4217 8.12807 20.3896 8.15228 20.3846 8.145C20.3797 8.13773 20.3518 8.07933 20.3227 8.01524C20.2923 7.94851 20.21 7.85665 20.1301 7.8003C20.0011 7.70936 19.9904 7.69162 19.9904 7.56739C19.9904 7.44503 19.9852 7.43577 19.9318 7.46435C19.8995 7.4816 19.8333 7.55869 19.7847 7.63567C19.7361 7.71264 19.6887 7.77562 19.6793 7.77565C19.67 7.77568 19.6678 7.72825 19.6746 7.67025C19.6899 7.53944 19.6076 7.24823 19.513 7.09859C19.4101 6.93572 19.0952 6.63009 19.0303 6.63009C18.9554 6.63009 18.9177 6.93458 18.9685 7.12844C19.0104 7.28808 19.1384 7.49705 19.1943 7.49705C19.2587 7.49705 19.4529 7.67406 19.492 7.76828C19.5204 7.83696 19.5197 7.88253 19.4885 7.97555C19.4297 8.15126 19.3716 8.17485 19.2013 8.09212C18.9998 7.99418 18.9487 8.00134 18.9245 8.13089C18.898 8.27177 18.7697 8.42082 18.6139 8.49157C18.4453 8.56817 18.0961 8.56656 17.7669 8.48764C17.6253 8.4537 17.5057 8.42593 17.5011 8.42593C17.4965 8.42593 17.4992 8.5374 17.507 8.67363C17.5158 8.82411 17.5095 8.92133 17.4911 8.92133C17.4396 8.92133 17.1822 8.33549 17.0762 7.97697C16.9772 7.64229 16.9755 7.62582 16.9768 7.02923C16.9782 6.39886 16.9929 6.25826 17.0573 6.25891C17.0783 6.25913 17.1269 6.30789 17.1654 6.36728C17.2296 6.46636 17.2478 6.47528 17.3866 6.47528C17.5358 6.47528 17.5388 6.47333 17.6108 6.32981C17.6943 6.16327 17.8274 6.08004 18.0324 6.0662C18.1256 6.05988 18.1693 6.0414 18.1815 6.0031C18.2418 5.81376 18.4808 6.10747 18.6602 6.59139C18.6807 6.64672 18.7134 6.69202 18.7328 6.69202C18.8349 6.69202 18.9083 6.35938 18.8476 6.17178C18.8158 6.07388 18.8194 6.03146 18.8724 5.87924C18.9065 5.78131 18.9247 5.70127 18.9128 5.70133C18.856 5.70164 18.6932 5.82822 18.6747 5.88649C18.6584 5.93773 18.6446 5.94448 18.6117 5.9172C18.5356 5.85404 18.3807 5.58925 18.3294 5.43477C18.3018 5.35142 18.2549 5.25534 18.2253 5.22129C18.1958 5.18723 18.1583 5.11756 18.1421 5.06647C18.1154 4.98216 18.09 4.9677 17.8672 4.90992C17.7322 4.87494 17.6238 4.83314 17.6262 4.81704C17.6789 4.46957 17.6818 4.48499 17.531 4.29996C17.3706 4.10304 17.3383 3.93497 17.4495 3.87549C17.4834 3.85735 17.7186 3.84344 17.9923 3.84344C18.5617 3.84344 18.621 3.86109 18.8793 4.10749C18.977 4.20069 19.0796 4.27692 19.1072 4.27692C19.1348 4.27692 19.1918 4.23983 19.2338 4.1945C19.3107 4.11149 19.3131 4.08022 19.2617 3.82524C19.2286 3.66095 18.6204 3.54112 18.1093 3.59819C17.8857 3.62314 17.8121 3.62008 17.702 3.58122C17.4037 3.47601 17.1875 3.56534 17.0547 3.84861L16.9716 4.02581L16.7717 4.04727C16.3451 4.09313 15.6787 4.02191 15.5088 3.91234C15.3959 3.83957 15.3622 3.67033 15.4176 3.45427C15.4434 3.35327 15.5014 3.10343 15.5463 2.89908C15.5912 2.69473 15.6779 2.31156 15.7388 2.04761C15.7998 1.78365 15.9023 1.33778 15.9667 1.0568C16.031 0.77581 16.1071 0.444292 16.1356 0.32007C16.2219 -0.0546723 16.1365 -0.10669 15.9346 0.197581ZM22.7776 1.12646C22.778 1.18278 22.7838 1.18724 22.8081 1.14969C22.8469 1.08965 22.8469 1.0568 22.8081 1.0568C22.791 1.0568 22.7773 1.08816 22.7776 1.12646ZM22.7718 1.38191C22.7615 1.39894 22.7433 1.55917 22.7314 1.73798C22.7022 2.17387 22.5804 2.87351 22.481 3.17607C22.3133 3.68665 22.0599 4.06272 21.7682 4.23364L21.6335 4.31259L21.7151 4.38275C21.8272 4.4792 21.793 4.54026 21.5948 4.59773C21.2621 4.69424 21.1796 4.69554 21.073 4.60581C20.9624 4.51277 20.8708 4.50323 20.7694 4.57423C20.7036 4.6203 20.6956 4.61974 20.6567 4.56658C20.6068 4.49837 20.6396 4.44647 20.7503 4.4187C20.8579 4.3917 20.8456 4.35473 20.6948 4.25302C20.5093 4.12777 20.3768 4.08074 20.2608 4.09882C20.1688 4.11319 20.1558 4.1043 20.0988 3.98829C20.023 3.83381 19.9195 3.7552 19.7575 3.72907L19.6344 3.70922L19.7457 3.84598C19.8919 4.02569 19.9285 4.09879 19.9285 4.21088C19.9285 4.27683 19.9466 4.30946 19.9911 4.32355C20.0933 4.356 20.3001 4.70254 20.3001 4.8414C20.3001 4.90667 20.321 5.01012 20.3465 5.07124C20.4012 5.20203 20.4062 5.3399 20.3596 5.42703C20.2987 5.54079 20.2251 5.60832 20.1616 5.60878C20.0177 5.60987 20.0192 5.65306 20.1705 5.8606C20.2519 5.97219 20.3571 6.15265 20.4043 6.26163C20.5515 6.6013 20.5527 6.60291 20.6389 6.59287C20.7327 6.58194 20.8237 6.41992 20.8491 6.21869C20.8581 6.14695 20.8881 6.06245 20.9156 6.03093C20.9732 5.96489 20.9753 5.74381 20.9193 5.63919C20.8995 5.60228 20.8882 5.56717 20.8942 5.56123C20.9002 5.55525 21.0329 5.5298 21.1892 5.50463C21.8578 5.397 22.2847 4.9555 22.571 4.07566C22.7411 3.55286 22.8711 2.60791 22.8671 1.92375C22.8653 1.61583 22.8124 1.31465 22.7718 1.38191ZM14.6649 16.8583C14.6649 17.0892 15.3716 17.6338 16.1975 18.0392C16.4189 18.1479 16.6405 18.2468 16.69 18.259C16.818 18.2906 17.1035 18.5705 17.0561 18.618C17.0288 18.6453 16.9612 18.6378 16.7754 18.5868C16.4768 18.505 16.3847 18.5004 16.4109 18.5688C16.4213 18.5957 16.4297 18.6369 16.4297 18.6604C16.4297 18.6844 16.4865 18.7185 16.5589 18.7379C16.6299 18.7571 16.7628 18.8336 16.8541 18.908C17.164 19.1605 17.8216 19.5275 17.8445 19.4608C17.851 19.4419 17.8747 19.4013 17.8972 19.3705C17.9343 19.3198 17.954 19.3389 18.1118 19.5784C18.2872 19.8448 18.4997 20.0679 18.5779 20.0679C18.6416 20.0679 18.6813 20.006 18.7224 19.843C18.7427 19.7624 18.7699 19.6964 18.7828 19.6964C18.7957 19.6964 18.8236 19.6548 18.8446 19.604C18.8781 19.5231 18.8738 19.4933 18.8097 19.364C18.742 19.2276 18.6987 19.1936 18.2373 18.9146L17.7382 18.6128L17.3499 18.1233C16.9209 17.5826 16.5146 17.149 16.3153 17.0192C16.19 16.9377 16.168 16.9343 15.7115 16.9257C15.3456 16.9188 15.1848 16.902 15.0054 16.8519C14.7031 16.7673 14.6649 16.7681 14.6649 16.8583Z" fill="white"/>
</svg>
